<svg xmlns="http://www.w3.org/2000/svg" xmlns:xlink="http://www.w3.org/1999/xlink" width="105" height="103.477" viewBox="0 0 105 103.477">
  <defs>
    <clipPath id="clip-path">
      <rect id="BG" width="105" height="103.477" transform="translate(1280.982 641.555)" fill="#c6e697" opacity="0.949"/>
    </clipPath>
  </defs>
  <g id="Enmascarar_grupo_1098721" data-name="Enmascarar grupo 1098721" transform="translate(-1280.982 -641.555)" clip-path="url(#clip-path)">
    <path id="Trazado_882547" data-name="Trazado 882547" d="M74.524,51.319c-.195.105-.382.225-.573.341-.061-.078-.117-.158-.184-.23a.28.28,0,0,0-.485.229c.026.123.052.246.079.371a20.084,20.084,0,0,0-8.178,15.4c-.02.037-.039.078-.057.119q-.737-2.87-1.2-5.745c0-.005,0-.011,0-.016a.16.16,0,0,0,.044-.1c0-.208.019-.426.032-.64.418-4.312,2.8-8.706,3.4-12.923.485-3.416-.684-8.048-4.635-8.713-.021,0-.038.008-.058.01,0-.038,0-.075,0-.114a.236.236,0,0,0-.471-.038c-3.29,18.9,3.637,39.747,15.32,54.851-2.03-1.789-4.047-3.586-5.988-5.431q-7.054-6.7-13.615-13.872a47.612,47.612,0,0,1-6.426-12.9c.078-8.792,3.785-18.774.726-27.186-1.418-3.9-4.941-13.289-10.38-12.791a6.8,6.8,0,0,0-.359-.835.394.394,0,0,0-.713.333c.072.158.128.32.188.481a.235.235,0,0,0,.027.323c.042.039.074.083.113.125.926,3.3-.582,7.332-.552,10.654a64.3,64.3,0,0,0,1,10.519,38.154,38.154,0,0,0,8.665,17.774,47.017,47.017,0,0,0,4.086,9.435c-1-1.146-2-2.281-2.977-3.449A138,138,0,0,1,34.92,42.758c-.419-.8-.805-1.615-1.194-2.428-1.513-6.905-1.066-14.033-2.921-20.857C28.7,11.71,21.339,6.1,15.971.623,15.748.4,15.239.39,15.156.775,11.824,16.283,22.19,29.088,32.278,39.7c.513,1.189,1.042,2.369,1.6,3.537a91.212,91.212,0,0,0,5.8,10.155c-.022-.018-.047-.034-.07-.053-.414-.383-.849-.752-1.295-1.117A.252.252,0,0,0,38.287,52C30.616,40.2,14.679,31.9,1.194,38.041l-.012-.007a.224.224,0,0,0-.358.177c-.115.055-.23.1-.345.159a.5.5,0,0,0-.24.663c3.021,5.514,9.414,8.542,14.912,11.04a32.942,32.942,0,0,0,10.9,2.958,7.486,7.486,0,0,0,3.623-.436c3.876-1.425,5.944-.655,9.035.914.707.518,1.4,1.043,2.072,1.578,2.02,2.991,4.171,5.9,6.357,8.724-2.657-2.314-5.905-4.294-8.889-4.256A3.352,3.352,0,0,0,36.435,58.1a3.468,3.468,0,0,0-3.577.637c-1.157,1.28-.391,3.427,1.028,4.188.209.111.538-.025.467-.3a9,9,0,0,0-.457-1.149.789.789,0,0,0,.079.055,4.882,4.882,0,0,0,.543.775,2.461,2.461,0,0,0,2.241,1.075c1.106-.093,1.638-1.29,1.789-2.235a2.35,2.35,0,0,0,.026-.506,26.01,26.01,0,0,1,10.172,5.234l.188.244c3.437,4.352,7.138,8.491,10.975,12.5A41.949,41.949,0,0,0,52.2,75.441c-5.51-3.065-10.531-6.861-16.971-8.211-4.7-.983-14.36-3.811-18.449.058a.414.414,0,0,0-.054.516c-2.471,5.177,6.888,8.824,10.256,10.237a45.429,45.429,0,0,0,9.144,2.822c6.9,1.285,14.009-2.408,20.951-2.406,0,0,0,0,.007,0,1.481.578,2.965,1.18,4.454,1.837,3.013,3.093,6.1,6.117,9.206,9.1q.942.906,1.889,1.821a26.661,26.661,0,0,0-5.288-1.039.192.192,0,0,0-.083-.19c-11.211-7.768-28.9-.229-34.735,10.836a.4.4,0,0,0,.1.53l.288.239h0c.17.141.342.287.513.426a.183.183,0,0,0,.266-.059c2.9,2.606,7.385.963,10.757-.149,3.992-1.32,8.089-1.975,12.1-3.22,4.681-1.455,7.412-5.406,11.9-7.045a.34.34,0,0,0,.235-.333,37.759,37.759,0,0,1,4.977,1c5.794,5.591,11.73,11.281,18.177,16a.242.242,0,0,0,.318-.356A136.634,136.634,0,0,0,80.6,96.789c-.012-.016-.026-.033-.041-.05a.2.2,0,0,0-.045-.167,30.335,30.335,0,0,1-5.367-10.818c-.829-2.813-.81-5.861-1.279-8.659.951.011,1.855-.265,2.058-1.085a2.475,2.475,0,0,0,.735-.707,2.789,2.789,0,0,0-1.077-4.269c-.065-.03-.135-.053-.2-.082.022,0,.046,0,.066-.006a.274.274,0,0,0,.1-.492c-1.407-1.014-3.346-.323-4.41.908a1.58,1.58,0,0,0-.351.48,2.778,2.778,0,0,0-.212.369.221.221,0,0,0,.052.25,1.986,1.986,0,0,0,.075.727,1.856,1.856,0,0,0,.121.251,2.269,2.269,0,0,0,.885,3.126,3.794,3.794,0,0,0,1.31.449,31.048,31.048,0,0,0,2.946,13.414,81.278,81.278,0,0,1-9.513-18.459c-.089-.248-.159-.5-.243-.746a14.148,14.148,0,0,1-.317-3.96c1.3-1.518,3.9-1.528,5.41-2.724a10.073,10.073,0,0,0,2.808-3.657c1.173-2.364,1.676-6.191.246-8.637.16-.186.32-.371.477-.565S74.734,51.207,74.524,51.319Zm-11.7-3.671A20.056,20.056,0,0,1,63.27,50a15.332,15.332,0,0,1-.17,4.314C62.948,52.107,62.874,49.882,62.82,47.648Zm.391,7.9c1.092-3.367,1.237-7.371-.447-10.568-.022-1.7-.035-3.4-.05-5.12,1.686,1.553,3.2,2.443,3.739,4.91s-.25,5.257-.872,7.608c-.209.788-.441,1.581-.676,2.375.779-4.606,1.329-9.449-1.724-12.672a.232.232,0,0,0-.385.249,18.723,18.723,0,0,1,1.579,10.2c-.255,2.252-.67,4.455-.815,6.7C63.409,58,63.31,56.77,63.211,55.544Zm-13.176,1.2c-.821-3.229-1.48-6.53-2.078-9.891-.918-5.162-1.687-10.306-2.185-15.525a22.1,22.1,0,0,0-.651-3.774C50.325,36.368,49.057,46.356,50.035,56.741Zm-1.47-1.982c-2.635-8.707-3.349-17.391-4.493-26.341a70.133,70.133,0,0,1,1.509,9.19c.7,5.364,1.739,10.707,2.744,16.021C48.4,54,48.488,54.382,48.565,54.758ZM43.44,23.849c-.056-.363-.106-.726-.164-1.09,6.235,2.13,9.1,14.871,9.062,19.864-.034,4.531-1.4,9.068-1.773,13.591C49.642,44.6,51.524,33.05,43.44,23.849ZM41.639,37.2a34.746,34.746,0,0,1,.428-10.321,10.846,10.846,0,0,0,.272-3.012c.183.349.335.7.492,1.056.381,11.63,2.059,23.938,6.844,34.529.006.013.023.014.03.025.067.238.12.479.19.715A44.971,44.971,0,0,1,41.639,37.2ZM16.457,3.262c1.91.113,5.888,5.056,6.68,5.88A26.707,26.707,0,0,1,30.7,23.25c.86,4.455.6,8.957,1.331,13.347-.037-.083-.068-.168-.105-.252A59.962,59.962,0,0,0,16.52,3.365C16.5,3.33,16.478,3.3,16.457,3.262Zm13.6,28.559c-1.819-4.534-3.561-9.108-5.669-13.517A79.61,79.61,0,0,0,18.835,7.19a77.973,77.973,0,0,1,7.611,12.2C28.324,23.327,29.129,27.593,30.054,31.821ZM15.873,3.445c2.567,5.591,5.773,10.982,8.595,16.457,1.64,3.85,3.09,7.781,4.579,11.694-1.689-2.856-3.454-5.676-5.089-8.524-3.56-6.2-5.9-12.819-8.123-19.581A.575.575,0,0,1,15.873,3.445ZM15.44,4.631a3.137,3.137,0,0,1,.077-.5,125.968,125.968,0,0,0,14.64,32.056C22.73,26.7,14.523,17.689,15.44,4.631Zm3.8,38.981a55.231,55.231,0,0,1,9.829,3.949c-8.613-2.706-17.815-3.782-25.842-8.284C7.961,39.252,14.871,42.362,19.242,43.612ZM4.917,38.54c4.679.266,8.928.487,13.72,1.892a37.119,37.119,0,0,1,13.047,7.5A85.583,85.583,0,0,0,19.53,42.789c-3.513-1.217-7.166-1.763-10.671-3.06A19.859,19.859,0,0,0,4.917,38.54ZM34.2,50.684c-1.934-.469-6.533,1.446-8.078,1.432-7.132-.065-15.022-4.6-20.6-8.639.117.085-3.782-2.71-3.6-4.244,4.317,3.289,9.592,4.611,14.762,6.165,5.674,1.708,11.4,3.191,17.1,4.813.35.216.7.427,1.046.645C34.62,50.8,34.416,50.736,34.2,50.684Zm.66-.955A42.294,42.294,0,0,0,22.4,41.164c-6.367-3.086-12.049-2.979-18.676-3.133a25.408,25.408,0,0,1,4.89-1.113c4.042-.6,8.185.493,11.913,1.928,6.09,2.341,10.612,6.8,15.128,11.261C35.389,49.983,35.125,49.854,34.861,49.729Zm-.845,10.987c-.1-.057-.19-.117-.251-.159a.236.236,0,0,0-.146-.032,1.115,1.115,0,0,1,.112-.674,1.072,1.072,0,0,1,.623-.445.285.285,0,0,0,.174.242,4.216,4.216,0,0,1,.662.371.637.637,0,0,0-.08.121,3.531,3.531,0,0,1-.172.614c-.117.217-.363.2-.606.112a.013.013,0,0,0,0-.006A.313.313,0,0,0,34.016,60.716Zm2.264.881c-.016.263-.024.417-.2.452a1.149,1.149,0,0,1-.81-.239c.038-.011.071,0,.11-.016a1.219,1.219,0,0,0,.752-1c.067.068.137.132.2.2C36.3,61.191,36.294,61.39,36.279,61.6Zm.855,6.92c3.852.921,7.178,2.927,10.488,4.978-8.882-3.63-19.588-5.058-28.97-6.244C23.982,65.191,32.072,67.3,37.135,68.518ZM17.96,67.542c5.282,1.073,10.6,1.953,15.868,3.1,3.324.722,6.578,1.719,9.846,2.647-.411-.09-.825-.182-1.234-.269-8.216-1.734-16.364-3.594-24.537-5.454C17.92,67.556,17.942,67.551,17.96,67.542Zm-.666.387c6.452,3,14.1,3.884,21.033,5.194a106.145,106.145,0,0,1,13.466,3.456c-3.252-.188-6.553.088-9.818.036-8.492-.136-17.575-4.065-24.549-8.609a.216.216,0,0,0-.134-.027C17.3,67.962,17.292,67.947,17.294,67.929ZM33.162,79.188c-4.513-1.243-16.308-4.556-15.9-10.683A46.208,46.208,0,0,0,36.113,76.55c6,1.221,12.031.489,18.038,1.115C47.066,77.975,40.422,81.187,33.162,79.188ZM62.816,93.682c-3.471,3.1-7.69,4.31-12.134,5.251-4.791,1.016-11.716,5.027-16.378,2.6,4.406.141,8.38-1.364,12.459-3.058,5.41-2.244,11.086-3.5,16.61-5.281C63.192,93.349,63.014,93.5,62.816,93.682Zm2.314-1.818c-4.568,1.1-9.1,2.442-13.56,3.909-5.735,1.88-10.946,5.034-17.069,5.192a229.57,229.57,0,0,1,30.929-9.284C65.331,91.736,65.233,91.8,65.131,91.864Zm-30.763,8.6c6.99-7.537,20.57-10.4,31.782-9.508C55.4,91.719,43.957,95.567,34.368,100.467Zm17.857-9.105c-6.212,1.191-14.688,2.994-18.573,8.511,1.478-3.807,11.009-8.806,12.993-9.648,6.527-2.763,12.687-1.765,19.18-.151A57.525,57.525,0,0,0,52.225,91.362ZM72.248,72.435c.015-.012.014-.014.016-.017a.4.4,0,0,0,.089-.04c.034-.016.206-.077.238-.091a3.434,3.434,0,0,1,2.005.028c.883.272,1.357.752,1.043,1.682a2.233,2.233,0,0,1-.1.215,5.647,5.647,0,0,0-1.336-.529,4.792,4.792,0,0,1-1.945-1.175c-.019-.02-.044-.015-.064-.029C72.213,72.466,72.229,72.449,72.248,72.435Zm-.9,1.761a2.569,2.569,0,0,0,.925.64,3.133,3.133,0,0,0,.769.913c0,.034,0,.069,0,.1a4.33,4.33,0,0,1-.506-.1A1.582,1.582,0,0,1,71.344,74.2Zm-4.89-10.149a13.777,13.777,0,0,0,3.988-7.342.142.142,0,0,0-.022-.1c.755-.886,1.552-1.729,2.349-2.581-1.493,4.5-2.862,8.733-6.713,11.865A16.932,16.932,0,0,1,66.454,64.047Zm3.613.2c-.93.537-1.905.865-2.766,1.282,3.328-2.838,6.437-7.49,5.981-11.855a.161.161,0,0,0-.081-.126c.128-.136.252-.271.377-.409C74.314,57.256,74.262,61.82,70.067,64.247Z" transform="translate(1294.871 648.601)" fill="#bcd1b8" fill-rule="evenodd" opacity="0.55"/>
  </g>
</svg>
