<svg xmlns="http://www.w3.org/2000/svg" xmlns:xlink="http://www.w3.org/1999/xlink" width="359" height="237.995" viewBox="0 0 359 237.995">
  <defs>
    <clipPath id="clip-path">
      <rect id="BG" width="139.018" height="137.001" transform="translate(1280.982 641.555)" fill="#c6e697" opacity="0.949"/>
    </clipPath>
    <clipPath id="clip-path-2">
      <rect id="Rectángulo_400902" data-name="Rectángulo 400902" width="80.845" height="71.673" fill="#997b4d"/>
    </clipPath>
    <clipPath id="clip-path-3">
      <rect id="Rectángulo_404270" data-name="Rectángulo 404270" width="231.388" height="216.019" fill="none"/>
    </clipPath>
    <clipPath id="clip-path-5">
      <rect id="Rectángulo_404268" data-name="Rectángulo 404268" width="208.18" height="75.751" fill="none"/>
    </clipPath>
    <clipPath id="clip-path-7">
      <rect id="Rectángulo_404257" data-name="Rectángulo 404257" width="201.098" height="73.174" fill="none"/>
    </clipPath>
    <clipPath id="clip-path-8">
      <rect id="Rectángulo_404258" data-name="Rectángulo 404258" width="194.016" height="70.598" fill="none"/>
    </clipPath>
    <clipPath id="clip-path-9">
      <rect id="Rectángulo_404259" data-name="Rectángulo 404259" width="186.935" height="68.021" fill="none"/>
    </clipPath>
    <clipPath id="clip-path-10">
      <rect id="Rectángulo_404260" data-name="Rectángulo 404260" width="179.853" height="65.444" fill="none"/>
    </clipPath>
    <clipPath id="clip-path-11">
      <rect id="Rectángulo_404261" data-name="Rectángulo 404261" width="172.77" height="62.867" fill="none"/>
    </clipPath>
    <clipPath id="clip-path-12">
      <rect id="Rectángulo_404262" data-name="Rectángulo 404262" width="165.688" height="60.29" fill="none"/>
    </clipPath>
    <clipPath id="clip-path-13">
      <rect id="Rectángulo_404263" data-name="Rectángulo 404263" width="158.606" height="57.713" fill="none"/>
    </clipPath>
    <clipPath id="clip-path-14">
      <rect id="Rectángulo_404264" data-name="Rectángulo 404264" width="151.525" height="55.136" fill="none"/>
    </clipPath>
    <clipPath id="clip-path-15">
      <rect id="Rectángulo_404265" data-name="Rectángulo 404265" width="144.443" height="52.559" fill="none"/>
    </clipPath>
    <clipPath id="clip-path-16">
      <rect id="Rectángulo_404266" data-name="Rectángulo 404266" width="137.36" height="49.982" fill="none"/>
    </clipPath>
    <clipPath id="clip-path-17">
      <rect id="Rectángulo_404267" data-name="Rectángulo 404267" width="130.278" height="47.405" fill="none"/>
    </clipPath>
  </defs>
  <g id="Grupo_1113185" data-name="Grupo 1113185" transform="translate(9925 9869.362)">
    <g id="Enmascarar_grupo_1098845" data-name="Enmascarar grupo 1098845" transform="translate(-10986 -10409.923)" clip-path="url(#clip-path)">
      <path id="Trazado_923575" data-name="Trazado 923575" d="M98.607,67.794c-.258.139-.506.3-.759.452-.081-.1-.155-.209-.243-.3a.37.37,0,0,0-.642.3c.035.163.068.326.1.491-6.234,4.2-10.661,12.627-10.827,20.383-.026.049-.052.1-.075.157q-.975-3.8-1.584-7.607c0-.007,0-.015,0-.022a.211.211,0,0,0,.059-.128c0-.275.025-.565.042-.847.553-5.709,3.712-11.527,4.5-17.11.643-4.522-.906-10.655-6.137-11.536-.027,0-.051.011-.077.014,0-.05,0-.1,0-.15a.313.313,0,0,0-.624-.051c-4.356,25.027,4.815,52.625,20.284,72.622-2.687-2.368-5.358-4.747-7.929-7.191Q85.359,108.4,76.672,98.9a63.038,63.038,0,0,1-8.508-17.079c.1-11.64,5.011-24.857.961-35.994C67.247,40.667,62.583,28.236,55.382,28.9a9,9,0,0,0-.475-1.106.521.521,0,0,0-.944.442c.095.209.17.423.248.636a.312.312,0,0,0,.036.427c.055.052.1.11.15.166,1.225,4.371-.77,9.708-.731,14.105a85.132,85.132,0,0,0,1.324,13.927c1.551,8.9,5.8,16.674,11.472,23.533a62.249,62.249,0,0,0,5.41,12.491C70.552,92,69.224,90.5,67.934,88.949a182.7,182.7,0,0,1-21.761-32.49c-.554-1.061-1.066-2.138-1.58-3.214-2-9.142-1.412-18.579-3.867-27.615C37.932,15.353,28.192,7.919,21.084.673c-.3-.3-.969-.308-1.079.2-4.411,20.532,9.313,37.485,22.67,51.542.68,1.575,1.38,3.137,2.123,4.683a120.762,120.762,0,0,0,7.676,13.445c-.029-.024-.062-.045-.092-.071-.547-.507-1.125-1-1.715-1.479a.333.333,0,0,0-.037-.3C40.474,53.075,19.374,42.085,1.52,50.214L1.5,50.2a.3.3,0,0,0-.474.234c-.152.073-.3.134-.457.21a.665.665,0,0,0-.318.878c4,7.3,12.464,11.31,19.743,14.617A43.615,43.615,0,0,0,34.43,70.059a9.912,9.912,0,0,0,4.8-.577c5.132-1.887,7.87-.868,11.962,1.209.936.686,1.858,1.381,2.744,2.089,2.674,3.959,5.523,7.805,8.417,11.55-3.518-3.064-7.818-5.686-11.769-5.634a4.437,4.437,0,0,0-2.4-1.921c-1.509-.52-3.6-.412-4.735.843-1.532,1.694-.518,4.538,1.361,5.544.276.147.712-.033.618-.4a11.918,11.918,0,0,0-.6-1.521,1.045,1.045,0,0,0,.105.073,6.463,6.463,0,0,0,.719,1.026,3.259,3.259,0,0,0,2.967,1.424c1.465-.123,2.169-1.708,2.369-2.96a3.111,3.111,0,0,0,.035-.669,34.437,34.437,0,0,1,13.468,6.93c.084.107.168.217.25.324,4.55,5.762,9.45,11.241,14.531,16.549a55.54,55.54,0,0,0-10.213-4.2c-7.3-4.059-13.942-9.084-22.469-10.871-6.217-1.3-19.012-5.045-24.427.077a.548.548,0,0,0-.071.683C18.81,96.475,31.2,101.3,35.66,103.174a60.147,60.147,0,0,0,12.107,3.736c9.14,1.7,18.547-3.188,27.739-3.185,0,0,.005,0,.009,0,1.96.765,3.926,1.562,5.9,2.432,3.989,4.1,8.074,8.1,12.188,12.048q1.247,1.2,2.5,2.41a35.3,35.3,0,0,0-7-1.376.255.255,0,0,0-.11-.251C74.147,108.7,50.722,118.684,43,133.335a.527.527,0,0,0,.134.7c.126.106.255.21.381.316h0c.226.187.453.38.68.564a.243.243,0,0,0,.352-.078c3.843,3.45,9.778,1.274,14.242-.2,5.286-1.748,10.709-2.615,16.017-4.263,6.2-1.926,9.813-7.157,15.753-9.328a.45.45,0,0,0,.311-.44,49.992,49.992,0,0,1,6.589,1.317c7.671,7.4,15.53,14.936,24.066,21.186a.32.32,0,0,0,.421-.472A180.9,180.9,0,0,0,106.652,128c-.016-.022-.035-.044-.054-.067a.258.258,0,0,0-.059-.221,40.163,40.163,0,0,1-7.106-14.322c-1.1-3.725-1.073-7.76-1.694-11.464,1.259.014,2.456-.351,2.725-1.437a3.277,3.277,0,0,0,.973-.936A3.693,3.693,0,0,0,100.01,93.9c-.085-.04-.179-.07-.268-.109.029,0,.06,0,.087-.007a.362.362,0,0,0,.139-.652c-1.862-1.343-4.429-.427-5.839,1.2a2.092,2.092,0,0,0-.464.635,3.677,3.677,0,0,0-.281.488.293.293,0,0,0,.069.331,2.629,2.629,0,0,0,.1.963,2.458,2.458,0,0,0,.16.332,3,3,0,0,0,1.171,4.139,5.023,5.023,0,0,0,1.735.595,41.107,41.107,0,0,0,3.9,17.759,107.609,107.609,0,0,1-12.6-24.439c-.117-.328-.21-.656-.322-.987a18.731,18.731,0,0,1-.419-5.243c1.721-2.01,5.165-2.023,7.163-3.606a13.337,13.337,0,0,0,3.718-4.841c1.553-3.13,2.219-8.2.325-11.435.212-.246.423-.492.631-.748S98.885,67.646,98.607,67.794Zm-15.5-4.86a26.554,26.554,0,0,1,.6,3.117,20.3,20.3,0,0,1-.226,5.712C83.281,68.837,83.183,65.892,83.112,62.934Zm.517,10.454c1.446-4.458,1.638-9.759-.592-13.991-.029-2.247-.047-4.505-.066-6.779,2.232,2.056,4.23,3.235,4.95,6.5.721,3.249-.331,6.96-1.154,10.073-.277,1.044-.584,2.093-.895,3.145,1.031-6.1,1.76-12.51-2.282-16.778a.307.307,0,0,0-.509.329,24.789,24.789,0,0,1,2.091,13.5c-.338,2.982-.887,5.9-1.08,8.867C83.891,76.635,83.76,75.012,83.629,73.388ZM66.185,74.973c-1.086-4.275-1.96-8.645-2.752-13.1-1.215-6.834-2.234-13.646-2.892-20.555a29.265,29.265,0,0,0-.863-5C66.568,48,64.89,61.223,66.185,74.973Zm-1.947-2.625C60.749,60.82,59.8,49.323,58.289,37.473a92.854,92.854,0,0,1,2,12.167c.922,7.1,2.3,14.176,3.632,21.211C64.014,71.348,64.136,71.849,64.238,72.348ZM57.453,31.425c-.074-.481-.14-.961-.217-1.442,8.256,2.82,12.05,19.688,12,26.3-.046,6-1.852,12.006-2.348,17.995C65.664,58.9,68.156,43.606,57.453,31.425ZM55.068,49.1a46,46,0,0,1,.567-13.665A14.359,14.359,0,0,0,56,31.449c.242.462.443.932.652,1.4.5,15.4,2.727,31.694,9.061,45.715.009.018.031.019.04.033.089.315.159.634.252.947C59.447,70.394,56.079,60.478,55.068,49.1ZM21.728,4.168c2.529.15,7.8,6.694,8.845,7.785,5.167,5.367,8.593,11.134,10.011,18.678,1.139,5.9.793,11.858,1.762,17.671-.049-.109-.089-.223-.139-.334A79.388,79.388,0,0,0,21.812,4.3C21.784,4.257,21.756,4.212,21.728,4.168Zm18,37.811c-2.408-6-4.715-12.059-7.506-17.9A105.4,105.4,0,0,0,24.877,9.368,103.235,103.235,0,0,1,34.954,25.525C37.44,30.733,38.5,36.382,39.73,41.979ZM20.954,4.41c3.4,7.4,7.643,14.54,11.379,21.789,2.172,5.1,4.092,10.3,6.062,15.483C36.159,37.9,33.823,34.166,31.658,30.4,26.944,22.184,23.845,13.423,20.9,4.47A.762.762,0,0,1,20.954,4.41ZM20.382,5.98a4.153,4.153,0,0,1,.1-.664A166.779,166.779,0,0,0,39.867,47.757C30.033,35.2,19.167,23.269,20.382,5.98ZM25.415,57.59a73.124,73.124,0,0,1,13.014,5.228c-11.4-3.582-23.587-5.007-34.214-10.968C10.48,51.818,19.627,55.935,25.415,57.59ZM6.45,50.875c6.194.352,11.82.645,18.165,2.505,6.478,1.9,12.117,5.654,17.274,9.933A113.31,113.31,0,0,0,25.8,56.5c-4.651-1.611-9.488-2.334-14.129-4.052A26.293,26.293,0,0,0,6.45,50.875ZM45.22,66.954c-2.561-.621-8.65,1.915-10.7,1.9-9.442-.086-19.888-6.089-27.272-11.438.155.112-5.007-3.588-4.77-5.619,5.716,4.354,12.7,6.1,19.545,8.162,7.512,2.261,15.094,4.225,22.635,6.372.463.285.928.565,1.385.854C45.775,67.1,45.505,67.022,45.22,66.954Zm.874-1.265c-4.605-4.869-10.487-8.422-16.5-11.339-8.43-4.085-15.952-3.944-24.727-4.149a33.64,33.64,0,0,1,6.474-1.474c5.352-.79,10.837.653,15.773,2.553,8.064,3.1,14.05,9,20.029,14.91C46.793,66.025,46.443,65.855,46.094,65.689ZM44.975,80.236c-.135-.076-.252-.155-.333-.211a.312.312,0,0,0-.194-.042,1.476,1.476,0,0,1,.148-.892,1.42,1.42,0,0,1,.824-.59.377.377,0,0,0,.23.321,5.582,5.582,0,0,1,.876.491.843.843,0,0,0-.106.16,4.675,4.675,0,0,1-.228.813c-.156.287-.48.268-.8.148a.017.017,0,0,0-.006-.009A.414.414,0,0,0,44.975,80.236Zm3,1.167c-.021.348-.032.553-.263.6a1.522,1.522,0,0,1-1.072-.317c.05-.015.094,0,.146-.021a1.614,1.614,0,0,0,1-1.32c.088.09.182.174.268.267C48.006,80.864,47.992,81.128,47.972,81.4ZM49.1,90.565c5.1,1.22,9.5,3.875,13.885,6.59-11.759-4.806-25.934-6.7-38.356-8.267C31.691,86.161,42.4,88.958,49.1,90.565ZM23.718,89.273c6.993,1.421,14.029,2.586,21.008,4.1,4.4.956,8.71,2.276,13.036,3.5-.545-.119-1.092-.241-1.634-.357-10.878-2.3-21.665-4.759-32.487-7.22C23.665,89.292,23.694,89.285,23.718,89.273Zm-.882.512c8.542,3.973,18.668,5.143,27.847,6.877a140.535,140.535,0,0,1,17.829,4.576c-4.305-.249-8.676.116-13,.047-11.243-.18-23.269-5.382-32.5-11.4a.286.286,0,0,0-.178-.035C22.837,89.829,22.833,89.809,22.836,89.785Zm21.008,14.907c-5.976-1.646-21.592-6.031-21.057-14.143,7.24,5.531,16.077,8.836,24.965,10.65,7.938,1.617,15.929.647,23.882,1.476C62.254,103.086,53.457,107.339,43.845,104.692Zm39.262,19.189c-4.6,4.105-10.181,5.706-16.065,6.953-6.343,1.345-15.512,6.656-21.684,3.443,5.833.187,11.1-1.806,16.5-4.048,7.163-2.971,14.678-4.628,21.991-6.992C83.6,123.44,83.368,123.647,83.107,123.882Zm3.064-2.407c-6.048,1.456-12.047,3.234-17.953,5.175-7.593,2.489-14.492,6.665-22.6,6.875a303.944,303.944,0,0,1,40.95-12.292C86.435,121.305,86.306,121.393,86.171,121.475Zm-40.729,11.39C54.7,122.885,72.675,119.1,87.52,120.276,73.288,121.283,58.137,126.377,45.441,132.865ZM69.084,120.81c-8.224,1.576-19.447,3.964-24.59,11.268,1.957-5.04,14.575-11.659,17.2-12.773,8.641-3.658,16.8-2.337,25.395-.2A76.162,76.162,0,0,0,69.084,120.81ZM95.593,95.751c.02-.016.019-.018.022-.023a.525.525,0,0,0,.117-.053c.045-.021.273-.1.316-.121a4.547,4.547,0,0,1,2.655.038c1.168.36,1.8,1,1.381,2.226a2.957,2.957,0,0,1-.132.284,7.477,7.477,0,0,0-1.769-.7,6.344,6.344,0,0,1-2.575-1.555c-.025-.026-.058-.02-.085-.038C95.547,95.792,95.569,95.769,95.593,95.751Zm-1.2,2.332a3.4,3.4,0,0,0,1.225.847,4.148,4.148,0,0,0,1.018,1.209c0,.046,0,.092,0,.136a5.732,5.732,0,0,1-.671-.137A2.094,2.094,0,0,1,94.4,98.082ZM87.922,84.645a18.24,18.24,0,0,0,5.28-9.72.188.188,0,0,0-.029-.137c1-1.173,2.054-2.289,3.109-3.417C94.306,77.324,92.494,82.933,87.4,87.08A22.418,22.418,0,0,1,87.922,84.645Zm4.784.265c-1.232.711-2.522,1.146-3.662,1.7,4.406-3.758,8.523-9.916,7.919-15.7a.213.213,0,0,0-.107-.167c.169-.18.334-.359.5-.542C98.329,75.654,98.26,81.7,92.706,84.911Z" transform="translate(1299.432 651.034)" fill="#bcd1b8" fill-rule="evenodd" opacity="0.55"/>
    </g>
    <g id="Grupo_1113184" data-name="Grupo 1113184" transform="translate(-10986 -10409.923)">
      <circle id="Elipse_11685" data-name="Elipse 11685" cx="47.829" cy="47.829" r="47.829" transform="translate(1061 552.913)" fill="#c6e697"/>
      <circle id="Elipse_11686" data-name="Elipse 11686" cx="34.329" cy="34.329" r="34.329" transform="translate(1246.343 683.586)" fill="#fed57b"/>
      <g id="Grupo_1112332" data-name="Grupo 1112332" transform="translate(1254.154 552.913)">
        <g id="Grupo_1098724" data-name="Grupo 1098724" transform="translate(0 0)">
          <g id="Grupo_1098723" data-name="Grupo 1098723" clip-path="url(#clip-path-2)">
            <path id="Trazado_872910" data-name="Trazado 872910" d="M3.228,1.614A1.614,1.614,0,1,1,1.614,0,1.614,1.614,0,0,1,3.228,1.614" fill="#997b4d"/>
            <path id="Trazado_872911" data-name="Trazado 872911" d="M32.182,1.614A1.614,1.614,0,1,1,30.568,0a1.614,1.614,0,0,1,1.614,1.614" transform="translate(-13.43)" fill="#997b4d"/>
            <path id="Trazado_872912" data-name="Trazado 872912" d="M61.135,1.614A1.614,1.614,0,1,1,59.521,0a1.614,1.614,0,0,1,1.614,1.614" transform="translate(-26.86)" fill="#997b4d"/>
            <path id="Trazado_872913" data-name="Trazado 872913" d="M90.088,1.614A1.614,1.614,0,1,1,88.474,0a1.614,1.614,0,0,1,1.614,1.614" transform="translate(-40.29)" fill="#997b4d"/>
            <path id="Trazado_872914" data-name="Trazado 872914" d="M119.041,1.614A1.614,1.614,0,1,1,117.427,0a1.614,1.614,0,0,1,1.614,1.614" transform="translate(-53.719)" fill="#997b4d"/>
            <path id="Trazado_872915" data-name="Trazado 872915" d="M147.995,1.614A1.614,1.614,0,1,1,146.381,0a1.614,1.614,0,0,1,1.614,1.614" transform="translate(-67.149)" fill="#997b4d"/>
            <path id="Trazado_872916" data-name="Trazado 872916" d="M3.228,33.529a1.614,1.614,0,1,1-1.614-1.614,1.614,1.614,0,0,1,1.614,1.614" transform="translate(0 -14.804)" fill="#997b4d"/>
            <path id="Trazado_872917" data-name="Trazado 872917" d="M32.182,33.529a1.614,1.614,0,1,1-1.614-1.614,1.614,1.614,0,0,1,1.614,1.614" transform="translate(-13.43 -14.804)" fill="#997b4d"/>
            <path id="Trazado_872918" data-name="Trazado 872918" d="M61.135,33.529a1.614,1.614,0,1,1-1.614-1.614,1.614,1.614,0,0,1,1.614,1.614" transform="translate(-26.86 -14.804)" fill="#997b4d"/>
            <path id="Trazado_872919" data-name="Trazado 872919" d="M90.088,33.529a1.614,1.614,0,1,1-1.614-1.614,1.614,1.614,0,0,1,1.614,1.614" transform="translate(-40.29 -14.804)" fill="#997b4d"/>
            <path id="Trazado_872920" data-name="Trazado 872920" d="M119.041,33.529a1.614,1.614,0,1,1-1.614-1.614,1.614,1.614,0,0,1,1.614,1.614" transform="translate(-53.719 -14.804)" fill="#997b4d"/>
            <path id="Trazado_872921" data-name="Trazado 872921" d="M147.995,33.529a1.614,1.614,0,1,1-1.614-1.614,1.614,1.614,0,0,1,1.614,1.614" transform="translate(-67.149 -14.804)" fill="#997b4d"/>
            <path id="Trazado_872922" data-name="Trazado 872922" d="M3.228,65.444A1.614,1.614,0,1,1,1.614,63.83a1.614,1.614,0,0,1,1.614,1.614" transform="translate(0 -29.607)" fill="#997b4d"/>
            <path id="Trazado_872923" data-name="Trazado 872923" d="M32.182,65.444a1.614,1.614,0,1,1-1.614-1.614,1.614,1.614,0,0,1,1.614,1.614" transform="translate(-13.43 -29.607)" fill="#997b4d"/>
            <path id="Trazado_872924" data-name="Trazado 872924" d="M61.135,65.444a1.614,1.614,0,1,1-1.614-1.614,1.614,1.614,0,0,1,1.614,1.614" transform="translate(-26.86 -29.607)" fill="#997b4d"/>
            <path id="Trazado_872925" data-name="Trazado 872925" d="M90.088,65.444a1.614,1.614,0,1,1-1.614-1.614,1.614,1.614,0,0,1,1.614,1.614" transform="translate(-40.29 -29.607)" fill="#997b4d"/>
            <path id="Trazado_872926" data-name="Trazado 872926" d="M119.041,65.444a1.614,1.614,0,1,1-1.614-1.614,1.614,1.614,0,0,1,1.614,1.614" transform="translate(-53.719 -29.607)" fill="#997b4d"/>
            <path id="Trazado_872927" data-name="Trazado 872927" d="M147.995,65.444a1.614,1.614,0,1,1-1.614-1.614,1.614,1.614,0,0,1,1.614,1.614" transform="translate(-67.149 -29.607)" fill="#997b4d"/>
            <path id="Trazado_872928" data-name="Trazado 872928" d="M3.228,97.359a1.614,1.614,0,1,1-1.614-1.614,1.614,1.614,0,0,1,1.614,1.614" transform="translate(0 -44.411)" fill="#997b4d"/>
            <path id="Trazado_872929" data-name="Trazado 872929" d="M32.182,97.359a1.614,1.614,0,1,1-1.614-1.614,1.614,1.614,0,0,1,1.614,1.614" transform="translate(-13.43 -44.411)" fill="#997b4d"/>
            <path id="Trazado_872930" data-name="Trazado 872930" d="M61.135,97.359a1.614,1.614,0,1,1-1.614-1.614,1.614,1.614,0,0,1,1.614,1.614" transform="translate(-26.86 -44.411)" fill="#997b4d"/>
            <path id="Trazado_872931" data-name="Trazado 872931" d="M90.088,97.359a1.614,1.614,0,1,1-1.614-1.614,1.614,1.614,0,0,1,1.614,1.614" transform="translate(-40.29 -44.411)" fill="#997b4d"/>
            <path id="Trazado_872932" data-name="Trazado 872932" d="M119.041,97.359a1.614,1.614,0,1,1-1.614-1.614,1.614,1.614,0,0,1,1.614,1.614" transform="translate(-53.719 -44.411)" fill="#997b4d"/>
            <path id="Trazado_872933" data-name="Trazado 872933" d="M147.995,97.359a1.614,1.614,0,1,1-1.614-1.614,1.614,1.614,0,0,1,1.614,1.614" transform="translate(-67.149 -44.411)" fill="#997b4d"/>
            <path id="Trazado_872934" data-name="Trazado 872934" d="M3.228,129.274a1.614,1.614,0,1,1-1.614-1.614,1.614,1.614,0,0,1,1.614,1.614" transform="translate(0 -59.214)" fill="#997b4d"/>
            <path id="Trazado_872935" data-name="Trazado 872935" d="M32.182,129.274a1.614,1.614,0,1,1-1.614-1.614,1.614,1.614,0,0,1,1.614,1.614" transform="translate(-13.43 -59.214)" fill="#997b4d"/>
            <path id="Trazado_872936" data-name="Trazado 872936" d="M61.135,129.274a1.614,1.614,0,1,1-1.614-1.614,1.614,1.614,0,0,1,1.614,1.614" transform="translate(-26.86 -59.214)" fill="#997b4d"/>
            <path id="Trazado_872937" data-name="Trazado 872937" d="M90.088,129.274a1.614,1.614,0,1,1-1.614-1.614,1.614,1.614,0,0,1,1.614,1.614" transform="translate(-40.29 -59.214)" fill="#997b4d"/>
            <path id="Trazado_872938" data-name="Trazado 872938" d="M119.041,129.274a1.614,1.614,0,1,1-1.614-1.614,1.614,1.614,0,0,1,1.614,1.614" transform="translate(-53.719 -59.214)" fill="#997b4d"/>
            <path id="Trazado_872939" data-name="Trazado 872939" d="M147.995,129.274a1.614,1.614,0,1,1-1.614-1.614,1.614,1.614,0,0,1,1.614,1.614" transform="translate(-67.149 -59.214)" fill="#997b4d"/>
          </g>
        </g>
      </g>
      <g id="Grupo_1112775" data-name="Grupo 1112775" transform="translate(1063.189 540.561)">
        <g id="Grupo_1112774" data-name="Grupo 1112774" clip-path="url(#clip-path-3)">
          <g id="Grupo_1112773" data-name="Grupo 1112773">
            <g id="Grupo_1112772" data-name="Grupo 1112772" clip-path="url(#clip-path-3)">
              <g id="Grupo_1112771" data-name="Grupo 1112771" transform="translate(16.936 140.268)">
                <g id="Grupo_1112770" data-name="Grupo 1112770">
                  <g id="Grupo_1112769" data-name="Grupo 1112769" clip-path="url(#clip-path-5)">
                    <g id="Grupo_1112735" data-name="Grupo 1112735" opacity="0">
                      <g id="Grupo_1112734" data-name="Grupo 1112734">
                        <g id="Grupo_1112733" data-name="Grupo 1112733" clip-path="url(#clip-path-5)">
                          <path id="Trazado_911920" data-name="Trazado 911920" d="M226.146,186.668c0,20.918-46.6,37.876-104.09,37.876S17.965,207.586,17.965,186.668s46.6-37.876,104.091-37.876,104.09,16.957,104.09,37.876" transform="translate(-17.965 -148.793)" fill="#e8e8e8"/>
                        </g>
                      </g>
                    </g>
                    <g id="Grupo_1112738" data-name="Grupo 1112738" transform="translate(3.541 1.288)" opacity="0.091">
                      <g id="Grupo_1112737" data-name="Grupo 1112737">
                        <g id="Grupo_1112736" data-name="Grupo 1112736" clip-path="url(#clip-path-7)">
                          <path id="Trazado_911921" data-name="Trazado 911921" d="M222.82,186.746c0,20.207-45.017,36.587-100.549,36.587s-100.55-16.38-100.55-36.587,45.018-36.587,100.55-36.587,100.549,16.38,100.549,36.587" transform="translate(-21.722 -150.159)" fill="#e8e8e8"/>
                        </g>
                      </g>
                    </g>
                    <g id="Grupo_1112741" data-name="Grupo 1112741" transform="translate(7.082 2.577)" opacity="0.182">
                      <g id="Grupo_1112740" data-name="Grupo 1112740">
                        <g id="Grupo_1112739" data-name="Grupo 1112739" clip-path="url(#clip-path-8)">
                          <path id="Trazado_911922" data-name="Trazado 911922" d="M219.494,186.825c0,19.5-43.432,35.3-97.008,35.3s-97.008-15.8-97.008-35.3,43.432-35.3,97.008-35.3,97.008,15.8,97.008,35.3" transform="translate(-25.478 -151.526)" fill="#e8e8e8"/>
                        </g>
                      </g>
                    </g>
                    <g id="Grupo_1112744" data-name="Grupo 1112744" transform="translate(10.623 3.865)" opacity="0.273">
                      <g id="Grupo_1112743" data-name="Grupo 1112743">
                        <g id="Grupo_1112742" data-name="Grupo 1112742" clip-path="url(#clip-path-9)">
                          <path id="Trazado_911923" data-name="Trazado 911923" d="M216.169,186.9c0,18.783-41.847,34.01-93.467,34.01S29.234,205.686,29.234,186.9s41.847-34.01,93.467-34.01,93.467,15.227,93.467,34.01" transform="translate(-29.234 -152.893)" fill="#e8e8e8"/>
                        </g>
                      </g>
                    </g>
                    <g id="Grupo_1112747" data-name="Grupo 1112747" transform="translate(14.164 5.154)" opacity="0.364">
                      <g id="Grupo_1112746" data-name="Grupo 1112746">
                        <g id="Grupo_1112745" data-name="Grupo 1112745" clip-path="url(#clip-path-10)">
                          <path id="Trazado_911924" data-name="Trazado 911924" d="M212.843,186.981c0,18.072-40.261,32.721-89.927,32.721s-89.926-14.65-89.926-32.721,40.261-32.722,89.926-32.722,89.927,14.651,89.927,32.722" transform="translate(-32.99 -154.26)" fill="#e8e8e8"/>
                        </g>
                      </g>
                    </g>
                    <g id="Grupo_1112750" data-name="Grupo 1112750" transform="translate(17.705 6.442)" opacity="0.455">
                      <g id="Grupo_1112749" data-name="Grupo 1112749">
                        <g id="Grupo_1112748" data-name="Grupo 1112748" clip-path="url(#clip-path-11)">
                          <path id="Trazado_911925" data-name="Trazado 911925" d="M209.517,187.06c0,17.36-38.675,31.434-86.385,31.434S36.746,204.419,36.746,187.06s38.676-31.434,86.386-31.434,86.385,14.074,86.385,31.434" transform="translate(-36.747 -155.627)" fill="#e8e8e8"/>
                        </g>
                      </g>
                    </g>
                    <g id="Grupo_1112753" data-name="Grupo 1112753" transform="translate(21.246 7.731)" opacity="0.545">
                      <g id="Grupo_1112752" data-name="Grupo 1112752">
                        <g id="Grupo_1112751" data-name="Grupo 1112751" clip-path="url(#clip-path-12)">
                          <path id="Trazado_911926" data-name="Trazado 911926" d="M206.191,187.138c0,16.648-37.091,30.145-82.844,30.145S40.5,203.786,40.5,187.138s37.09-30.145,82.844-30.145,82.844,13.5,82.844,30.145" transform="translate(-40.503 -156.993)" fill="#e8e8e8"/>
                        </g>
                      </g>
                    </g>
                    <g id="Grupo_1112756" data-name="Grupo 1112756" transform="translate(24.787 9.019)" opacity="0.636">
                      <g id="Grupo_1112755" data-name="Grupo 1112755">
                        <g id="Grupo_1112754" data-name="Grupo 1112754" clip-path="url(#clip-path-13)">
                          <path id="Trazado_911927" data-name="Trazado 911927" d="M202.865,187.216c0,15.936-35.505,28.856-79.3,28.856s-79.3-12.92-79.3-28.856,35.505-28.856,79.3-28.856,79.3,12.919,79.3,28.856" transform="translate(-44.259 -158.36)" fill="#e8e8e8"/>
                        </g>
                      </g>
                    </g>
                    <g id="Grupo_1112759" data-name="Grupo 1112759" transform="translate(28.328 10.308)" opacity="0.727">
                      <g id="Grupo_1112758" data-name="Grupo 1112758">
                        <g id="Grupo_1112757" data-name="Grupo 1112757" clip-path="url(#clip-path-14)">
                          <path id="Trazado_911928" data-name="Trazado 911928" d="M199.54,187.295c0,15.226-33.919,27.568-75.762,27.568S48.015,202.52,48.015,187.295s33.92-27.568,75.762-27.568,75.762,12.342,75.762,27.568" transform="translate(-48.015 -159.727)" fill="#e8e8e8"/>
                        </g>
                      </g>
                    </g>
                    <g id="Grupo_1112762" data-name="Grupo 1112762" transform="translate(31.869 11.596)" opacity="0.818">
                      <g id="Grupo_1112761" data-name="Grupo 1112761">
                        <g id="Grupo_1112760" data-name="Grupo 1112760" clip-path="url(#clip-path-15)">
                          <path id="Trazado_911929" data-name="Trazado 911929" d="M196.214,187.373c0,14.514-32.335,26.279-72.222,26.279s-72.221-11.765-72.221-26.279,32.335-26.28,72.221-26.28,72.222,11.766,72.222,26.28" transform="translate(-51.771 -161.094)" fill="#e8e8e8"/>
                        </g>
                      </g>
                    </g>
                    <g id="Grupo_1112765" data-name="Grupo 1112765" transform="translate(35.41 12.885)" opacity="0.909">
                      <g id="Grupo_1112764" data-name="Grupo 1112764" transform="translate(0)">
                        <g id="Grupo_1112763" data-name="Grupo 1112763" clip-path="url(#clip-path-16)">
                          <path id="Trazado_911930" data-name="Trazado 911930" d="M192.888,187.451c0,13.8-30.749,24.991-68.68,24.991s-68.681-11.189-68.681-24.991,30.749-24.991,68.681-24.991,68.68,11.189,68.68,24.991" transform="translate(-55.528 -162.46)" fill="#e8e8e8"/>
                        </g>
                      </g>
                    </g>
                    <g id="Grupo_1112768" data-name="Grupo 1112768" transform="translate(38.951 14.173)">
                      <g id="Grupo_1112767" data-name="Grupo 1112767" transform="translate(0)">
                        <g id="Grupo_1112766" data-name="Grupo 1112766" clip-path="url(#clip-path-17)">
                          <path id="Trazado_911931" data-name="Trazado 911931" d="M189.562,187.529c0,13.09-29.164,23.7-65.139,23.7s-65.139-10.612-65.139-23.7,29.164-23.7,65.139-23.7,65.139,10.612,65.139,23.7" transform="translate(-59.284 -163.827)" fill="#e8e8e8"/>
                        </g>
                      </g>
                    </g>
                  </g>
                </g>
              </g>
              <path id="Trazado_911932" data-name="Trazado 911932" d="M227.451,192.181a23.356,23.356,0,0,0-13.567-6.969c-5.327-.75-9.441,1.031-14.388,2.5-9.791,2.91-19.788,2.173-29.574-.442-19.409-5.188-13.121-31.151,2.711-34.771,8.782-2.007,17.932-5.017,27.042-4.646,9.22.376,16.159,7.4,20.3,15.082,2.827,5.242,4.481,11.369,5.638,17.175.552,2.768,1,5.556,1.381,8.352.091.665-.02,3.215.457,3.716" transform="translate(-9.044 -8.469)" fill="#65921f" fill-rule="evenodd"/>
              <path id="Trazado_911933" data-name="Trazado 911933" d="M215.055,181.223a84.3,84.3,0,0,0-20.091-8.544c-11.53-3.118-24.372-6.161-36.576-4.928,1.6-7.026,6.9-13.564,14.276-15.249,8.782-2.008,17.932-5.018,27.042-4.647,9.22.376,16.159,7.4,20.3,15.082,2.827,5.242,4.481,11.369,5.638,17.175.552,2.768,1,5.556,1.381,8.352a23.472,23.472,0,0,0,.274,3.323c-2.819-4.571-7.791-7.984-12.244-10.565" transform="translate(-9.075 -8.469)" fill="#a5bc00" fill-rule="evenodd"/>
              <path id="Trazado_911934" data-name="Trazado 911934" d="M240.583,160.491s-16.1-14.5-54.132,7.058-23.064-14.141-23.056-14.161c1.972-4.7,10.67-8.6,14.935-10.146,10.591-3.833,21.4-1.232,31.723,2.113,10.624,3.442,21.974,7.722,30.53,15.137" transform="translate(-9.195 -8.098)" fill="#a5bc00" fill-rule="evenodd"/>
              <path id="Trazado_911935" data-name="Trazado 911935" d="M172.126,161.162c17.445-8.7,37.8-13.058,57.476-6.361.772.32,3.845,1.626,4.607,1.974a52,52,0,0,1,6.291,4.14c-1.923-1.525-18.3-12.98-53.937,7.219-14.491,8.214-21.283,8.109-24.144,4.838,2.991-1.235,6.757-10.339,9.707-11.81" transform="translate(-9.306 -8.682)" fill="#65921f"/>
              <path id="Trazado_911936" data-name="Trazado 911936" d="M221.57,64.663c-2.026.125-5.389-1.928-7.081-2.958a115.531,115.531,0,0,1-18.568-14.334c-4.583-4.246-9.55-8.116-13.6-12.907a29.631,29.631,0,0,1-5.048-7.975c-1.617-4.048-2.656-8.374-4.885-12.161-2.035-3.459-5.38-5.571-8.554-7.867-.395-.286-.866.363-.506.679.173.153.351.3.525.445-.163-.078-.328-.155-.49-.235a.726.726,0,0,0-1.011.844.6.6,0,0,0,.1,1.189c.117,0,.233.022.35.031,5.507,1.863,8.694,5.273,9.73,11.249a.617.617,0,0,0-.188-.1c-3.511-1.019-6.1,3.341-7.39,5.9-3.546,7.016-3.217,14.133-.125,21.278,4.536,10.483,14.7,17.617,25.182,21.359a39.723,39.723,0,0,0,16.666,2.554,27.9,27.9,0,0,0,8.74-2.151,25.775,25.775,0,0,0,3.865-2.082c.763-.5,2.838-2.792,3.61-2.842l-1.324.085" transform="translate(-9.275 -0.366)" fill="#65921f" fill-rule="evenodd"/>
              <path id="Trazado_911937" data-name="Trazado 911937" d="M222.226,65.573c-2.025.125-5.389-1.928-7.081-2.958a115.531,115.531,0,0,1-18.568-14.334c-4.583-4.246-9.55-8.116-13.6-12.907a29.631,29.631,0,0,1-5.048-7.975c-.667-1.67-1.239-3.385-1.835-5.092-.127-.366-1.9,2.467-2,2.734-1.81,4.944-.07,12.516,1.643,17.29a37.293,37.293,0,0,0,10.064,14.774c5.855,5.363,12.733,9.733,20.645,11.233,3.928.746,9.157,1.186,13.519-.038a27.441,27.441,0,0,0,3.579-2.813l-1.324.085" transform="translate(-9.931 -1.276)" fill="#a5bc00" fill-rule="evenodd"/>
              <path id="Trazado_911938" data-name="Trazado 911938" d="M194.532,120.362c-5.31-14.382-17.706-24.452-24.038-38.248a123.394,123.394,0,0,0-12.119-20.762,57.939,57.939,0,0,0-9.3-10.018c-3.193-2.687-7.432-3.494-11.393-4.409a25.715,25.715,0,0,1-9.77-4.607,28.368,28.368,0,0,0-4.319-3.237,11.6,11.6,0,0,0-5.377-1.141c-6.556.133-11.785,5.24-15.014,10.544a82.353,82.353,0,0,0-5.434,11.239c-2.826,6.816-4.6,14.213-8.366,20.619-7.278,12.393-15.571,22.289-19.9,36.306-2.9,9.384-2.952,20.935.251,30.207,3.251,9.41,8.453,17.988,16.834,23.691,6.427,4.374,13.123,6.908,20.246,9.8,2.744,1.111,5.144,2.848,7.948,3.841,9.674,3.428,20.083,3.318,30.008,1.078a103.953,103.953,0,0,0,14.762-4.712c4.473-1.739,9.184-2.948,13.395-5.31a45.858,45.858,0,0,0,17.78-18.417q.847-1.575,1.589-3.2c4.745-10.4,6.226-22.387,2.213-33.257" transform="translate(-3.858 -2.174)" fill="#ffc700" fill-rule="evenodd"/>
              <path id="Trazado_911939" data-name="Trazado 911939" d="M137.961,43.8a.4.4,0,0,1-.125.083c-.733.308-4.246-.7-5.208-.913-2.406-.535-.961-3.027-.024-4.264a79.124,79.124,0,0,0,4.856-7.76c1.839-3.122,3.347-6.7,4.979-9.966.492-.986.748-2.01,1.3-2.948,1.947-3.324,3.891-6.622,6.011-9.746,1.176-1.733,2.283-3.417,3.476-5.116,1.66-2.365,3.212-4.375,6.053-2.312,1.226.888,4.357,3.8,3.963,5.471a4.156,4.156,0,0,1-.847,1.438c-1.727,2.487-4.614,3.96-6.707,6.125-6.465,6.683-11.236,14.972-15.046,23.4-.525,1.16-1.13,2.285-1.62,3.464-.325.78-.448,2.475-1.059,3.048" transform="translate(-7.523 0)" fill="#855109" fill-rule="evenodd"/>
              <path id="Trazado_911940" data-name="Trazado 911940" d="M77.409,151.181c-4.64-12.342-6.561-18.914-3.1-30.858C79.276,103.169,98.422,83.035,104.1,64.5a24.183,24.183,0,0,1,13.891-15.1c8.937-3.555,13.635.65,20.372,5.932,7.8,6.119,11.453,18.116,10.307,27.815-.476,4.033-1.686,8.062-1.12,12.084.745,5.293,4.4,9.622,7.334,14.091,7.438,11.322,10.781,25.5,8.087,38.777s-11.714,25.354-24.14,30.748a40.4,40.4,0,0,1-34.071-1.13C94,172.256,81.6,162.336,77.409,151.181" transform="translate(-4.156 -2.755)" fill="#f6a800" fill-rule="evenodd"/>
              <path id="Trazado_911941" data-name="Trazado 911941" d="M187.069,146.781a6.65,6.65,0,0,1-5.541-3.738,12.1,12.1,0,0,1-.661-2.959c-.538-3.656-2.693-6.945-3.833-10.414-1.776-5.4-4.726-14.311,3.129-15.71,4.418-.787,6.959,2.774,9.476,5.873a30.1,30.1,0,0,1,6.452,15.046,13.089,13.089,0,0,1-.68,7.056,8.529,8.529,0,0,1-8.342,4.846" transform="translate(-10.026 -6.523)" fill="#fff59e" fill-rule="evenodd"/>
              <path id="Trazado_911942" data-name="Trazado 911942" d="M178.874,101.507a3.958,3.958,0,0,1,.1,1.676c-.716,3.537-3.395,5.269-6.8,3.974-7.136-2.709-3.739-16.511,2.474-12.163a13.554,13.554,0,0,1,4.234,6.512" transform="translate(-9.635 -5.395)" fill="#fff59e" fill-rule="evenodd"/>
              <path id="Trazado_911943" data-name="Trazado 911943" d="M50.306,87.882c29.452-7.256,45.886,5.549,45.886,5.549s20.7,8.537,22.409,40.55-27.532,47.38-27.532,47.38a64.714,64.714,0,0,1-57.838.853C11.885,171.98,7.406,145.3,13.369,124.15,18.43,106.2,32.138,92.358,50.306,87.882" transform="translate(-0.627 -4.908)" fill="#d9000d"/>
              <path id="Trazado_911944" data-name="Trazado 911944" d="M18.811,149.749c-.6-3.721,1.851-7.176,4.172-10.146a10.858,10.858,0,0,0-6.389,2.76l6.433-6.2a19.353,19.353,0,0,0-8.507,2.076l8.816-5.8-4.764-.088a9.822,9.822,0,0,0,4.13-3.529,23.31,23.31,0,0,1-9.305-1.084l8.343-1.383-7.412-3.683a25.433,25.433,0,0,0,9.605.72l-7.482-4.842,7.688,1.285c-2.53-1.947-5.342-4.562-4.812-7.71a12.427,12.427,0,0,0,6.461,5.644c-1.895-3.725-3.809-8.152-1.966-11.9a8.437,8.437,0,0,0,2.64,5.407,18.078,18.078,0,0,1,3.3-10.545,15.431,15.431,0,0,0,.707,8.063,19.7,19.7,0,0,1,4.709-12.758,36.758,36.758,0,0,0-.837,8.94,16.192,16.192,0,0,1,5.136-11.651q-.341,4.449-.681,8.9A29.667,29.667,0,0,1,46.469,92.2l-1.021,3.343a10.169,10.169,0,0,1,6.083-4.087,34.426,34.426,0,0,0-8.707,14.933A36.662,36.662,0,0,1,58.477,90.967a22.338,22.338,0,0,0-8.183,10.687,39.248,39.248,0,0,1,11.8-5.3c-3.906,2.169-8.057,4.6-9.915,8.659A29.28,29.28,0,0,1,70.2,99.223a18.32,18.32,0,0,0-14.034,9.7,41.231,41.231,0,0,1,15.1-3.735,35.224,35.224,0,0,0-13.835,8.872,84.216,84.216,0,0,1,16.822-4.064,63.962,63.962,0,0,0-17.634,8.571,46.2,46.2,0,0,0,7.05-.7,20.048,20.048,0,0,0-5.963,3.243,81.646,81.646,0,0,1,14.275,2.509,23.547,23.547,0,0,0-14.266,1.334,22.377,22.377,0,0,0,8.449,3.295,33.1,33.1,0,0,0-9.074.067c.713,1.455,2.625,1.693,4.21,2.027a13.933,13.933,0,0,1,6.421,3.262,46.975,46.975,0,0,0-10.605.425,58.522,58.522,0,0,1,11.249,6.262l-9.768-2.113a33.571,33.571,0,0,1,8,6.634l-9.565-2.345,8.99,12.174-12.1-10.665a70.884,70.884,0,0,0,4.205,9.561,21.565,21.565,0,0,1-7.659-7.652,23.947,23.947,0,0,0,.907,5.419,7.28,7.28,0,0,0-2.845-3.769,51.558,51.558,0,0,0,.76,12.115q-2.115-5.738-4.233-11.475a83.618,83.618,0,0,0,.169,11.241q-2.244-4.832-4.49-9.665a66.3,66.3,0,0,1-.5,12.591A48.95,48.95,0,0,1,36.08,151.08a16.353,16.353,0,0,0-2.449,7.426q-.45-3.7-.9-7.4a41.522,41.522,0,0,0-2.726,9.612,26.79,26.79,0,0,1-.952-14.515,21.119,21.119,0,0,0-4.028,11.636,25.619,25.619,0,0,1,2.608-12.779,15.189,15.189,0,0,0-5.617,5.853q2.412-5.167,4.827-10.335a13.421,13.421,0,0,0-8.034,9.174" transform="translate(-0.768 -5.212)" fill="#e44400"/>
              <path id="Trazado_911945" data-name="Trazado 911945" d="M11.261,139.18l.02-.119c6.934.046,13.385,3.976,18.026,9.128a92.75,92.75,0,0,1,9.52,13.44,8.023,8.023,0,0,0,.075,1.6c1.86,12.761,17.968,19.1,29.266,19.232,8.472.1,16.863-.961,24.721-4.229a72.9,72.9,0,0,0,15.442-8.953,59.626,59.626,0,0,1-17.277,15.137c-21.237,11.194-52.168,10.778-68.988-8.068A45.588,45.588,0,0,1,11.261,139.18" transform="translate(-0.613 -7.967)" fill="#be000b"/>
              <path id="Trazado_911946" data-name="Trazado 911946" d="M51.62,123.191a2.2,2.2,0,0,1-2.165-3.76,1.273,1.273,0,0,1-1.438-1.1,3.681,3.681,0,0,1,.4-1.978l2.2-5.435a10.8,10.8,0,0,1-4.816,2.562q.792-5.194,2.1-10.292a70.8,70.8,0,0,0-4.881,11.358,19.634,19.634,0,0,1-1.238-8.816,54.311,54.311,0,0,1-1.9,11.3,45.158,45.158,0,0,1-4.739-9.242q.454,4.781.909,9.562a10.334,10.334,0,0,1-4.356-4.915,22.6,22.6,0,0,0,1.5,6.94q-2.872-1.96-5.626-4.087l2.066,4.314a21.288,21.288,0,0,0-3.68-1.39l5.042,4.508a58,58,0,0,0-6.275-2.59,31.745,31.745,0,0,0,6.08,4.432,48.656,48.656,0,0,0-6.789-.405,17.6,17.6,0,0,0,5.848,2.879,35.028,35.028,0,0,0-8.508,1.14l7.338,2.184a6.759,6.759,0,0,0-5.318,3.983A10.828,10.828,0,0,1,29.2,132.69a12.043,12.043,0,0,0-4.321,6.884,17.227,17.227,0,0,1,4.075-2.193,18.468,18.468,0,0,0-3.034,9.8,8.146,8.146,0,0,1,4.373-6.991c-1.239,2.837-2.491,6.049-1.362,8.931a10.306,10.306,0,0,1,3.3-6.5,18.088,18.088,0,0,0,.189,4.667l2.52-3.858a11.609,11.609,0,0,0,.516,7.762,26.015,26.015,0,0,1,2.76-7.957,46.811,46.811,0,0,1,2.175,6.121,22.138,22.138,0,0,1,1.059-8.661,30.625,30.625,0,0,0,3.114,7.68,56.275,56.275,0,0,1,.072-10.261,11.974,11.974,0,0,1,1.711,2.564q.062-3.7.438-7.389l2.467,1.4-.829-4.147,2.25-.785C49.6,129.014,48.4,128,48.554,126.7c.184-1.578,2.162-2.2,3.067-3.511" transform="translate(-1.223 -5.912)" fill="#f68700"/>
              <path id="Trazado_911947" data-name="Trazado 911947" d="M37.506,136.873c-5.833,0-.106-11.192,1.387-13.068,2.929-3.681,5.632-2.561,6.185,1.8.416,3.275-.545,7.175-3.122,9.485a7.25,7.25,0,0,1-4.45,1.784" transform="translate(-2.002 -6.966)" fill="#a00011"/>
              <path id="Trazado_911948" data-name="Trazado 911948" d="M92.384,94.751a20,20,0,0,0-5.841-.33c-2.361.189-4.735.749-6.312,2.3-2.694,2.65-2.3,7.546-.288,11.484,3.714,7.267,12.62,12.121,19.86,10.823,2.825-.506,5.454-1.95,6.618-4.463,1.149-2.482.719-5.7-.521-8.56A20.1,20.1,0,0,0,92.384,94.751" transform="translate(-4.487 -5.405)" fill="#fab488"/>
              <path id="Trazado_911949" data-name="Trazado 911949" d="M116.3,145.143c3.841-.726,2.756-8.244.625-10.626-1.066-1.192-2.682-1.859-3.945-1.156-1.817,1.012-1.928,4.03-1.564,6.45.273,1.824.792,3.826,2.136,4.815a3.4,3.4,0,0,0,2.748.517" transform="translate(-6.374 -7.624)" fill="#fab488"/>
              <path id="Trazado_911950" data-name="Trazado 911950" d="M35.24,131.11c-1.488.567-5.665-1.193-7.143-1.586-4.209-1.122-9.324-1.5-12.93,1.418-3.513,2.844-9.2,5.354-11.709,14.888S-1.058,160.718.615,171.59c1.462,9.505,2.342,13.215,8.2,16.393s9.032,3.179,12.546,6.357c0,0,.334-5.353,2.174-6.357s9.033-1.171,13.716-9.367-1-28.938-1-28.938S31.56,137.968,33.4,135.627s6.691-2.175,6.691-2.175,2.673-1.273-.5-3.178c-.834-.5-4.336.831-4.349.836" transform="translate(0 -7.373)" fill="#65921f"/>
              <path id="Trazado_911951" data-name="Trazado 911951" d="M3.458,145.83c2.509-9.535,8.2-12.044,11.709-14.887,3.6-2.919,8.721-2.54,12.93-1.419,1.276.34,4.564,1.7,6.4,1.694-5.4,4.107-9.706,9.309-10.85,16.327-.676,4.155-.448,8.228-.739,12.4-.288,4.109-2.087,7.694-2.951,11.67-1.156,5.314-1.856,15.671,1.5,21.783-.068.565-.092.941-.092.941-3.513-3.178-6.691-3.178-12.546-6.356S2.077,181.1.615,171.591c-1.673-10.873.334-16.226,2.843-25.76" transform="translate(0 -7.373)" fill="#a5bc00"/>
              <path id="Trazado_911952" data-name="Trazado 911952" d="M97.652,137.123s6.682-12.023,20.915-14.956c21.55-4.44,43.145,10.7,52.945,29.31a46.553,46.553,0,0,1,5.322,19.434c1.035,15.1-6.211,28.781-19.558,35.782-16.559,8.686-65.892-43.92-59.623-69.57" transform="translate(-5.564 -6.955)" fill="#5a3786"/>
              <path id="Trazado_911953" data-name="Trazado 911953" d="M96.844,138.044s6.056-2.685,16.93,3.579,21.15,15.27,28.425,22.78c6.383,6.588,15.049,15.363,15.76,24.981.386,5.217.62,12.939-3.977,18.762-4.608,3.325-11.669,3.438-17.1,3.623-10.077.343-19.337-.608-28.44-5.117a47.1,47.1,0,0,1-20.546-19.006c-12.024-21.685.92-44.583,8.952-49.6" transform="translate(-4.756 -7.876)" fill="#45265c"/>
              <path id="Trazado_911954" data-name="Trazado 911954" d="M161.082,179.95c-2.5-2.306-5.3-3.651-7.878-5.887a12.294,12.294,0,0,1,2.608,4.8,30.927,30.927,0,0,1,.236,5.3,8.7,8.7,0,0,0,1.577,5.167,3.689,3.689,0,0,0,6.822-2.186,8.7,8.7,0,0,0-2.558-6.4" transform="translate(-8.778 -9.973)" fill="#37190e"/>
              <path id="Trazado_911955" data-name="Trazado 911955" d="M107.066,175.742a19.471,19.471,0,0,0,.361-8.955c-.721-2.928-2.764-5.677-5.655-6.532-3.364-1-7.114.85-9.109,3.735s-2.494,6.572-2.276,10.072a18.326,18.326,0,0,0,2.168,8,10.857,10.857,0,0,0,6.3,5.173,2.686,2.686,0,0,0,1.207.114,2.781,2.781,0,0,0,1.19-.649c3.266-2.66,4.869-6.853,5.813-10.959" transform="translate(-5.176 -9.166)" fill="#a190c4"/>
              <path id="Trazado_911956" data-name="Trazado 911956" d="M110.747,196.922a4.743,4.743,0,0,0,5.952.277,5.39,5.39,0,0,0,1.756-5.82,6.256,6.256,0,0,0-4.662-4.067c-3.178.08-5.242,3.919-4.472,7a5.437,5.437,0,0,0,1.425,2.608" transform="translate(-6.254 -10.732)" fill="#a190c4"/>
            </g>
          </g>
        </g>
      </g>
    </g>
  </g>
</svg>
