<svg xmlns="http://www.w3.org/2000/svg" width="85" height="85" viewBox="0 0 85 85">
  <g id="Grupo_1107855" data-name="Grupo 1107855" transform="translate(-600 -938)">
    <rect id="BG" width="85" height="85" rx="5" transform="translate(600 938)" fill="#e0ecf9" opacity="0.949"/>
    <circle id="Elipse_11661" data-name="Elipse 11661" cx="31.5" cy="31.5" r="31.5" transform="translate(611 949)" fill="#b4d1f0"/>
    <g id="Grupo_1107846" data-name="Grupo 1107846" transform="translate(612 951)">
      <g id="Grupo_1107850" data-name="Grupo 1107850" transform="translate(0.893 0.893)">
        <path id="Trazado_898176" data-name="Trazado 898176" d="M186.731,17.467c-1.944,2.637-2.967,8.043-3.383,10.8H169.556c-.416-2.76-1.438-8.165-3.383-10.8,0,0,4.539,1.3,6.633,4.141l1.126-1.657,2.519-3.709,3.646,5.366C182.192,18.767,186.731,17.467,186.731,17.467Z" transform="translate(-147.281 -16.242)" fill="#ad7136"/>
        <path id="Trazado_898177" data-name="Trazado 898177" d="M65.841,135.892c0-13.471-13.06-24.391-29.171-24.391S7.5,122.421,7.5,135.892s13.06,20.526,29.171,20.526S65.841,149.363,65.841,135.892Z" transform="translate(-7.5 -100.159)" fill="#ff3b6a"/>
        <path id="Trazado_898178" data-name="Trazado 898178" d="M175.633,37.335h-6.077c-.416-2.76-1.438-8.165-3.383-10.8,0,0,4.539,1.3,6.633,4.141l1.126-1.657A33.856,33.856,0,0,0,175.633,37.335Z" transform="translate(-147.281 -25.307)" fill="#8c531f"/>
        <path id="Trazado_898179" data-name="Trazado 898179" d="M36.671,156.418c-16.111,0-29.171-7.056-29.171-20.527S20.56,111.5,36.671,111.5c-8.012,0-14.508,10.921-14.508,24.391S28.659,156.418,36.671,156.418Z" transform="translate(-7.5 -100.158)" fill="#e21e56"/>
      </g>
      <g id="Grupo_1107851" data-name="Grupo 1107851" transform="translate(0 0)">
        <path id="Trazado_898180" data-name="Trazado 898180" d="M51.263,27.437a31.6,31.6,0,0,0-13.288-6.471c.154-.926.326-1.828.517-2.688a.893.893,0,1,0-1.744-.386c-.193.873-.369,1.785-.525,2.722a36.079,36.079,0,0,0-12.317,0,36.955,36.955,0,0,0-2.152-8.027A10.572,10.572,0,0,1,25.7,15.532a.893.893,0,0,0,1.458-.028l2.907-4.279L32.971,15.5a.893.893,0,0,0,1.458.028,10.571,10.571,0,0,1,3.944-2.943q-.38.877-.723,1.936a.893.893,0,1,0,1.7.551,13.258,13.258,0,0,1,1.714-3.685A.893.893,0,0,0,40.1,10a16.5,16.5,0,0,0-6.3,3.538L30.8,9.134a.893.893,0,0,0-1.477,0l-2.994,4.407A16.5,16.5,0,0,0,20.031,10a.893.893,0,0,0-.965,1.388c.6.811,2.058,3.335,3.087,9.574A31.6,31.6,0,0,0,8.864,27.437C3.148,32.216,0,38.585,0,45.369A18.019,18.019,0,0,0,5.21,58.381a.893.893,0,0,0,1.279-1.247,16.289,16.289,0,0,1-4.7-11.765c0-12.957,12.685-23.5,28.278-23.5s28.278,10.541,28.278,23.5A16.824,16.824,0,0,1,50.2,59.936C45.2,63.2,38.048,65,30.064,65c-8.542,0-16.029-2.031-21.082-5.718a.893.893,0,0,0-1.053,1.443c5.356,3.909,13.218,6.061,22.135,6.061,8.448,0,15.749-1.852,21.115-5.357,5.854-3.824,8.949-9.378,8.949-16.062C60.127,38.585,56.979,32.216,51.263,27.437Z" transform="translate(0 -8.743)"/>
        <path id="Trazado_898181" data-name="Trazado 898181" d="M392.847,406.247a.893.893,0,1,0,1.015.575A.9.9,0,0,0,392.847,406.247Z" transform="translate(-345.449 -358.904)"/>
        <path id="Trazado_898182" data-name="Trazado 898182" d="M387.89,379.933a.892.892,0,1,0,.354,1.015A.9.9,0,0,0,387.89,379.933Z" transform="translate(-340.485 -335.607)"/>
        <path id="Trazado_898183" data-name="Trazado 898183" d="M410.182,388.04a.893.893,0,1,0,.149-1.164A.9.9,0,0,0,410.182,388.04Z" transform="translate(-361.215 -341.658)"/>
        <path id="Trazado_898184" data-name="Trazado 898184" d="M33.363,289.365a.893.893,0,1,0-.137,1.152A.9.9,0,0,0,33.363,289.365Z" transform="translate(-27.95 -255.603)"/>
        <path id="Trazado_898185" data-name="Trazado 898185" d="M38.1,264.023a.893.893,0,1,0-1.142-.128A.9.9,0,0,0,38.1,264.023Z" transform="translate(-32.342 -232.188)"/>
        <path id="Trazado_898186" data-name="Trazado 898186" d="M57.058,279.434a.893.893,0,1,0-1.1-.348A.9.9,0,0,0,57.058,279.434Z" transform="translate(-49.179 -245.693)"/>
      </g>
    </g>
  </g>
</svg>
