<svg xmlns="http://www.w3.org/2000/svg" width="85" height="85" viewBox="0 0 85 85">
  <g id="Grupo_1107858" data-name="Grupo 1107858" transform="translate(-905 -938)">
    <rect id="BG" width="85" height="85" rx="5" transform="translate(905 938)" fill="#e0ecf9" opacity="0.949"/>
    <circle id="Elipse_11660" data-name="Elipse 11660" cx="31.5" cy="31.5" r="31.5" transform="translate(916 949)" fill="#b4d1f0"/>
    <g id="Grupo_1107845" data-name="Grupo 1107845" transform="translate(919 949)">
      <g id="Grupo_1107847" data-name="Grupo 1107847" transform="translate(0.954 0.953)">
        <path id="Trazado_898163" data-name="Trazado 898163" d="M69.919,104.212c-9.6,9.361-22.241,11.827-30.691,10.728a23.1,23.1,0,0,1-7.112-1.926h0c-3.984-1.865-5.908-4.563-5.471-6.428.6-3.126,5.419-4.9,10.8-7.589A65.769,65.769,0,0,0,54.4,87.693,65.774,65.774,0,0,0,66.733,71.472c3.02-5.2,5.088-9.9,8.246-10.3a2.9,2.9,0,0,1,1.7.282c2.574,1.186,5.476,5.686,5.859,12.8C83.106,82.749,79.858,95.209,69.919,104.212Z" transform="translate(-26.584 -54.323)" fill="#ffe239"/>
        <path id="Trazado_898164" data-name="Trazado 898164" d="M76.676,61.451,76.5,63.633c-1.908-.48-3.5,15.978-16.575,27.07s-29.786,13.42-27.806,22.309c-3.984-1.865-5.908-4.563-5.471-6.428.6-3.126,5.419-4.9,10.8-7.589A65.768,65.768,0,0,0,54.4,87.693,65.774,65.774,0,0,0,66.733,71.472c3.02-5.2,5.088-9.9,8.246-10.3A2.9,2.9,0,0,1,76.676,61.451Z" transform="translate(-26.584 -54.323)" fill="#ffb83b"/>
        <path id="Trazado_898165" data-name="Trazado 898165" d="M394.415,7.5V17.631l-3.266-.822-4.126-1.039.794-8.271Z" transform="translate(-341.236 -7.499)" fill="#70d65b"/>
        <path id="Trazado_898166" data-name="Trazado 898166" d="M391.149,16.809l-4.126-1.039.794-8.271h2.875Z" transform="translate(-341.236 -7.499)" fill="#58b741"/>
      </g>
      <g id="Grupo_1107848" data-name="Grupo 1107848" transform="translate(0)">
        <path id="Trazado_898167" data-name="Trazado 898167" d="M76.96,24.192a30.625,30.625,0,0,0-.032-3.366,21.269,21.269,0,0,0-2.771-10.011V.953A.953.953,0,0,0,73.2,0h-6.6a.953.953,0,0,0-.948.862L64.9,8.8a33.427,33.427,0,0,0-4.156,6.374c-.445.8-.905,1.617-1.389,2.45l-.008.014A64.46,64.46,0,0,1,47.186,33.629,64.438,64.438,0,0,1,30.472,44.766a.953.953,0,1,0,.823,1.719,66.3,66.3,0,0,0,17.2-11.467A66.322,66.322,0,0,0,61,18.573c.49-.843.952-1.669,1.4-2.469a34.744,34.744,0,0,1,3.717-5.82l6.471,1.63a20.148,20.148,0,0,1,2.434,9.028,37.646,37.646,0,0,1-12.3,29.194l-.025.024a38.091,38.091,0,0,1-26.18,10.695,29.093,29.093,0,0,1-3.735-.231c-3.963-.462-8.968-2.051-11.128-5.127a2.741,2.741,0,0,1-.638-2.064c0-.013.006-.026.008-.039.367-1.922,3.1-3.407,6.11-4.885a.953.953,0,1,0-.84-1.71c-3.584,1.759-6.6,3.442-7.138,6.219a4.509,4.509,0,0,0,.939,3.574,12.318,12.318,0,0,0,4.584,3.684,23.505,23.505,0,0,0,7.87,2.24,31.216,31.216,0,0,0,4.016.251,39.276,39.276,0,0,0,11.3-1.726,39.87,39.87,0,0,0,16.153-9.5A39.877,39.877,0,0,0,74.5,36a39.045,39.045,0,0,0,2.455-11.751C76.959,24.233,76.961,24.212,76.96,24.192ZM67.473,1.905h4.779V9.863L66.84,8.5Z" transform="translate(-19.072)"/>
        <path id="Trazado_898168" data-name="Trazado 898168" d="M185.408,257.42a47.488,47.488,0,0,1-19.137,10.422.953.953,0,1,0,.531,1.83A49.374,49.374,0,0,0,186.7,258.823a43.743,43.743,0,0,0,10.077-13.8.953.953,0,0,0-1.726-.806A41.85,41.85,0,0,1,185.408,257.42Z" transform="translate(-146.972 -212.713)"/>
        <path id="Trazado_898169" data-name="Trazado 898169" d="M409.911,176.86a.952.952,0,0,0,1.219-.574,45.734,45.734,0,0,0,1.645-5.709.953.953,0,0,0-1.862-.406,43.824,43.824,0,0,1-1.576,5.47A.953.953,0,0,0,409.911,176.86Z" transform="translate(-359.712 -147.899)"/>
        <path id="Trazado_898170" data-name="Trazado 898170" d="M357.284,152.379a.952.952,0,1,0,.188-1.264A.96.96,0,0,0,357.284,152.379Z" transform="translate(-314.182 -131.734)"/>
        <path id="Trazado_898171" data-name="Trazado 898171" d="M388.475,146.685a.953.953,0,1,0,.358-1.16A.963.963,0,0,0,388.475,146.685Z" transform="translate(-341.49 -126.904)"/>
        <path id="Trazado_898172" data-name="Trazado 898172" d="M375.677,168.128a.953.953,0,1,0,.032,1.314A.961.961,0,0,0,375.677,168.128Z" transform="translate(-328.958 -146.533)"/>
        <path id="Trazado_898173" data-name="Trazado 898173" d="M86.347,402.7a.953.953,0,1,0-.112-1.21A.961.961,0,0,0,86.347,402.7Z" transform="translate(-77.561 -350.123)"/>
        <path id="Trazado_898174" data-name="Trazado 898174" d="M106.578,382.63a.952.952,0,1,0,1.05.533A.961.961,0,0,0,106.578,382.63Z" transform="translate(-94.794 -334.009)"/>
        <path id="Trazado_898175" data-name="Trazado 898175" d="M112.788,406.36a.952.952,0,1,0,1.183.392A.96.96,0,0,0,112.788,406.36Z" transform="translate(-100.381 -354.677)"/>
      </g>
    </g>
  </g>
</svg>
