<svg xmlns="http://www.w3.org/2000/svg" width="37.021" height="58.742" viewBox="0 0 37.021 58.742">
  <g id="Grupo_1112152" data-name="Grupo 1112152" transform="translate(-23.667)">
    <g id="Grupo_1112150" data-name="Grupo 1112150" transform="translate(24.472 0.803)">
      <g id="Grupo_1112147" data-name="Grupo 1112147" transform="translate(0 0)">
        <path id="Trazado_903471" data-name="Trazado 903471" d="M26.661,13.338l2.894,2.968h7.48l2.894-2.968c1.244-1.275.6-3.633-1.056-3.874l.854-1.179c1.157-1.6-.051-3.978-1.836-3.621l-1.084.217-1.188-1.8a2.7,2.7,0,0,0-4.652,0l-1.186,1.8L28.7,4.664c-1.786-.357-2.995,2.024-1.836,3.621l.854,1.179c-1.659.24-2.3,2.6-1.058,3.874Z" transform="translate(-25.739 -1.75)" fill="#a9db1f"/>
        <path id="Trazado_903472" data-name="Trazado 903472" d="M41.741,15.561v7.782a.8.8,0,1,1-1.606,0V15.561a.8.8,0,0,1,1.606,0Z" transform="translate(-33.382 -8.789)" fill="#00a400"/>
        <path id="Trazado_903473" data-name="Trazado 903473" d="M29.182,33.47h7.586a3.768,3.768,0,0,1,3.754,4.066l-.441,5.608-.014.188-.1,1.3-.009.119-.193,2.464s-.312,3.763-.922,8.573c-.064.519-.133,1.051-.207,1.592-1.12,8.3-3.033,18.669-5.658,18.669-3.474,0-5.714-18.192-6.485-25.676-.064-.61-.119-1.147-.161-1.6-.1-.987-.142-1.56-.142-1.56l-.62-7.921-.124-1.6v0l-.014-.156a3.763,3.763,0,0,1,3.749-4.066Z" transform="translate(-25.42 -18.913)" fill="#ff9000"/>
        <g id="Grupo_1112146" data-name="Grupo 1112146" transform="translate(0.026 18.774)">
          <path id="Trazado_903474" data-name="Trazado 903474" d="M25.537,42.66h6.2a.8.8,0,1,1,0,1.606H25.6l-.124-1.6v0a.242.242,0,0,1,.06,0Z" transform="translate(-25.477 -42.659)" fill="#ff641a"/>
          <path id="Trazado_903475" data-name="Trazado 903475" d="M39.77,54.55h7.641l-.014.188-.1,1.3-.009.119H39.77a.8.8,0,1,1,0-1.606Z" transform="translate(-32.776 -49.093)" fill="#ff641a"/>
          <path id="Trazado_903476" data-name="Trazado 903476" d="M27.485,66.8h5.291a.8.8,0,1,1,0,1.606H27.568c-.064-.61-.119-1.147-.161-1.6A.215.215,0,0,1,27.485,66.8Z" transform="translate(-26.521 -55.721)" fill="#ff641a"/>
          <path id="Trazado_903477" data-name="Trazado 903477" d="M42.99,82.07h4.819a.391.391,0,0,1,.106.014c-.064.519-.133,1.051-.207,1.592H42.99a.8.8,0,0,1,0-1.606Z" transform="translate(-34.518 -63.984)" fill="#ff641a"/>
        </g>
      </g>
      <g id="Grupo_1112149" data-name="Grupo 1112149" transform="translate(20.297)">
        <path id="Trazado_903478" data-name="Trazado 903478" d="M84.16,97.5l-2.895-2.968h-7.48L70.891,97.5c-1.244,1.275-.6,3.633,1.056,3.874l-.854,1.178c-1.157,1.6.051,3.978,1.836,3.621l1.084-.217,1.186,1.8a2.7,2.7,0,0,0,4.652,0l1.186-1.8,1.083.217c1.786.357,2.994-2.024,1.836-3.621l-.854-1.178c1.661-.24,2.3-2.6,1.06-3.874Z" transform="translate(-69.968 -51.953)" fill="#a9db1f"/>
        <path id="Trazado_903479" data-name="Trazado 903479" d="M84.365,101.37V93.588a.8.8,0,0,1,1.606,0v7.782a.8.8,0,1,1-1.606,0Z" transform="translate(-77.611 -51.007)" fill="#00a400"/>
        <path id="Trazado_903480" data-name="Trazado 903480" d="M81,44.328H73.413a3.768,3.768,0,0,1-3.754-4.066l.441-5.608.014-.188.1-1.3.009-.119.193-2.464s.312-3.763.922-8.573c.064-.519.133-1.051.207-1.592,1.12-8.3,3.033-18.669,5.658-18.669,3.474,0,5.714,18.192,6.485,25.676.064.61.119,1.147.161,1.6.1.987.142,1.56.142,1.56l.62,7.921.124,1.6v0l.014.156A3.763,3.763,0,0,1,81,44.328Z" transform="translate(-69.647 -1.75)" fill="#ff9000"/>
        <g id="Grupo_1112148" data-name="Grupo 1112148" transform="translate(0.452 18.669)">
          <path id="Trazado_903481" data-name="Trazado 903481" d="M94.142,83.446h-6.2a.8.8,0,0,1,0-1.606h6.131l.124,1.6v0A.243.243,0,0,1,94.142,83.446Z" transform="translate(-79.566 -63.754)" fill="#ff641a"/>
          <path id="Trazado_903482" data-name="Trazado 903482" d="M78.274,71.556H70.633l.014-.188.1-1.3.009-.119h7.517a.8.8,0,0,1,0,1.606Z" transform="translate(-70.633 -57.321)" fill="#ff641a"/>
          <path id="Trazado_903483" data-name="Trazado 903483" d="M93.237,59.306H87.946a.8.8,0,0,1,0-1.606h5.209c.064.61.119,1.147.161,1.6A.215.215,0,0,1,93.237,59.306Z" transform="translate(-79.566 -50.692)" fill="#ff641a"/>
          <path id="Trazado_903484" data-name="Trazado 903484" d="M78.257,44.036H73.439a.391.391,0,0,1-.106-.014c.064-.519.133-1.051.207-1.592h4.718a.8.8,0,1,1,0,1.606Z" transform="translate(-72.094 -42.43)" fill="#ff641a"/>
        </g>
      </g>
    </g>
    <g id="Grupo_1112151" data-name="Grupo 1112151" transform="translate(23.667 0)">
      <path id="Trazado_903485" data-name="Trazado 903485" d="M37.393,14.842l1.846-1.891a3.247,3.247,0,0,0,.7-3.29,2.951,2.951,0,0,0-1.088-1.492l.26-.359A3.267,3.267,0,0,0,39.2,4.152a2.612,2.612,0,0,0-2.737-1.223l-.551.111-.892-1.35a3.5,3.5,0,0,0-5.993,0l-.889,1.35-.551-.111a2.616,2.616,0,0,0-2.737,1.223,3.267,3.267,0,0,0,.092,3.657l.26.359A2.954,2.954,0,0,0,24.119,9.66a3.249,3.249,0,0,0,.7,3.29l1.845,1.891a4.554,4.554,0,0,0-2.983,4.647l.758,9.68c.007.083.707,8.358,2.008,15.97a.8.8,0,0,0,1.583-.271c-.791-4.632-1.358-9.511-1.68-12.608h4.4a.8.8,0,1,0,0-1.606H26.19c-.1-1-.147-1.6-.149-1.616l-.615-7.854H30.75a.8.8,0,1,0,0-1.606H25.3l-.017-.214a2.966,2.966,0,0,1,2.952-3.2h7.586a2.965,2.965,0,0,1,2.952,3.2l-.444,5.669H31.491a.8.8,0,1,0,0,1.606H38.2l-.188,2.4c0,.052-.325,3.845-.933,8.628H32.969a.8.8,0,0,0,0,1.606h3.9c-.181,1.345-.383,2.739-.6,4.13-2.168,13.58-4.156,13.736-4.24,13.736-.052,0-1.3-.076-2.876-6.661a.8.8,0,1,0-1.56.374c1.3,5.459,2.673,7.893,4.438,7.893,1.592,0,3.693-1.715,5.828-15.095,1.142-7.155,1.755-14.4,1.761-14.482l.758-9.676a4.552,4.552,0,0,0-2.983-4.647Zm-4.562-.287V7.576a.8.8,0,1,0-1.606,0v6.979h-2.6l-2.658-2.726a1.64,1.64,0,0,1-.33-1.652,1.218,1.218,0,0,1,.926-.866A.8.8,0,0,0,27.1,8.046l-.854-1.178a1.652,1.652,0,0,1-.04-1.847,1.021,1.021,0,0,1,1.07-.516l1.084.217a.8.8,0,0,0,.831-.347l1.184-1.8a1.9,1.9,0,0,1,3.31,0l1.186,1.8a.8.8,0,0,0,.829.346L36.781,4.5a1.019,1.019,0,0,1,1.07.516,1.652,1.652,0,0,1-.04,1.847l-.854,1.178a.8.8,0,0,0,.535,1.266,1.218,1.218,0,0,1,.926.866,1.639,1.639,0,0,1-.33,1.652l-2.657,2.727Z" transform="translate(-23.667 0)"/>
      <path id="Trazado_903486" data-name="Trazado 903486" d="M95.39,32.649q.115.727.223,1.451a.8.8,0,0,0,.794.687.75.75,0,0,0,.119-.009.8.8,0,0,0,.676-.912q-.109-.73-.225-1.465a.8.8,0,0,0-1.586.251Z" transform="translate(-62.47 -17.164)"/>
      <path id="Trazado_903487" data-name="Trazado 903487" d="M81.621,43.9A4.554,4.554,0,0,0,84.6,39.253l-.758-9.68c0-.035-.3-3.508-.849-7.976a.8.8,0,1,0-1.594.2c.219,1.775.4,3.385.532,4.687h-4.4a.8.8,0,1,0,0,1.606H82.1c.1,1,.148,1.6.149,1.616l.613,7.856H77.534a.8.8,0,1,0,0,1.606h5.451l.017.214a2.965,2.965,0,0,1-2.951,3.2H72.463a2.965,2.965,0,0,1-2.952-3.2l.444-5.669h6.838a.8.8,0,1,0,0-1.606H70.08l.188-2.4c0-.052.325-3.845.933-8.628h4.114a.8.8,0,1,0,0-1.606h-3.9c.181-1.345.383-2.739.6-4.13,2.168-13.58,4.156-13.736,4.24-13.736.063,0,1.568.1,3.369,8.9a.8.8,0,0,0,1.574-.321C79.351,1.157,77.587,0,76.256,0c-1.592,0-3.693,1.715-5.828,15.095-1.141,7.155-1.754,14.4-1.761,14.482l-.757,9.676A4.552,4.552,0,0,0,70.892,43.9l-1.848,1.891a3.247,3.247,0,0,0-.7,3.29,2.953,2.953,0,0,0,1.088,1.493l-.26.359a3.268,3.268,0,0,0-.092,3.657,2.616,2.616,0,0,0,2.737,1.223l.551-.111.888,1.35a3.5,3.5,0,0,0,5.993,0l.888-1.35.551.111a2.612,2.612,0,0,0,2.737-1.223,3.268,3.268,0,0,0-.092-3.657l-.26-.359a2.954,2.954,0,0,0,1.088-1.492,3.249,3.249,0,0,0-.7-3.29Zm1.024,4.666a1.218,1.218,0,0,1-.926.866.8.8,0,0,0-.535,1.266l.854,1.178a1.652,1.652,0,0,1,.04,1.847,1.024,1.024,0,0,1-1.07.516l-1.084-.217a.8.8,0,0,0-.826.346l-1.189,1.8a1.9,1.9,0,0,1-3.31,0l-1.186-1.8a.8.8,0,0,0-.829-.346L71.5,54.24a1.021,1.021,0,0,1-1.07-.516,1.652,1.652,0,0,1,.04-1.847l.854-1.178a.8.8,0,0,0-.535-1.266,1.218,1.218,0,0,1-.927-.866,1.642,1.642,0,0,1,.33-1.652l2.658-2.726h2.6v6.979a.8.8,0,1,0,1.606,0V44.187h2.6l2.658,2.726A1.64,1.64,0,0,1,82.645,48.566Z" transform="translate(-47.598 0)"/>
    </g>
  </g>
</svg>
