<svg xmlns="http://www.w3.org/2000/svg" width="56.83" height="63.992" viewBox="0 0 56.83 63.992">
  <g id="Grupo_1112198" data-name="Grupo 1112198" transform="translate(-5.585 -2.004)">
    <g id="Grupo_1112159" data-name="Grupo 1112159">
      <g id="Grupo_1112155" data-name="Grupo 1112155">
        <g id="Grupo_1112153" data-name="Grupo 1112153">
          <path id="Trazado_903488" data-name="Trazado 903488" d="M26.591,13.157a27.162,27.162,0,0,1,2.524-8.178A1.374,1.374,0,0,0,28.052,3l-2.205-.236A1.35,1.35,0,0,0,24.394,3.78a27.313,27.313,0,0,0-.625,9.377" fill="#77e244"/>
        </g>
        <g id="Grupo_1112154" data-name="Grupo 1112154">
          <path id="Trazado_903489" data-name="Trazado 903489" d="M29.115,4.978a27.028,27.028,0,0,0-2.521,8.179H24.712a27.352,27.352,0,0,1,2.521-8.179A1.366,1.366,0,0,0,26.172,3l-1.05-.114a1.4,1.4,0,0,1,.719-.126L28.054,3a1.366,1.366,0,0,1,1.061,1.973Z" fill="#62d333"/>
        </g>
      </g>
      <g id="Grupo_1112156" data-name="Grupo 1112156">
        <path id="Trazado_903490" data-name="Trazado 903490" d="M44.246,43.123A19.2,19.2,0,0,1,25.283,62.565,19.194,19.194,0,0,1,6.331,43.123a19.638,19.638,0,0,1,4.349-12.385A18.42,18.42,0,0,0,15.009,19.2v-.1A10.319,10.319,0,0,1,25.418,9a10.52,10.52,0,0,1,7.133,2.855,9.482,9.482,0,0,1,3.018,6.9v.44A18.42,18.42,0,0,0,39.9,30.738a19.638,19.638,0,0,1,4.349,12.385Z" fill="#77e244"/>
      </g>
      <g id="Grupo_1112157" data-name="Grupo 1112157">
        <path id="Trazado_903491" data-name="Trazado 903491" d="M44.249,43.121A19.2,19.2,0,0,1,25.285,62.563,18.521,18.521,0,0,1,17.171,60.7a18.622,18.622,0,0,0,2.243.134A19.2,19.2,0,0,0,38.378,41.392,19.678,19.678,0,0,0,34.033,29,18.385,18.385,0,0,1,29.7,17.465V17.03a9.483,9.483,0,0,0-3.018-6.9A9.063,9.063,0,0,0,25.25,9h.164a10.558,10.558,0,0,1,7.139,2.856,9.483,9.483,0,0,1,3.018,6.9v.446a18.439,18.439,0,0,0,4.321,11.534,19.588,19.588,0,0,1,4.356,12.382Z" fill="#62d333"/>
      </g>
      <g id="Grupo_1112158" data-name="Grupo 1112158" opacity="0.3">
        <path id="Trazado_903492" data-name="Trazado 903492" d="M18,35.631c-2.329,3.29-4.481,6.14-6,5.062s-1.556-5.3.773-8.595,6.142-4.405,7.666-3.327S20.335,32.33,18,35.631Z" fill="#fff"/>
      </g>
    </g>
    <g id="Grupo_1112197" data-name="Grupo 1112197">
      <g id="Grupo_1112160" data-name="Grupo 1112160">
        <path id="Trazado_903493" data-name="Trazado 903493" d="M55.842,55.357A19.2,19.2,0,0,1,29.721,62.8,19.194,19.194,0,0,1,22.946,36.5a19.638,19.638,0,0,1,9.932-8.582,18.42,18.42,0,0,0,9.491-7.857l.049-.086a10.319,10.319,0,0,1,14.054-3.587,10.52,10.52,0,0,1,4.769,6.024,9.482,9.482,0,0,1-.815,7.491l-.219.382a18.42,18.42,0,0,0-1.982,12.161,19.638,19.638,0,0,1-2.385,12.908Z" fill="#77e244"/>
      </g>
      <g id="Grupo_1112161" data-name="Grupo 1112161">
        <path id="Trazado_903494" data-name="Trazado 903494" d="M55.845,55.356a19.2,19.2,0,0,1-26.121,7.439,18.521,18.521,0,0,1-6.113-5.651,18.623,18.623,0,0,0,1.879,1.231,19.2,19.2,0,0,0,26.121-7.439A19.678,19.678,0,0,0,54,38.024,18.385,18.385,0,0,1,55.98,25.863l.216-.377a9.483,9.483,0,0,0,.815-7.491,9.063,9.063,0,0,0-.683-1.69l.143.082a10.558,10.558,0,0,1,4.774,6.027A9.482,9.482,0,0,1,60.43,29.9l-.222.387a18.439,18.439,0,0,0-1.986,12.155,19.588,19.588,0,0,1-2.377,12.909Z" fill="#62d333"/>
      </g>
      <g id="Grupo_1112162" data-name="Grupo 1112162">
        <path id="Trazado_903495" data-name="Trazado 903495" d="M31.352,59.951a15.942,15.942,0,0,1-5.561-21.817,16.461,16.461,0,0,1,8.275-7.156,21.572,21.572,0,0,0,11.148-9.283,7.027,7.027,0,0,1,9.519-2.523A7.281,7.281,0,0,1,58.1,23.354a6.218,6.218,0,0,1-.518,4.921l-.219.382a21.572,21.572,0,0,0-2.374,14.311A16.461,16.461,0,0,1,53,53.726a15.948,15.948,0,0,1-21.646,6.225Z" fill="#fc3"/>
      </g>
      <g id="Grupo_1112163" data-name="Grupo 1112163">
        <path id="Trazado_903496" data-name="Trazado 903496" d="M53,53.722a15.945,15.945,0,0,1-21.644,6.225,15.228,15.228,0,0,1-1.571-1.039,16.013,16.013,0,0,0,19.963-7.05A16.416,16.416,0,0,0,51.726,41.1,21.619,21.619,0,0,1,54.106,26.8l.223-.389a6.212,6.212,0,0,0,.515-4.92A6.931,6.931,0,0,0,53,18.48a6.505,6.505,0,0,1,1.733.691,7.308,7.308,0,0,1,3.37,4.186,6.243,6.243,0,0,1-.524,4.915l-.223.389a21.57,21.57,0,0,0-2.37,14.312A16.4,16.4,0,0,1,53,53.722Z" fill="#fcb910"/>
      </g>
      <g id="Grupo_1112164" data-name="Grupo 1112164">
        <path id="Trazado_903497" data-name="Trazado 903497" d="M48.08,49.307c-3.5,6.106-9.915,9-14.337,6.468s-5.154-9.527-1.655-15.633S42,31.15,46.409,33.677s5.165,9.534,1.671,15.63Z" fill="#f93"/>
      </g>
      <g id="Grupo_1112165" data-name="Grupo 1112165">
        <path id="Trazado_903498" data-name="Trazado 903498" d="M50.227,40.269A7.152,7.152,0,0,0,47.342,37.1c-4.409-2.527-10.83.368-14.324,6.465a15.54,15.54,0,0,0-2.149,9.047c-1.613-3.318-1.276-8.125,1.218-12.478,3.494-6.1,9.915-8.992,14.324-6.465a8.208,8.208,0,0,1,3.816,6.6Z" fill="#ff8b22"/>
      </g>
      <g id="Grupo_1112168" data-name="Grupo 1112168">
        <g id="Grupo_1112166" data-name="Grupo 1112166">
          <path id="Trazado_903499" data-name="Trazado 903499" d="M48.049,37.991a2.194,2.194,0,1,1-.82-2.98A2.191,2.191,0,0,1,48.049,37.991Z" fill="#666"/>
        </g>
        <g id="Grupo_1112167" data-name="Grupo 1112167">
          <path id="Trazado_903500" data-name="Trazado 903500" d="M48.051,37.993a2.2,2.2,0,0,1-4.081-1.407,2.29,2.29,0,0,0,.325.224,2.2,2.2,0,0,0,3-.814,2.1,2.1,0,0,0,.259-.759,2.181,2.181,0,0,1,.5,2.755Z" fill="#595857"/>
        </g>
      </g>
      <g id="Grupo_1112171" data-name="Grupo 1112171">
        <g id="Grupo_1112169" data-name="Grupo 1112169">
          <path id="Trazado_903501" data-name="Trazado 903501" d="M42.11,38.534a2.194,2.194,0,1,1-.82-2.98A2.191,2.191,0,0,1,42.11,38.534Z" fill="#666"/>
        </g>
        <g id="Grupo_1112170" data-name="Grupo 1112170">
          <path id="Trazado_903502" data-name="Trazado 903502" d="M42.112,38.537a2.2,2.2,0,0,1-4.081-1.407,2.289,2.289,0,0,0,.325.224,2.2,2.2,0,0,0,3-.814,2.1,2.1,0,0,0,.259-.759,2.181,2.181,0,0,1,.5,2.755Z" fill="#595857"/>
        </g>
      </g>
      <g id="Grupo_1112174" data-name="Grupo 1112174">
        <g id="Grupo_1112172" data-name="Grupo 1112172">
          <path id="Trazado_903503" data-name="Trazado 903503" d="M44.612,44.589a2.194,2.194,0,1,1-.82-2.98A2.191,2.191,0,0,1,44.612,44.589Z" fill="#666"/>
        </g>
        <g id="Grupo_1112173" data-name="Grupo 1112173">
          <path id="Trazado_903504" data-name="Trazado 903504" d="M44.614,44.592a2.2,2.2,0,0,1-4.081-1.407,2.288,2.288,0,0,0,.325.224,2.2,2.2,0,0,0,3-.814,2.1,2.1,0,0,0,.259-.759A2.181,2.181,0,0,1,44.614,44.592Z" fill="#595857"/>
        </g>
      </g>
      <g id="Grupo_1112177" data-name="Grupo 1112177">
        <g id="Grupo_1112175" data-name="Grupo 1112175">
          <path id="Trazado_903505" data-name="Trazado 903505" d="M49.69,44.524a2.194,2.194,0,1,1-.82-2.98A2.191,2.191,0,0,1,49.69,44.524Z" fill="#666"/>
        </g>
        <g id="Grupo_1112176" data-name="Grupo 1112176">
          <path id="Trazado_903506" data-name="Trazado 903506" d="M49.692,44.527a2.2,2.2,0,0,1-4.081-1.407,2.289,2.289,0,0,0,.325.224,2.2,2.2,0,0,0,3-.814,2.1,2.1,0,0,0,.259-.759,2.181,2.181,0,0,1,.5,2.755Z" fill="#595857"/>
        </g>
      </g>
      <g id="Grupo_1112180" data-name="Grupo 1112180">
        <g id="Grupo_1112178" data-name="Grupo 1112178">
          <path id="Trazado_903507" data-name="Trazado 903507" d="M39.128,43.266a2.194,2.194,0,1,1-.82-2.98A2.191,2.191,0,0,1,39.128,43.266Z" fill="#666"/>
        </g>
        <g id="Grupo_1112179" data-name="Grupo 1112179">
          <path id="Trazado_903508" data-name="Trazado 903508" d="M39.13,43.269a2.2,2.2,0,0,1-4.081-1.407,2.288,2.288,0,0,0,.325.224,2.2,2.2,0,0,0,3-.814,2.1,2.1,0,0,0,.259-.759,2.181,2.181,0,0,1,.5,2.755Z" fill="#595857"/>
        </g>
      </g>
      <g id="Grupo_1112183" data-name="Grupo 1112183">
        <g id="Grupo_1112181" data-name="Grupo 1112181">
          <path id="Trazado_903509" data-name="Trazado 903509" d="M41.244,48.4a2.194,2.194,0,1,1-.82-2.98A2.191,2.191,0,0,1,41.244,48.4Z" fill="#666"/>
        </g>
        <g id="Grupo_1112182" data-name="Grupo 1112182">
          <path id="Trazado_903510" data-name="Trazado 903510" d="M41.246,48.406A2.2,2.2,0,0,1,37.165,47a2.29,2.29,0,0,0,.325.224,2.2,2.2,0,0,0,3-.814,2.1,2.1,0,0,0,.259-.759,2.181,2.181,0,0,1,.5,2.755Z" fill="#595857"/>
        </g>
      </g>
      <g id="Grupo_1112186" data-name="Grupo 1112186">
        <g id="Grupo_1112184" data-name="Grupo 1112184">
          <path id="Trazado_903511" data-name="Trazado 903511" d="M46.36,50.485a2.194,2.194,0,1,1-.82-2.98A2.191,2.191,0,0,1,46.36,50.485Z" fill="#666"/>
        </g>
        <g id="Grupo_1112185" data-name="Grupo 1112185">
          <path id="Trazado_903512" data-name="Trazado 903512" d="M46.362,50.488a2.2,2.2,0,0,1-4.081-1.407,2.289,2.289,0,0,0,.325.224,2.2,2.2,0,0,0,3-.814,2.1,2.1,0,0,0,.259-.759,2.181,2.181,0,0,1,.5,2.755Z" fill="#595857"/>
        </g>
      </g>
      <g id="Grupo_1112189" data-name="Grupo 1112189">
        <g id="Grupo_1112187" data-name="Grupo 1112187">
          <path id="Trazado_903513" data-name="Trazado 903513" d="M36.734,51.857a2.194,2.194,0,1,1-.82-2.98A2.191,2.191,0,0,1,36.734,51.857Z" fill="#666"/>
        </g>
        <g id="Grupo_1112188" data-name="Grupo 1112188">
          <path id="Trazado_903514" data-name="Trazado 903514" d="M36.736,51.86a2.2,2.2,0,0,1-4.081-1.407,2.289,2.289,0,0,0,.325.224,2.2,2.2,0,0,0,3-.814,2.1,2.1,0,0,0,.259-.759,2.181,2.181,0,0,1,.5,2.755Z" fill="#595857"/>
        </g>
      </g>
      <g id="Grupo_1112192" data-name="Grupo 1112192">
        <g id="Grupo_1112190" data-name="Grupo 1112190">
          <path id="Trazado_903515" data-name="Trazado 903515" d="M34.938,47.306a2.194,2.194,0,1,1-.82-2.98A2.191,2.191,0,0,1,34.938,47.306Z" fill="#666"/>
        </g>
        <g id="Grupo_1112191" data-name="Grupo 1112191">
          <path id="Trazado_903516" data-name="Trazado 903516" d="M34.94,47.309A2.2,2.2,0,0,1,30.859,45.9a2.289,2.289,0,0,0,.325.224,2.2,2.2,0,0,0,3-.814,2.1,2.1,0,0,0,.259-.759A2.181,2.181,0,0,1,34.94,47.309Z" fill="#595857"/>
        </g>
      </g>
      <g id="Grupo_1112196" data-name="Grupo 1112196">
        <g id="Grupo_1112193" data-name="Grupo 1112193">
          <path id="Trazado_903517" data-name="Trazado 903517" d="M40.671,54.6a2.194,2.194,0,1,1-.82-2.98A2.191,2.191,0,0,1,40.671,54.6Z" fill="#666"/>
        </g>
        <g id="Grupo_1112194" data-name="Grupo 1112194">
          <path id="Trazado_903518" data-name="Trazado 903518" d="M40.673,54.6a2.2,2.2,0,0,1-4.081-1.407,2.289,2.289,0,0,0,.325.224,2.2,2.2,0,0,0,3-.814,2.1,2.1,0,0,0,.259-.759,2.181,2.181,0,0,1,.5,2.755Z" fill="#595857"/>
        </g>
        <g id="Grupo_1112195" data-name="Grupo 1112195">
          <path id="Trazado_903519" data-name="Trazado 903519" d="M14.862,51.064a.75.75,0,1,0-1.334.686l.279.543a.75.75,0,1,0,1.334-.686Z" fill="#060606"/>
          <path id="Trazado_903520" data-name="Trazado 903520" d="M14.314,47.666a.75.75,0,0,0,.667-1.093l-.279-.543a.75.75,0,0,0-1.334.686l.279.543A.749.749,0,0,0,14.314,47.666Z" fill="#060606"/>
          <path id="Trazado_903521" data-name="Trazado 903521" d="M18.3,48.609a.75.75,0,1,0-1.334.686l.279.543a.75.75,0,1,0,1.334-.686Z" fill="#060606"/>
          <path id="Trazado_903522" data-name="Trazado 903522" d="M56.855,15.746a11.066,11.066,0,0,0-15.14,3.95,16.264,16.264,0,0,1-4.41,4.92,16.06,16.06,0,0,1-.99-5.41v-.44a10.59,10.59,0,0,0-7.89-10.08,25.818,25.818,0,0,1,1.36-3.37,2.122,2.122,0,0,0-1.65-3.06l-2.21-.24a2.111,2.111,0,0,0-2.26,1.59,27.2,27.2,0,0,0-.72,4.91,11.043,11.043,0,0,0-8.69,10.69,17.594,17.594,0,0,1-4.16,11.06,20.508,20.508,0,0,0-4.51,12.86,19.969,19.969,0,0,0,19.7,20.19,18.579,18.579,0,0,0,3.36-.32c.24.15.46.31.7.45a19.99,19.99,0,0,0,27.15-7.72,20.461,20.461,0,0,0,2.47-13.4,17.611,17.611,0,0,1,1.89-11.67l.22-.38a10.759,10.759,0,0,0-4.22-14.53ZM25.125,3.956a.6.6,0,0,1,.64-.45l2.21.24a.626.626,0,0,1,.47.9,26.788,26.788,0,0,0-1.5,3.74,9.267,9.267,0,0,0-1.65-.13c-.28,0-.56.02-.83.04a25.584,25.584,0,0,1,.66-4.34Zm.16,57.86a18.471,18.471,0,0,1-18.2-18.69,18.994,18.994,0,0,1,4.18-11.92,19.1,19.1,0,0,0,4.49-12.1,9.563,9.563,0,0,1,9.54-9.35,9.933,9.933,0,0,1,6.74,2.65,8.683,8.683,0,0,1,2.78,6.36v.44a17.667,17.667,0,0,0,1.22,6.29,20.773,20.773,0,0,1-3.43,1.73A20.546,20.546,0,0,0,20.2,51.376a19.418,19.418,0,0,0,6.68,10.36c-.53.05-1.05.08-1.59.08Zm34.49-32.28-.22.38a19.117,19.117,0,0,0-2.07,12.65,19.012,19.012,0,0,1-2.29,12.42,18.489,18.489,0,0,1-25.1,7.16,17.851,17.851,0,0,1-8.45-11.14,19.066,19.066,0,0,1,11.51-22.39,19.109,19.109,0,0,0,9.91-8.26,9.572,9.572,0,0,1,13.03-3.32,9.28,9.28,0,0,1,3.68,12.5Z" fill="#060606"/>
          <path id="Trazado_903523" data-name="Trazado 903523" d="M55.106,18.522a7.77,7.77,0,0,0-10.543,2.8,20.827,20.827,0,0,1-10.769,8.956A17.221,17.221,0,0,0,25.14,37.76,16.693,16.693,0,0,0,30.979,60.6c8.008,4.59,18.118,1.44,22.669-6.5A17.216,17.216,0,0,0,55.73,42.85a20.834,20.834,0,0,1,2.284-13.819l.22-.382c1.908-3.329.743-7.849-3.127-10.127ZM56.932,27.9l-.22.382a22.318,22.318,0,0,0-2.464,14.8,15.7,15.7,0,0,1-1.9,10.265A15.188,15.188,0,0,1,31.725,59.3a15.192,15.192,0,0,1-5.283-20.794,15.711,15.711,0,0,1,7.9-6.83,22.309,22.309,0,0,0,11.527-9.608,6.271,6.271,0,0,1,8.488-2.249A6.007,6.007,0,0,1,56.932,27.9Z" fill="#060606"/>
          <path id="Trazado_903524" data-name="Trazado 903524" d="M46.782,33.027c-4.766-2.73-11.647.295-15.343,6.742S28.607,53.7,33.371,56.426a7.8,7.8,0,0,0,3.921,1.021c3.663,0,8.388-2.443,11.439-7.768a16.162,16.162,0,0,0,2.228-9.6,8.854,8.854,0,0,0-4.177-7.05Zm.287,11.659a1.435,1.435,0,1,1,1.97-.535h0a1.439,1.439,0,0,1-1.97.534Zm-.213-9.025a1.436,1.436,0,1,1-1.962.521,1.437,1.437,0,0,1,1.962-.521ZM32.741,40.515c2.658-4.638,8.146-8.487,12.729-6.462a2.907,2.907,0,0,0-1.878,1.383,2.944,2.944,0,1,0,5.324,2.447,9.641,9.641,0,0,1,.552,2.353c.03.281.042.567.052.854a2.842,2.842,0,0,0-4.287.88c-.007.012-.01.025-.017.037a2.924,2.924,0,0,0-5.06.025,2.85,2.85,0,0,0-.7-1.744,2.965,2.965,0,1,0-1.465-.928,2.924,2.924,0,0,0-3.112,4.59,2.979,2.979,0,0,0-.387-.274,2.944,2.944,0,0,0-3.208.183,16.583,16.583,0,0,1,1.458-3.343Zm1.546,6.418a1.443,1.443,0,1,1-.542-1.957A1.439,1.439,0,0,1,34.287,46.933Zm-.708,3.116a1.443,1.443,0,1,1,.535,1.97,1.435,1.435,0,0,1-.535-1.97Zm6.441,4.177a1.443,1.443,0,1,1-.542-1.957A1.444,1.444,0,0,1,40.02,54.226Zm-3.233-8.377a2.933,2.933,0,0,0-.134,2.637,2.582,2.582,0,0,0-1.229-.575c.055-.077.117-.148.165-.232a2.923,2.923,0,0,0-.216-3.228,2.786,2.786,0,0,0,1.847.667c.071,0,.14-.022.211-.027a2.883,2.883,0,0,0-.644.758Zm2.168-9.124a1.443,1.443,0,1,1,.534,1.971A1.437,1.437,0,0,1,38.955,36.725Zm-.478,6.168a1.443,1.443,0,1,1-.542-1.957A1.445,1.445,0,0,1,38.477,42.893Zm-.389,3.7a1.443,1.443,0,1,1,.534,1.971A1.437,1.437,0,0,1,38.089,46.6Zm1.047-2.206a2.892,2.892,0,0,0,.636-.74,2.943,2.943,0,0,0,.1.62c.018.066.05.126.072.19a2.936,2.936,0,0,0-.8-.07Zm2.321-1.609a1.443,1.443,0,1,1,.534,1.969A1.437,1.437,0,0,1,41.456,42.781ZM30.635,47.906a2.788,2.788,0,0,0,1.8,1.177c-.052.074-.111.141-.157.22a2.947,2.947,0,0,0,1.09,4.017,2.858,2.858,0,0,0,2.467.2,2.846,2.846,0,0,0,1.289,2.413,6.291,6.291,0,0,1-3.006-.808c-2.321-1.331-3.507-4.056-3.482-7.22ZM41.358,54.89a2.929,2.929,0,0,0-3.6-4.125,2.5,2.5,0,0,0-.245-1.159,2.844,2.844,0,0,0,4.017-.356A2.8,2.8,0,0,0,44.9,52.28,13.41,13.41,0,0,1,41.358,54.89Zm4.351-4.779a1.443,1.443,0,1,1-.542-1.957A1.445,1.445,0,0,1,45.709,50.112Zm1.653-1.069a2.885,2.885,0,0,0-1.449-2.189,2.936,2.936,0,0,0-3.648.58,2.41,2.41,0,0,0-.162-1.07,2.848,2.848,0,0,0,3.159-1.4c0-.008.006-.016.011-.024a2.906,2.906,0,0,0,1.05,1.049,2.875,2.875,0,0,0,2.342.248A16.164,16.164,0,0,1,47.362,49.043Z" fill="#060606"/>
        </g>
      </g>
    </g>
  </g>
</svg>
