<svg xmlns="http://www.w3.org/2000/svg" width="124" height="124" viewBox="0 0 124 124">
  <g id="Grupo_1111140" data-name="Grupo 1111140" transform="translate(-335.781 -3833)">
    <g id="Grupo_1098742" data-name="Grupo 1098742" transform="translate(335.781 3833)">
      <g id="Rectángulo_400898" data-name="Rectángulo 400898" transform="translate(0 0)" fill="#b4d1f0" stroke="#fff" stroke-width="3" opacity="0.859">
        <rect width="124" height="124" rx="62" stroke="none"/>
        <rect x="1.5" y="1.5" width="121" height="121" rx="60.5" fill="none"/>
      </g>
      <g id="Rectángulo_400907" data-name="Rectángulo 400907" transform="translate(0 0)" fill="none" stroke="#fff" stroke-width="3">
        <rect width="124" height="124" rx="62" stroke="none"/>
        <rect x="1.5" y="1.5" width="121" height="121" rx="60.5" fill="none"/>
      </g>
    </g>
    <g id="Grupo_1112510" data-name="Grupo 1112510" transform="translate(361.226 3858.385)">
      <path id="Trazado_904691" data-name="Trazado 904691" d="M173.773,190.262V168.326h-1.443A4.329,4.329,0,0,1,168,164v-22.75a2.886,2.886,0,0,1,1.6-2.582L176.082,136h9.236l6.486,2.666a2.886,2.886,0,0,1,1.6,2.582V164a4.329,4.329,0,0,1-4.329,4.329h-1.443v21.936Z" transform="translate(-144.144 -116.703)" fill="#80daff"/>
      <path id="Trazado_904692" data-name="Trazado 904692" d="M233.236,94.927l-4.618,4.618L224,94.927,226.309,88h4.618Z" transform="translate(-192.063 -75.63)" fill="#ffd4cf"/>
      <path id="Trazado_904693" data-name="Trazado 904693" d="M235.416,88H230.8l-1.552,4.656,1.039.624a5.484,5.484,0,0,0,5.643,0l1.039-.624Z" transform="translate(-196.552 -75.63)" fill="#fbb8b0"/>
      <path id="Trazado_904694" data-name="Trazado 904694" d="M223.216,8h-2.886A4.329,4.329,0,0,0,216,12.329v6.061a2.886,2.886,0,0,0,1.4,2.475l2.886,1.732a2.886,2.886,0,0,0,2.97,0l2.886-1.732a2.886,2.886,0,0,0,1.4-2.475V12.329A4.329,4.329,0,0,0,223.216,8Z" transform="translate(-185.217 -7.175)" fill="#ffd4cf"/>
      <circle id="Elipse_12150" data-name="Elipse 12150" cx="5.773" cy="5.773" r="5.773" transform="translate(0.765 30.843)" fill="#ff6672"/>
      <circle id="Elipse_12151" data-name="Elipse 12151" cx="5.773" cy="5.773" r="5.773" transform="translate(60.8 30.843)" fill="#ff6672"/>
      <circle id="Elipse_12152" data-name="Elipse 12152" cx="10.391" cy="10.391" r="10.391" transform="translate(0.765 0.825)" fill="#ff6672"/>
      <path id="Trazado_904695" data-name="Trazado 904695" d="M45.772,58.391l-4.927-5.2a3.161,3.161,0,0,1,0-4.3,2.782,2.782,0,0,1,4.082,0l.845.891.845-.891a2.782,2.782,0,0,1,4.082,0,3.161,3.161,0,0,1,0,4.3Z" transform="translate(-34.617 -41.402)" fill="#ffefed"/>
      <circle id="Elipse_12153" data-name="Elipse 12153" cx="10.391" cy="10.391" r="10.391" transform="translate(51.564 51.624)" fill="#ff6672"/>
      <circle id="Elipse_12154" data-name="Elipse 12154" cx="10.391" cy="10.391" r="10.391" transform="translate(0.765 51.624)" fill="#ff6672"/>
      <path id="Trazado_904696" data-name="Trazado 904696" d="M57.236,398.927a4.618,4.618,0,0,1-9.236,0c0-2.55,4.618-6.927,4.618-6.927S57.236,396.377,57.236,398.927Z" transform="translate(-41.462 -335.758)" fill="#ffefed"/>
      <circle id="Elipse_12155" data-name="Elipse 12155" cx="10.391" cy="10.391" r="10.391" transform="translate(51.564 0.825)" fill="#ff6672"/>
      <circle id="Elipse_12156" data-name="Elipse 12156" cx="3.464" cy="3.464" r="3.464" transform="translate(58.491 7.752)" fill="#ffefed"/>
      <g id="Grupo_1112509" data-name="Grupo 1112509" transform="translate(-0.455 -0.385)">
        <path id="Trazado_904697" data-name="Trazado 904697" d="M187.708,24.874a4.019,4.019,0,0,0-2.234-3.614c-.025-.013-.051-.025-.077-.035l-6-2.465-1.139-3.415.558-.335a4.061,4.061,0,0,0,1.962-3.465V5.484A5.49,5.49,0,0,0,175.3,0h-2.886a5.49,5.49,0,0,0-5.484,5.484v6.061a4.061,4.061,0,0,0,1.962,3.465l.558.335-1.138,3.415-6,2.465c-.026.011-.052.023-.077.035A4.019,4.019,0,0,0,160,24.874v3.989h2.309V24.874a1.722,1.722,0,0,1,.924-1.532l5.731-2.355,4.074,4.074a1.155,1.155,0,0,0,1.633,0l4.074-4.074,5.731,2.355a1.722,1.722,0,0,1,.924,1.532v22.75a3.179,3.179,0,0,1-3.175,3.175h-.289V36.944h-2.309v25.4h2.309V53.108h.289a5.49,5.49,0,0,0,5.484-5.484ZM169.236,5.484a3.179,3.179,0,0,1,3.175-3.175H175.3a3.179,3.179,0,0,1,3.175,3.175v6.061a1.74,1.74,0,0,1-.841,1.485l-2.886,1.732a1.729,1.729,0,0,1-1.782,0l-2.886-1.732a1.74,1.74,0,0,1-.841-1.485Zm4.618,17.128-3.3-3.3.918-2.753.3.18a4.034,4.034,0,0,0,4.158,0l.3-.18.918,2.753Z" transform="translate(-136.844 0.056)"/>
        <path id="Trazado_904698" data-name="Trazado 904698" d="M165.773,235.627h-.289a3.178,3.178,0,0,1-3.175-3.175V216H160v16.452a5.49,5.49,0,0,0,5.484,5.484h.289v20.781h2.309V221.773h-2.309Z" transform="translate(-136.844 -184.773)"/>
        <rect id="Rectángulo_405158" data-name="Rectángulo 405158" width="2.309" height="9.236" transform="translate(42.783 64.708)"/>
        <rect id="Rectángulo_405159" data-name="Rectángulo 405159" width="2.309" height="25.399" transform="translate(35.856 48.545)"/>
        <path id="Trazado_904699" data-name="Trazado 904699" d="M6.93,221.851a6.938,6.938,0,0,0,6.831-5.773h7.023v-2.309H13.761a6.927,6.927,0,1,0-6.831,8.082Zm0-11.545a4.618,4.618,0,1,1-4.618,4.618,4.618,4.618,0,0,1,4.618-4.618Z" transform="translate(0.063 -177.924)"/>
        <path id="Trazado_904700" data-name="Trazado 904700" d="M381.854,208a6.938,6.938,0,0,0-6.831,5.773H368v2.309h7.023A6.927,6.927,0,1,0,381.854,208Zm0,11.545a4.618,4.618,0,1,1,4.618-4.618A4.618,4.618,0,0,1,381.854,219.545Z" transform="translate(-314.827 -177.927)"/>
        <path id="Trazado_904701" data-name="Trazado 904701" d="M11.538,23.149A11.476,11.476,0,0,0,17.488,21.5l2.47,2.47,1.633-1.633L19.353,20.1a11.54,11.54,0,1,0-7.815,3.054Zm0-20.781A9.236,9.236,0,1,1,2.3,11.6a9.236,9.236,0,0,1,9.236-9.236Z" transform="translate(0.072 -0.003)"/>
        <path id="Trazado_904702" data-name="Trazado 904702" d="M38.128,52.34a1.155,1.155,0,0,0,1.675,0l4.927-5.2a4.334,4.334,0,0,0,0-5.893,3.936,3.936,0,0,0-5.757,0l-.008.008-.008-.008a3.937,3.937,0,0,0-5.757,0,4.334,4.334,0,0,0,0,5.893Zm-3.252-9.5a1.628,1.628,0,0,1,2.407,0l.845.891a1.155,1.155,0,0,0,1.675,0l.845-.891a1.628,1.628,0,0,1,2.407,0,2,2,0,0,1,0,2.715l-4.09,4.312-4.09-4.311A2,2,0,0,1,34.876,42.841Z" transform="translate(-27.355 -34.172)"/>
        <path id="Trazado_904703" data-name="Trazado 904703" d="M363.61,347.159a11.476,11.476,0,0,0-5.949,1.654l-2.47-2.47-1.633,1.633,2.238,2.238a11.539,11.539,0,1,0,7.815-3.054Zm0,20.781a9.236,9.236,0,1,1,9.236-9.236A9.236,9.236,0,0,1,363.61,367.941Z" transform="translate(-301.2 -296.305)"/>
        <path id="Trazado_904704" data-name="Trazado 904704" d="M393.005,392.462a1.155,1.155,0,0,0-2.044.413l-1.189,4.756-.034-.138a1.155,1.155,0,0,0-1.12-.875H384v2.309h3.717l.936,3.744a1.155,1.155,0,0,0,2.24,0l1.721-6.883,2.008,2.678a1.154,1.154,0,0,0,.924.462h2.309v-2.309h-1.732Z" transform="translate(-328.518 -335.373)"/>
        <path id="Trazado_904705" data-name="Trazado 904705" d="M18.971,350.214l2.238-2.238-1.633-1.633-2.47,2.47a11.578,11.578,0,1,0,1.865,1.4Zm-7.815,17.727a9.236,9.236,0,1,1,9.236-9.236,9.236,9.236,0,0,1-9.236,9.236Z" transform="translate(0.455 -296.305)"/>
        <path id="Trazado_904706" data-name="Trazado 904706" d="M46.566,384.316a1.154,1.154,0,0,0-1.588,0c-.831.788-4.978,4.864-4.978,7.765a5.773,5.773,0,1,0,11.545,0C51.545,389.181,47.4,385.1,46.566,384.316Zm-.794,11.229a3.467,3.467,0,0,1-3.464-3.464c0-1.211,1.828-3.586,3.464-5.3,1.636,1.711,3.464,4.085,3.464,5.3A3.467,3.467,0,0,1,45.773,395.545Z" transform="translate(-34.162 -328.528)"/>
        <path id="Trazado_904707" data-name="Trazado 904707" d="M355.724,19.707l-2.238,2.238,1.633,1.633,2.47-2.47a11.578,11.578,0,1,0-1.865-1.4ZM363.539,1.98a9.236,9.236,0,1,1-9.236,9.236,9.236,9.236,0,0,1,9.236-9.236Z" transform="translate(-301.129 0.385)"/>
        <path id="Trazado_904708" data-name="Trazado 904708" d="M387.586,43.39l2.129-1.229a4.619,4.619,0,0,0,2.139,1.238v2.455h2.309V43.4a4.619,4.619,0,0,0,2.139-1.238l2.129,1.229,1.155-2-2.126-1.228a4.628,4.628,0,0,0,0-2.472l2.126-1.228-1.155-2L396.3,35.693a4.619,4.619,0,0,0-2.139-1.238V32h-2.309v2.455a4.619,4.619,0,0,0-2.139,1.238l-2.129-1.229-1.155,2,2.126,1.228a4.629,4.629,0,0,0,0,2.472l-2.126,1.228Zm5.422-6.772a2.309,2.309,0,1,1-2.309,2.309A2.309,2.309,0,0,1,393.007,36.618Z" transform="translate(-330.598 -27.326)"/>
      </g>
    </g>
  </g>
</svg>
