<svg xmlns="http://www.w3.org/2000/svg" xmlns:xlink="http://www.w3.org/1999/xlink" width="190" height="67.306" viewBox="0 0 190 67.306">
  <defs>
    <clipPath id="clip-path">
      <rect id="Rectángulo_400902" data-name="Rectángulo 400902" width="38.221" height="33.885" fill="#997b4d"/>
    </clipPath>
  </defs>
  <g id="Grupo_1107841" data-name="Grupo 1107841" transform="translate(-1230 -405)">
    <rect id="Rectángulo_402716" data-name="Rectángulo 402716" width="190" height="47" rx="10" transform="translate(1230 405)" fill="#fed57b"/>
    <g id="Rectángulo_402718" data-name="Rectángulo 402718" transform="translate(1246 415)" fill="none" stroke="#b09455" stroke-width="1">
      <rect width="158" height="49" stroke="none"/>
      <rect x="0.5" y="0.5" width="157" height="48" fill="none"/>
    </g>
    <g id="Grupo_1107842" data-name="Grupo 1107842" transform="translate(1357.923 422.795)">
      <g id="Grupo_1098724" data-name="Grupo 1098724" transform="translate(0 0)">
        <g id="Grupo_1098723" data-name="Grupo 1098723" clip-path="url(#clip-path)">
          <path id="Trazado_872910" data-name="Trazado 872910" d="M1.526.763A.763.763,0,1,1,.763,0a.763.763,0,0,1,.763.763" fill="#997b4d"/>
          <path id="Trazado_872911" data-name="Trazado 872911" d="M30.48.763A.763.763,0,1,1,29.717,0a.763.763,0,0,1,.763.763" transform="translate(-21.615)" fill="#997b4d"/>
          <path id="Trazado_872912" data-name="Trazado 872912" d="M59.433.763A.763.763,0,1,1,58.67,0a.763.763,0,0,1,.763.763" transform="translate(-43.229)" fill="#997b4d"/>
          <path id="Trazado_872913" data-name="Trazado 872913" d="M88.386.763A.763.763,0,1,1,87.623,0a.763.763,0,0,1,.763.763" transform="translate(-64.843)" fill="#997b4d"/>
          <path id="Trazado_872914" data-name="Trazado 872914" d="M117.339.763A.763.763,0,1,1,116.576,0a.763.763,0,0,1,.763.763" transform="translate(-86.457)" fill="#997b4d"/>
          <path id="Trazado_872915" data-name="Trazado 872915" d="M146.293.763A.763.763,0,1,1,145.53,0a.763.763,0,0,1,.763.763" transform="translate(-108.072)" fill="#997b4d"/>
          <path id="Trazado_872916" data-name="Trazado 872916" d="M1.526,32.678a.763.763,0,1,1-.763-.763.763.763,0,0,1,.763.763" transform="translate(0 -23.825)" fill="#997b4d"/>
          <path id="Trazado_872917" data-name="Trazado 872917" d="M30.48,32.678a.763.763,0,1,1-.763-.763.763.763,0,0,1,.763.763" transform="translate(-21.615 -23.825)" fill="#997b4d"/>
          <path id="Trazado_872918" data-name="Trazado 872918" d="M59.433,32.678a.763.763,0,1,1-.763-.763.763.763,0,0,1,.763.763" transform="translate(-43.229 -23.825)" fill="#997b4d"/>
          <path id="Trazado_872919" data-name="Trazado 872919" d="M88.386,32.678a.763.763,0,1,1-.763-.763.763.763,0,0,1,.763.763" transform="translate(-64.843 -23.825)" fill="#997b4d"/>
          <path id="Trazado_872920" data-name="Trazado 872920" d="M117.339,32.678a.763.763,0,1,1-.763-.763.763.763,0,0,1,.763.763" transform="translate(-86.457 -23.825)" fill="#997b4d"/>
          <path id="Trazado_872921" data-name="Trazado 872921" d="M146.293,32.678a.763.763,0,1,1-.763-.763.763.763,0,0,1,.763.763" transform="translate(-108.072 -23.825)" fill="#997b4d"/>
          <path id="Trazado_872922" data-name="Trazado 872922" d="M1.526,64.593a.763.763,0,1,1-.763-.763.763.763,0,0,1,.763.763" transform="translate(0 -47.651)" fill="#997b4d"/>
          <path id="Trazado_872923" data-name="Trazado 872923" d="M30.48,64.593a.763.763,0,1,1-.763-.763.763.763,0,0,1,.763.763" transform="translate(-21.615 -47.651)" fill="#997b4d"/>
          <path id="Trazado_872924" data-name="Trazado 872924" d="M59.433,64.593a.763.763,0,1,1-.763-.763.763.763,0,0,1,.763.763" transform="translate(-43.229 -47.651)" fill="#997b4d"/>
          <path id="Trazado_872925" data-name="Trazado 872925" d="M88.386,64.593a.763.763,0,1,1-.763-.763.763.763,0,0,1,.763.763" transform="translate(-64.843 -47.651)" fill="#997b4d"/>
          <path id="Trazado_872926" data-name="Trazado 872926" d="M117.339,64.593a.763.763,0,1,1-.763-.763.763.763,0,0,1,.763.763" transform="translate(-86.457 -47.651)" fill="#997b4d"/>
          <path id="Trazado_872927" data-name="Trazado 872927" d="M146.293,64.593a.763.763,0,1,1-.763-.763.763.763,0,0,1,.763.763" transform="translate(-108.072 -47.651)" fill="#997b4d"/>
          <path id="Trazado_872928" data-name="Trazado 872928" d="M1.526,96.508a.763.763,0,1,1-.763-.763.763.763,0,0,1,.763.763" transform="translate(0 -71.476)" fill="#997b4d"/>
          <path id="Trazado_872929" data-name="Trazado 872929" d="M30.48,96.508a.763.763,0,1,1-.763-.763.763.763,0,0,1,.763.763" transform="translate(-21.615 -71.476)" fill="#997b4d"/>
          <path id="Trazado_872930" data-name="Trazado 872930" d="M59.433,96.508a.763.763,0,1,1-.763-.763.763.763,0,0,1,.763.763" transform="translate(-43.229 -71.476)" fill="#997b4d"/>
          <path id="Trazado_872931" data-name="Trazado 872931" d="M88.386,96.508a.763.763,0,1,1-.763-.763.763.763,0,0,1,.763.763" transform="translate(-64.843 -71.476)" fill="#997b4d"/>
          <path id="Trazado_872932" data-name="Trazado 872932" d="M117.339,96.508a.763.763,0,1,1-.763-.763.763.763,0,0,1,.763.763" transform="translate(-86.457 -71.476)" fill="#997b4d"/>
          <path id="Trazado_872933" data-name="Trazado 872933" d="M146.293,96.508a.763.763,0,1,1-.763-.763.763.763,0,0,1,.763.763" transform="translate(-108.072 -71.476)" fill="#997b4d"/>
          <path id="Trazado_872934" data-name="Trazado 872934" d="M1.526,128.423a.763.763,0,1,1-.763-.763.763.763,0,0,1,.763.763" transform="translate(0 -95.301)" fill="#997b4d"/>
          <path id="Trazado_872935" data-name="Trazado 872935" d="M30.48,128.423a.763.763,0,1,1-.763-.763.763.763,0,0,1,.763.763" transform="translate(-21.615 -95.301)" fill="#997b4d"/>
          <path id="Trazado_872936" data-name="Trazado 872936" d="M59.433,128.423a.763.763,0,1,1-.763-.763.763.763,0,0,1,.763.763" transform="translate(-43.229 -95.301)" fill="#997b4d"/>
          <path id="Trazado_872937" data-name="Trazado 872937" d="M88.386,128.423a.763.763,0,1,1-.763-.763.763.763,0,0,1,.763.763" transform="translate(-64.843 -95.301)" fill="#997b4d"/>
          <path id="Trazado_872938" data-name="Trazado 872938" d="M117.339,128.423a.763.763,0,1,1-.763-.763.763.763,0,0,1,.763.763" transform="translate(-86.457 -95.301)" fill="#997b4d"/>
          <path id="Trazado_872939" data-name="Trazado 872939" d="M146.293,128.423a.763.763,0,1,1-.763-.763.763.763,0,0,1,.763.763" transform="translate(-108.072 -95.301)" fill="#997b4d"/>
        </g>
      </g>
    </g>
    <g id="Grupo_1107843" data-name="Grupo 1107843" transform="translate(1292.998 378.363)">
      <rect id="Rectángulo_402717" data-name="Rectángulo 402717" width="7.374" height="4.503" transform="translate(9.76 34.493)" fill="#48c1e1"/>
      <path id="Trazado_898127" data-name="Trazado 898127" d="M66.57,40.158a.736.736,0,0,1-.734.734H56.888a.736.736,0,0,1-.734-.734V34.871a.736.736,0,0,1,.734-.734h8.949a.736.736,0,0,1,.734.734v5.288Z" transform="translate(-47.915 -6.4)" fill="#046699"/>
      <g id="Grupo_1107835" data-name="Grupo 1107835" transform="translate(8.239 27.737)" opacity="0.1">
        <path id="Trazado_898128" data-name="Trazado 898128" d="M59.214,40.158V34.871a.736.736,0,0,1,.734-.734h-3.06a.736.736,0,0,0-.734.734v5.288a.736.736,0,0,0,.734.734h3.06A.736.736,0,0,1,59.214,40.158Z" transform="translate(-56.154 -34.137)"/>
      </g>
      <path id="Trazado_898129" data-name="Trazado 898129" d="M34.551,145.929a.782.782,0,0,1-.11-.385c0-.976,2-1.768,4.477-1.768a10.006,10.006,0,0,1,2.385.272,26.579,26.579,0,0,1-.792-6.475.737.737,0,0,1,.737-.738h1.283a4.8,4.8,0,0,1-.028-.512,4.716,4.716,0,0,1,3.29-4.5,4.448,4.448,0,0,1,2.153-5.962,4.4,4.4,0,0,1-.194-.734,4.45,4.45,0,0,1,1.608-4.237v-5.929a4.1,4.1,0,0,0-4.085-4.094H35.882a4.1,4.1,0,0,0-4.085,4.094v32.609A10.838,10.838,0,0,1,34.551,145.929Z" transform="translate(-27.132 -71.873)" fill="#a2dff9"/>
      <path id="Trazado_898130" data-name="Trazado 898130" d="M45.794,175.188a4.448,4.448,0,0,1,2.153-5.962,4.4,4.4,0,0,1-.194-.734,4.45,4.45,0,0,1,1.608-4.237v-2.567H31.8v15.154h11.66A4.711,4.711,0,0,1,45.794,175.188Z" transform="translate(-27.132 -115.236)" fill="#046699"/>
      <path id="Trazado_898131" data-name="Trazado 898131" d="M34.551,145.929a.782.782,0,0,1-.11-.385c0-.6.766-1.136,1.934-1.455V114.963a4.1,4.1,0,0,1,4.085-4.094H35.882a4.1,4.1,0,0,0-4.085,4.094v32.609A10.839,10.839,0,0,1,34.551,145.929Z" transform="translate(-27.132 -71.873)" opacity="0.1"/>
      <path id="Trazado_898132" data-name="Trazado 898132" d="M239.639,142.556a4.459,4.459,0,0,1,.065.757,4.447,4.447,0,0,1,3.919,3.339,4.68,4.68,0,0,1,2.757-1.242,7.982,7.982,0,0,1,2.328-5.384c.053-.053.108-.1.162-.157a9.809,9.809,0,0,0-2.725-5.257.768.768,0,0,0-1.087,0l-6.151,6.165A4.425,4.425,0,0,1,239.639,142.556Z" transform="translate(-203.855 -91.94)" fill="#ef5050"/>
      <path id="Trazado_898133" data-name="Trazado 898133" d="M290.282,164.582a4.707,4.707,0,0,1,4.521,3.411,4.047,4.047,0,0,1,.433.281,4.025,4.025,0,0,1,3.566-1.8c.105-.095.209-.191.309-.292l.085-.088a4.725,4.725,0,0,1,1.413-2,7.994,7.994,0,0,0,.27-6.506.252.252,0,0,0-.142-.142,7.967,7.967,0,0,0-10.9,7.158C289.983,164.59,290.132,164.582,290.282,164.582Z" transform="translate(-247.311 -111.134)" fill="#89c947"/>
      <g id="Grupo_1107836" data-name="Grupo 1107836" transform="translate(15.372 51.876)">
        <path id="Trazado_898134" data-name="Trazado 898134" d="M358.345,206.319a7.3,7.3,0,0,1,3.566-1.968,4.7,4.7,0,0,0-9.143-2.207,4.011,4.011,0,0,1,3.544,3.984,4,4,0,0,1,1.7.552C358.118,206.557,358.228,206.436,358.345,206.319Z" transform="translate(-316.381 -198.658)" fill="#ffc502"/>
        <path id="Trazado_898135" data-name="Trazado 898135" d="M108.059,253.7a4.716,4.716,0,0,0-3.29,4.5,4.8,4.8,0,0,0,.028.512h6.7a7.342,7.342,0,0,1-.875-2.728A4.454,4.454,0,0,1,108.059,253.7Z" transform="translate(-104.769 -245.625)" fill="#ffc502"/>
      </g>
      <path id="Trazado_898136" data-name="Trazado 898136" d="M396.836,236.884a.231.231,0,0,0-.052-.079.236.236,0,0,0-.079-.052,7.3,7.3,0,0,0-7.874,1.628c-.117.117-.227.238-.335.362a4.006,4.006,0,0,1,1.625,5.063h5.9A7.34,7.34,0,0,0,396.836,236.884Z" transform="translate(-331.496 -178.844)" fill="#89c947"/>
      <path id="Trazado_898137" data-name="Trazado 898137" d="M108.059,253.7a4.716,4.716,0,0,0-3.29,4.5,4.8,4.8,0,0,0,.028.512h6.7a7.342,7.342,0,0,1-.875-2.728A4.454,4.454,0,0,1,108.059,253.7Z" transform="translate(-89.397 -193.749)" fill="#ffc502"/>
      <g id="Grupo_1107837" data-name="Grupo 1107837" transform="translate(18.225 46.93)">
        <path id="Trazado_898138" data-name="Trazado 898138" d="M127.683,176.7a.228.228,0,0,1,.052-.079.234.234,0,0,1,.079-.052,7.308,7.308,0,0,1,8.56,2.422,9.867,9.867,0,0,1-.183-1.888.769.769,0,0,1,.768-.77h7.3c0-.052,0-.1,0-.157a4.706,4.706,0,0,1,1.5-3.452,4.447,4.447,0,0,0-3.919-3.339,4.453,4.453,0,0,0-8.168-2.444,4.457,4.457,0,0,0-7.06,4.327,4.394,4.394,0,0,0,.194.734,4.447,4.447,0,0,0,.41,8.244A7.334,7.334,0,0,1,127.683,176.7Z" transform="translate(-124.215 -164.946)" fill="#368c0e"/>
        <path id="Trazado_898139" data-name="Trazado 898139" d="M335.1,229.553a4.016,4.016,0,0,0-3.6-3.313,4.022,4.022,0,0,0-7.377-2.207,4.056,4.056,0,0,0-.433-.281,4.732,4.732,0,0,1,.184,1.3c0,.053,0,.1,0,.157H325.3a.769.769,0,0,1,.768.77,9.821,9.821,0,0,1-1.94,5.872h10.695A4,4,0,0,0,335.1,229.553Z" transform="translate(-294.422 -213.822)" fill="#368c0e"/>
      </g>
      <path id="Trazado_898140" data-name="Trazado 898140" d="M270.218,214.244c0-.052,0-.1,0-.157a4.7,4.7,0,1,0-9.409,0c0,.053,0,.1,0,.157Z" transform="translate(-222.546 -155.924)" fill="#f7931e"/>
      <path id="Trazado_898141" data-name="Trazado 898141" d="M153.526,243.588a7.308,7.308,0,0,0-8.56-2.422.234.234,0,0,0-.131.131,7.342,7.342,0,0,0,.407,6.275h9.73c-.01-.175-.028-.35-.05-.524A9.813,9.813,0,0,1,153.526,243.588Z" transform="translate(-123.143 -182.609)" fill="#89c947"/>
      <path id="Trazado_898142" data-name="Trazado 898142" d="M223.565,249.222a9.821,9.821,0,0,0,1.94-5.872.769.769,0,0,0-.768-.77H206.6a.769.769,0,0,0-.768.77,9.821,9.821,0,0,0,1.94,5.872Z" transform="translate(-175.634 -184.259)" fill="#ef5050"/>
      <path id="Trazado_898143" data-name="Trazado 898143" d="M93.264,295.54a7.939,7.939,0,0,1,3.663-.752c2.473,0,4.477.792,4.477,1.768a.78.78,0,0,1-.11.385,9.963,9.963,0,0,1,6.228,7.686l22.483-8.541a3.952,3.952,0,0,1,5.293,2.962l.2,1.058,7.689-4.539a26.517,26.517,0,0,0,.922-6.981.737.737,0,0,0-.737-.738H91.932a.737.737,0,0,0-.737.738,26.579,26.579,0,0,0,.792,6.475A5.235,5.235,0,0,1,93.264,295.54Z" transform="translate(-77.815 -222.886)" fill="#fff"/>
      <g id="Grupo_1107838" data-name="Grupo 1107838" transform="translate(13.38 64.962)" opacity="0.1">
        <path id="Trazado_898144" data-name="Trazado 898144" d="M93.264,295.54A7.533,7.533,0,0,1,96.5,294.8a26.61,26.61,0,0,1-.725-6.211.737.737,0,0,1,.737-.738H91.932a.737.737,0,0,0-.737.738,26.578,26.578,0,0,0,.792,6.475A5.237,5.237,0,0,1,93.264,295.54Z" transform="translate(-91.195 -287.848)"/>
      </g>
      <path id="Trazado_898145" data-name="Trazado 898145" d="M25.02,365.391l-.038-.2a3.932,3.932,0,0,1,2.477-4.389l8.65-3.286a9.963,9.963,0,0,0-6.228-7.686c-.353.627-1.547,1.128-3.092,1.31,1.133.906,1.651,1.859,1.19,2.38-.611.69-2.71.362-4.687-.732a8.958,8.958,0,0,1-1.44-.98,8.931,8.931,0,0,1-1.44.98c-1.977,1.094-4.075,1.422-4.687.732-.461-.521.057-1.473,1.189-2.38-1.545-.181-2.739-.683-3.092-1.31A9.825,9.825,0,0,0,7.5,358.79c0,5.424,4.783,9.822,10.682,9.822h7.334a11.651,11.651,0,0,0,2.153-.2A3.936,3.936,0,0,1,25.02,365.391Z" transform="translate(-6.401 -275.769)" fill="#ef5050"/>
      <path id="Trazado_898146" data-name="Trazado 898146" d="M126.291,358.918a3.945,3.945,0,0,0,3.886,3.22l33.322-.013a3.939,3.939,0,0,0,3.883-4.648l-2.226-12.019a3.952,3.952,0,0,0-5.293-2.962L128.73,354.324a3.932,3.932,0,0,0-2.477,4.389Z" transform="translate(-107.673 -269.296)" fill="#f7931e"/>
      <path id="Trazado_898147" data-name="Trazado 898147" d="M12.122,358.79a9.548,9.548,0,0,1,4.132-7.755,3.624,3.624,0,0,1-2.434-1.209A9.825,9.825,0,0,0,7.5,358.79c0,5.424,4.783,9.822,10.682,9.822H22.8C16.9,368.611,12.122,364.214,12.122,358.79Z" transform="translate(-6.4 -275.769)" opacity="0.1"/>
      <path id="Trazado_898148" data-name="Trazado 898148" d="M66.1,336.919c0-.977-2-1.768-4.477-1.768a7.94,7.94,0,0,0-3.663.752,7.936,7.936,0,0,0-3.663-.752c-2.473,0-4.477.792-4.477,1.768,0,.8,1.351,1.478,3.2,1.695-1.133.906-1.651,1.859-1.189,2.38.612.69,2.71.362,4.687-.732a8.918,8.918,0,0,0,1.44-.98,8.959,8.959,0,0,0,1.44.98c1.977,1.094,4.076,1.422,4.687.732.462-.521-.057-1.473-1.19-2.38C64.748,338.4,66.1,337.72,66.1,336.919Z" transform="translate(-42.509 -263.248)" fill="#368c0e"/>
      <path id="Trazado_898149" data-name="Trazado 898149" d="M409.444,342.361l-.287-1.547a.987.987,0,0,0-1.15-.789l-11.071,2.034,7.069-4.725a.979.979,0,0,0,.31-1.3l-.8-1.417a.99.99,0,0,0-1.364-.364l-9.033,5.332,1.763,9.521,10.36,1.862a.987.987,0,0,0,1.152-.823l.238-1.6a.98.98,0,0,0-.755-1.1l-8.3-1.9,11.071-2.034A.984.984,0,0,0,409.444,342.361Z" transform="translate(-335.44 -262.365)" fill="#89c947"/>
      <g id="Grupo_1107839" data-name="Grupo 1107839" transform="translate(18.515 87.104)" opacity="0.1">
        <path id="Trazado_898150" data-name="Trazado 898150" d="M167.185,438.754a3.945,3.945,0,0,1-3.683,2.518l-33.322.013a3.949,3.949,0,0,1-3.668-2.477,3.906,3.906,0,0,0-.256,2.26l.038.2a3.945,3.945,0,0,0,3.886,3.22l33.322-.013a3.939,3.939,0,0,0,3.883-4.648Z" transform="translate(-126.191 -438.754)"/>
      </g>
      <path id="Trazado_898151" data-name="Trazado 898151" d="M158.484,195.764h.019a1.1,1.1,0,0,0,1.1-1.082,1.222,1.222,0,0,1,1.244-1.2,1.208,1.208,0,0,1,.881.4,1.1,1.1,0,0,0,1.625-1.484,3.425,3.425,0,0,0-5.951,2.252A1.1,1.1,0,0,0,158.484,195.764Z" transform="translate(-134.308 -140.486)"/>
      <path id="Trazado_898152" data-name="Trazado 898152" d="M198.312,213.748a1.1,1.1,0,0,0,1.414-.649.946.946,0,0,1,1.213-.557.93.93,0,0,1,.538.513,1.1,1.1,0,0,0,2.025-.861,3.143,3.143,0,0,0-5.84.14A1.1,1.1,0,0,0,198.312,213.748Z" transform="translate(-168.602 -156.701)"/>
      <path id="Trazado_898153" data-name="Trazado 898153" d="M267.439,157.934a1.1,1.1,0,0,0,.779-.323l1.037-1.039a1.1,1.1,0,0,0-1.558-1.555l-1.037,1.039a1.1,1.1,0,0,0,.779,1.878Z" transform="translate(-227.261 -109.268)"/>
      <path id="Trazado_898154" data-name="Trazado 898154" d="M224.616,253.709h-1.467a1.1,1.1,0,1,0,0,2.2h1.467a1.1,1.1,0,1,0,0-2.2Z" transform="translate(-189.47 -193.756)"/>
      <path id="Trazado_898155" data-name="Trazado 898155" d="M299.792,255.91h1.467a1.1,1.1,0,0,0,0-2.2h-1.467a1.1,1.1,0,1,0,0,2.2Z" transform="translate(-254.867 -193.756)"/>
      <path id="Trazado_898156" data-name="Trazado 898156" d="M75.086,79.8,74.8,78.248a2.088,2.088,0,0,0-2.431-1.671l-5.834,1.072,2.642-1.766a2.079,2.079,0,0,0,.657-2.755l-.8-1.416a2.081,2.081,0,0,0-2.09-1.042,27.835,27.835,0,0,0,.446-4.97,1.84,1.84,0,0,0-1.094-1.68,8.438,8.438,0,0,0,.067-6.385,1.335,1.335,0,0,0-.747-.749,8.371,8.371,0,0,0-3.111-.6q-.2,0-.408.01a5.8,5.8,0,0,0-6.99-5.4,9.067,9.067,0,0,0-.513-4.843,1.353,1.353,0,0,0-.761-.767,9.044,9.044,0,0,0-8.175.75,10.883,10.883,0,0,0-2.591-4.146,1.868,1.868,0,0,0-2.645,0L35.1,47.235a5.531,5.531,0,0,0-3.692-1.405A5.565,5.565,0,0,0,27.433,47.5a5.531,5.531,0,0,0-4.1-.293V43.09A5.2,5.2,0,0,0,18.234,37.9V35.564a1.835,1.835,0,0,0,1.521-1.805V28.471a1.836,1.836,0,0,0-1.834-1.834H8.973a1.836,1.836,0,0,0-1.834,1.834v5.288A1.835,1.835,0,0,0,8.66,35.564V37.9a5.2,5.2,0,0,0-5.095,5.192V75.206A10.511,10.511,0,0,0,0,83.02c0,6.022,5.286,10.922,11.783,10.922l44.044-.013a5.037,5.037,0,0,0,4.984-5.824l8.8,1.581a2.1,2.1,0,0,0,.37.033,2.086,2.086,0,0,0,2.065-1.777l.238-1.6a2.08,2.08,0,0,0-1.6-2.338l-3.1-.711,5.828-1.071A2.084,2.084,0,0,0,75.086,79.8ZM62.507,58.49a6.171,6.171,0,0,1,1.94.312,6.232,6.232,0,0,1-.526,5.06H60.956l.946-.948a1.1,1.1,0,0,0-1.558-1.555l-.5.5a5.1,5.1,0,0,0-1.183-2.032A6.153,6.153,0,0,1,62.507,58.49ZM56.3,52.977a3.613,3.613,0,0,1,3.6,3.615c0,.037,0,.074,0,.11a8.361,8.361,0,0,0-3.141,1.863c-.145-.055-.292-.106-.443-.148a5.1,5.1,0,0,0-3.042-3.784A3.6,3.6,0,0,1,56.3,52.977Zm-5.817-6.13a6.817,6.817,0,0,1,2.19.36,6.894,6.894,0,0,1-.272,5.082,5.844,5.844,0,0,0-1.41,1.954,5.194,5.194,0,0,0-.587.067,5.139,5.139,0,0,0-2.339,1.067,5.824,5.824,0,0,0-.832-1.155l2.523-2.529A1.1,1.1,0,0,0,48.2,50.138L45.44,52.9a5.752,5.752,0,0,0-1.688-.5,6.868,6.868,0,0,1,6.732-5.554ZM42.052,63.862H41.1a1.1,1.1,0,0,0-2.047,0H37.929a1.1,1.1,0,0,0-1.716-1.352l-1.037,1.039a1.1,1.1,0,0,0-.217.313h-2.24a8.7,8.7,0,0,1-1.411-4.441H48.765a8.7,8.7,0,0,1-1.411,4.441H45.023a1.1,1.1,0,0,0-.217-.313L43.768,62.51a1.1,1.1,0,0,0-1.716,1.352ZM39.493,57.22a3.6,3.6,0,0,1,6.958,0Zm2.25-13.531a8.7,8.7,0,0,1,2.078,3.886,9.063,9.063,0,0,0-1.4,2,1.093,1.093,0,0,0-.573-.162H40.385a1.1,1.1,0,1,0,0,2.2h1.286a9.112,9.112,0,0,0-.169.921,5.755,5.755,0,0,0-1.245.486,5.555,5.555,0,0,0-3.387-2.587l0-.009a5.571,5.571,0,0,0-.442-1.41Zm-17.3,5.5a3.4,3.4,0,0,1,.58-.05,3.325,3.325,0,0,1,2,.669,1.1,1.1,0,0,0,1.576-.273,3.332,3.332,0,0,1,2.225-1.456,3.4,3.4,0,0,1,.582-.05A3.337,3.337,0,0,1,34.7,50.8a3.373,3.373,0,0,1,.049.57,1.1,1.1,0,0,0,1,1.094,3.349,3.349,0,0,1,2.763,1.973,5.8,5.8,0,0,0-1.272,2.778H30.969a1.871,1.871,0,0,0-1.729,1.163,8.4,8.4,0,0,0-7.824-.849,1.334,1.334,0,0,0-.745.747,8.431,8.431,0,0,0-.513,1.956,3.348,3.348,0,0,1,1.119-5.249,1.1,1.1,0,0,0,.575-1.37,3.321,3.321,0,0,1-.146-.551A3.359,3.359,0,0,1,24.439,49.192Zm.692,14.369.3.3H22.788a6.235,6.235,0,0,1-.2-4.413,6.191,6.191,0,0,1,6.77,2,10.871,10.871,0,0,0,.842,2.41H28.54l-1.851-1.855a1.1,1.1,0,0,0-1.558,1.555Zm-6.9-2.209a5.532,5.532,0,0,0,2.007,1.663,8.51,8.51,0,0,0,.21.847H16.522A3.619,3.619,0,0,1,18.228,61.352ZM9.339,28.838h8.215v4.554H9.339Zm6.694,6.755v2.3H10.86v-2.3ZM5.766,47.552h7.146a1.1,1.1,0,1,0,0-2.2H5.766V43.089A2.992,2.992,0,0,1,8.75,40.1h9.394a2.992,2.992,0,0,1,2.984,2.993v2.262H19.074a1.1,1.1,0,1,0,0,2.2h2.055v.977a5.546,5.546,0,0,0-1.592,4.914l0,.011a5.561,5.561,0,0,0-2.331,5.526c.022.126.049.25.079.373a5.835,5.835,0,0,0-1.467,1.153H5.766Zm0,15.154h8.776a5.773,5.773,0,0,0-.239,1.156h-.185A1.84,1.84,0,0,0,12.28,65.7a27.847,27.847,0,0,0,.477,5.141c-.316-.025-.64-.039-.97-.039a10.027,10.027,0,0,0-3.57.595c-1.486.587-1.9,1.42-1.986,2-.157.078-.312.161-.465.246V62.706ZM19.7,76.225a4.166,4.166,0,0,1,.779.781h-.041a6.837,6.837,0,0,1-3.014-.955,7.931,7.931,0,0,1-1.262-.857,1.1,1.1,0,0,0-1.423,0,7.886,7.886,0,0,1-1.262.857,6.837,6.837,0,0,1-3.015.956h-.041a4.161,4.161,0,0,1,.779-.781,1.1,1.1,0,0,0-.56-1.952,5.257,5.257,0,0,1-2.071-.6A6.268,6.268,0,0,1,11.787,73a6.859,6.859,0,0,1,3.124.611,1.1,1.1,0,0,0,1.077,0A6.862,6.862,0,0,1,19.113,73a6.267,6.267,0,0,1,3.218.671,5.254,5.254,0,0,1-2.071.6,1.1,1.1,0,0,0-.56,1.952ZM2.2,83.02a8.644,8.644,0,0,1,4.966-7.639,4.728,4.728,0,0,0,1.265.648,2.607,2.607,0,0,0-.371,1.088A1.792,1.792,0,0,0,8.5,78.475a2.5,2.5,0,0,0,1.963.732,9.088,9.088,0,0,0,4.08-1.231q.481-.266.907-.56.425.293.907.561a9.092,9.092,0,0,0,4.08,1.231h0a2.5,2.5,0,0,0,1.963-.732,1.792,1.792,0,0,0,.438-1.357,2.607,2.607,0,0,0-.371-1.088,4.738,4.738,0,0,0,1.266-.649,8.9,8.9,0,0,1,4.716,5.662L20.667,84A5.032,5.032,0,0,0,17.5,89.618l.038.2a5.012,5.012,0,0,0,.792,1.919H11.783C6.5,91.742,2.2,87.829,2.2,83.02Zm55.816,7.686a2.847,2.847,0,0,1-2.191,1.023H54.671l-.722-3.9a1.1,1.1,0,0,0-2.164.4l.648,3.5H48.646L48.158,89.1a1.1,1.1,0,0,0-2.164.4l.414,2.235-8.807,0-.663-3.578a1.1,1.1,0,0,0-2.164.4l.589,3.178-12.859,0h0a2.845,2.845,0,0,1-2.8-2.321l-.038-.2a2.831,2.831,0,0,1,1.786-3.16l4.325-1.643.322,1.739a1.1,1.1,0,0,0,1.081.9,1.116,1.116,0,0,0,.2-.019,1.1,1.1,0,0,0,.881-1.283l-.4-2.132,6.42-2.439a1.1,1.1,0,0,0-.781-2.057l-2.987,1.135a11.151,11.151,0,0,0-5.846-6.866c-.09-.576-.5-1.409-1.986-2a10.027,10.027,0,0,0-3.57-.595,11.163,11.163,0,0,0-2.562.285v-.665a1.1,1.1,0,0,0-1.78-.864,25.707,25.707,0,0,1-.287-3.5H50.326a1.1,1.1,0,0,0,0-2.2h-.45a10.893,10.893,0,0,0,1.1-4.771,1.872,1.872,0,0,0-1.69-1.861,2.9,2.9,0,0,1,1.5-.751,2.969,2.969,0,0,1,.507-.044,2.908,2.908,0,0,1,2.87,2.416,2.944,2.944,0,0,1,.043.5,1.1,1.1,0,0,0,1,1.095,2.917,2.917,0,0,1,2.616,2.405,2.876,2.876,0,0,1-.008,1.014H56.635a1.1,1.1,0,1,0,0,2.2h8.553a25.365,25.365,0,0,1-.772,5.9l-5.964,3.52A5.052,5.052,0,0,0,51.8,72.172L39.518,76.838A1.1,1.1,0,0,0,40.3,78.9l1.618-.615.5,2.712a1.1,1.1,0,0,0,1.081.9,1.114,1.114,0,0,0,.2-.019,1.1,1.1,0,0,0,.882-1.282l-.575-3.106,8.573-3.257A2.856,2.856,0,0,1,55,74.407,2.827,2.827,0,0,1,56.4,76.363l2.226,12.019A2.815,2.815,0,0,1,58.016,90.706Zm3.926-8.613a1.1,1.1,0,0,0-.047,2.155l8.193,1.879-.2,1.373-9.5-1.707L58.9,77.777l8.273-4.883.689,1.22-6.978,4.664a1.1,1.1,0,0,0,.81,2l10.961-2.013.244,1.318Z" transform="translate(0)"/>
    </g>
  </g>
</svg>
