<svg xmlns="http://www.w3.org/2000/svg" xmlns:xlink="http://www.w3.org/1999/xlink" width="359" height="235.557" viewBox="0 0 359 235.557">
  <defs>
    <clipPath id="clip-path">
      <rect id="BG" width="139.018" height="137.001" transform="translate(1280.982 641.555)" fill="#c6e697" opacity="0.949"/>
    </clipPath>
    <clipPath id="clip-path-2">
      <rect id="Rectángulo_400902" data-name="Rectángulo 400902" width="80.845" height="71.673" fill="#997b4d"/>
    </clipPath>
    <clipPath id="clip-path-3">
      <rect id="Rectángulo_404289" data-name="Rectángulo 404289" width="218.037" height="202.274" fill="none"/>
    </clipPath>
    <clipPath id="clip-path-5">
      <rect id="Rectángulo_404287" data-name="Rectángulo 404287" width="202.833" height="70.355" transform="translate(15.204 131.919)" fill="none"/>
    </clipPath>
    <clipPath id="clip-path-7">
      <rect id="Rectángulo_404277" data-name="Rectángulo 404277" width="195.243" height="67.722" transform="translate(18.999 133.235)" fill="none"/>
    </clipPath>
    <clipPath id="clip-path-8">
      <rect id="Rectángulo_404278" data-name="Rectángulo 404278" width="187.653" height="65.09" transform="translate(22.794 134.551)" fill="none"/>
    </clipPath>
    <clipPath id="clip-path-9">
      <rect id="Rectángulo_404279" data-name="Rectángulo 404279" width="180.063" height="62.457" transform="translate(26.589 135.868)" fill="none"/>
    </clipPath>
    <clipPath id="clip-path-10">
      <rect id="Rectángulo_404280" data-name="Rectángulo 404280" width="172.473" height="59.824" transform="translate(30.384 137.184)" fill="none"/>
    </clipPath>
    <clipPath id="clip-path-11">
      <rect id="Rectángulo_404281" data-name="Rectángulo 404281" width="164.882" height="57.192" transform="translate(34.179 138.501)" fill="none"/>
    </clipPath>
    <clipPath id="clip-path-12">
      <rect id="Rectángulo_404282" data-name="Rectángulo 404282" width="157.292" height="54.559" transform="translate(37.974 139.817)" fill="none"/>
    </clipPath>
    <clipPath id="clip-path-13">
      <rect id="Rectángulo_404283" data-name="Rectángulo 404283" width="149.702" height="51.926" transform="translate(41.769 141.133)" fill="none"/>
    </clipPath>
    <clipPath id="clip-path-14">
      <rect id="Rectángulo_404284" data-name="Rectángulo 404284" width="142.112" height="49.294" transform="translate(45.564 142.45)" fill="none"/>
    </clipPath>
    <clipPath id="clip-path-15">
      <rect id="Rectángulo_404285" data-name="Rectángulo 404285" width="134.522" height="46.661" transform="translate(49.359 143.766)" fill="none"/>
    </clipPath>
    <clipPath id="clip-path-16">
      <rect id="Rectángulo_404286" data-name="Rectángulo 404286" width="126.932" height="44.028" transform="translate(53.154 145.082)" fill="none"/>
    </clipPath>
  </defs>
  <g id="Grupo_1113187" data-name="Grupo 1113187" transform="translate(5675.671 13587)">
    <g id="Enmascarar_grupo_1098846" data-name="Enmascarar grupo 1098846" transform="translate(-6736.671 -14130)" clip-path="url(#clip-path)">
      <path id="Trazado_923576" data-name="Trazado 923576" d="M98.607,67.794c-.258.139-.506.3-.759.452-.081-.1-.155-.209-.243-.3a.37.37,0,0,0-.642.3c.035.163.068.326.1.491-6.234,4.2-10.661,12.627-10.827,20.383-.026.049-.052.1-.075.157q-.975-3.8-1.584-7.607c0-.007,0-.015,0-.022a.211.211,0,0,0,.059-.128c0-.275.025-.565.042-.847.553-5.709,3.712-11.527,4.5-17.11.643-4.522-.906-10.655-6.137-11.536-.027,0-.051.011-.077.014,0-.05,0-.1,0-.15a.313.313,0,0,0-.624-.051c-4.356,25.027,4.815,52.625,20.284,72.622-2.687-2.368-5.358-4.747-7.929-7.191Q85.359,108.4,76.672,98.9a63.038,63.038,0,0,1-8.508-17.079c.1-11.64,5.011-24.857.961-35.994C67.247,40.667,62.583,28.236,55.382,28.9a9,9,0,0,0-.475-1.106.521.521,0,0,0-.944.442c.095.209.17.423.248.636a.312.312,0,0,0,.036.427c.055.052.1.11.15.166,1.225,4.371-.77,9.708-.731,14.105a85.132,85.132,0,0,0,1.324,13.927c1.551,8.9,5.8,16.674,11.472,23.533a62.249,62.249,0,0,0,5.41,12.491C70.552,92,69.224,90.5,67.934,88.949a182.7,182.7,0,0,1-21.761-32.49c-.554-1.061-1.066-2.138-1.58-3.214-2-9.142-1.412-18.579-3.867-27.615C37.932,15.353,28.192,7.919,21.084.673c-.3-.3-.969-.308-1.079.2-4.411,20.532,9.313,37.485,22.67,51.542.68,1.575,1.38,3.137,2.123,4.683a120.762,120.762,0,0,0,7.676,13.445c-.029-.024-.062-.045-.092-.071-.547-.507-1.125-1-1.715-1.479a.333.333,0,0,0-.037-.3C40.474,53.075,19.374,42.085,1.52,50.214L1.5,50.2a.3.3,0,0,0-.474.234c-.152.073-.3.134-.457.21a.665.665,0,0,0-.318.878c4,7.3,12.464,11.31,19.743,14.617A43.615,43.615,0,0,0,34.43,70.059a9.912,9.912,0,0,0,4.8-.577c5.132-1.887,7.87-.868,11.962,1.209.936.686,1.858,1.381,2.744,2.089,2.674,3.959,5.523,7.805,8.417,11.55-3.518-3.064-7.818-5.686-11.769-5.634a4.437,4.437,0,0,0-2.4-1.921c-1.509-.52-3.6-.412-4.735.843-1.532,1.694-.518,4.538,1.361,5.544.276.147.712-.033.618-.4a11.918,11.918,0,0,0-.6-1.521,1.045,1.045,0,0,0,.105.073,6.463,6.463,0,0,0,.719,1.026,3.259,3.259,0,0,0,2.967,1.424c1.465-.123,2.169-1.708,2.369-2.96a3.111,3.111,0,0,0,.035-.669,34.437,34.437,0,0,1,13.468,6.93c.084.107.168.217.25.324,4.55,5.762,9.45,11.241,14.531,16.549a55.54,55.54,0,0,0-10.213-4.2c-7.3-4.059-13.942-9.084-22.469-10.871-6.217-1.3-19.012-5.045-24.427.077a.548.548,0,0,0-.071.683C18.81,96.475,31.2,101.3,35.66,103.174a60.147,60.147,0,0,0,12.107,3.736c9.14,1.7,18.547-3.188,27.739-3.185,0,0,.005,0,.009,0,1.96.765,3.926,1.562,5.9,2.432,3.989,4.1,8.074,8.1,12.188,12.048q1.247,1.2,2.5,2.41a35.3,35.3,0,0,0-7-1.376.255.255,0,0,0-.11-.251C74.147,108.7,50.722,118.684,43,133.335a.527.527,0,0,0,.134.7c.126.106.255.21.381.316h0c.226.187.453.38.68.564a.243.243,0,0,0,.352-.078c3.843,3.45,9.778,1.274,14.242-.2,5.286-1.748,10.709-2.615,16.017-4.263,6.2-1.926,9.813-7.157,15.753-9.328a.45.45,0,0,0,.311-.44,49.992,49.992,0,0,1,6.589,1.317c7.671,7.4,15.53,14.936,24.066,21.186a.32.32,0,0,0,.421-.472A180.9,180.9,0,0,0,106.652,128c-.016-.022-.035-.044-.054-.067a.258.258,0,0,0-.059-.221,40.163,40.163,0,0,1-7.106-14.322c-1.1-3.725-1.073-7.76-1.694-11.464,1.259.014,2.456-.351,2.725-1.437a3.277,3.277,0,0,0,.973-.936A3.693,3.693,0,0,0,100.01,93.9c-.085-.04-.179-.07-.268-.109.029,0,.06,0,.087-.007a.362.362,0,0,0,.139-.652c-1.862-1.343-4.429-.427-5.839,1.2a2.092,2.092,0,0,0-.464.635,3.677,3.677,0,0,0-.281.488.293.293,0,0,0,.069.331,2.629,2.629,0,0,0,.1.963,2.458,2.458,0,0,0,.16.332,3,3,0,0,0,1.171,4.139,5.023,5.023,0,0,0,1.735.595,41.107,41.107,0,0,0,3.9,17.759,107.609,107.609,0,0,1-12.6-24.439c-.117-.328-.21-.656-.322-.987a18.731,18.731,0,0,1-.419-5.243c1.721-2.01,5.165-2.023,7.163-3.606a13.337,13.337,0,0,0,3.718-4.841c1.553-3.13,2.219-8.2.325-11.435.212-.246.423-.492.631-.748S98.885,67.646,98.607,67.794Zm-15.5-4.86a26.554,26.554,0,0,1,.6,3.117,20.3,20.3,0,0,1-.226,5.712C83.281,68.837,83.183,65.892,83.112,62.934Zm.517,10.454c1.446-4.458,1.638-9.759-.592-13.991-.029-2.247-.047-4.505-.066-6.779,2.232,2.056,4.23,3.235,4.95,6.5.721,3.249-.331,6.96-1.154,10.073-.277,1.044-.584,2.093-.895,3.145,1.031-6.1,1.76-12.51-2.282-16.778a.307.307,0,0,0-.509.329,24.789,24.789,0,0,1,2.091,13.5c-.338,2.982-.887,5.9-1.08,8.867C83.891,76.635,83.76,75.012,83.629,73.388ZM66.185,74.973c-1.086-4.275-1.96-8.645-2.752-13.1-1.215-6.834-2.234-13.646-2.892-20.555a29.265,29.265,0,0,0-.863-5C66.568,48,64.89,61.223,66.185,74.973Zm-1.947-2.625C60.749,60.82,59.8,49.323,58.289,37.473a92.854,92.854,0,0,1,2,12.167c.922,7.1,2.3,14.176,3.632,21.211C64.014,71.348,64.136,71.849,64.238,72.348ZM57.453,31.425c-.074-.481-.14-.961-.217-1.442,8.256,2.82,12.05,19.688,12,26.3-.046,6-1.852,12.006-2.348,17.995C65.664,58.9,68.156,43.606,57.453,31.425ZM55.068,49.1a46,46,0,0,1,.567-13.665A14.359,14.359,0,0,0,56,31.449c.242.462.443.932.652,1.4.5,15.4,2.727,31.694,9.061,45.715.009.018.031.019.04.033.089.315.159.634.252.947C59.447,70.394,56.079,60.478,55.068,49.1ZM21.728,4.168c2.529.15,7.8,6.694,8.845,7.785,5.167,5.367,8.593,11.134,10.011,18.678,1.139,5.9.793,11.858,1.762,17.671-.049-.109-.089-.223-.139-.334A79.388,79.388,0,0,0,21.812,4.3C21.784,4.257,21.756,4.212,21.728,4.168Zm18,37.811c-2.408-6-4.715-12.059-7.506-17.9A105.4,105.4,0,0,0,24.877,9.368,103.235,103.235,0,0,1,34.954,25.525C37.44,30.733,38.5,36.382,39.73,41.979ZM20.954,4.41c3.4,7.4,7.643,14.54,11.379,21.789,2.172,5.1,4.092,10.3,6.062,15.483C36.159,37.9,33.823,34.166,31.658,30.4,26.944,22.184,23.845,13.423,20.9,4.47A.762.762,0,0,1,20.954,4.41ZM20.382,5.98a4.153,4.153,0,0,1,.1-.664A166.779,166.779,0,0,0,39.867,47.757C30.033,35.2,19.167,23.269,20.382,5.98ZM25.415,57.59a73.124,73.124,0,0,1,13.014,5.228c-11.4-3.582-23.587-5.007-34.214-10.968C10.48,51.818,19.627,55.935,25.415,57.59ZM6.45,50.875c6.194.352,11.82.645,18.165,2.505,6.478,1.9,12.117,5.654,17.274,9.933A113.31,113.31,0,0,0,25.8,56.5c-4.651-1.611-9.488-2.334-14.129-4.052A26.293,26.293,0,0,0,6.45,50.875ZM45.22,66.954c-2.561-.621-8.65,1.915-10.7,1.9-9.442-.086-19.888-6.089-27.272-11.438.155.112-5.007-3.588-4.77-5.619,5.716,4.354,12.7,6.1,19.545,8.162,7.512,2.261,15.094,4.225,22.635,6.372.463.285.928.565,1.385.854C45.775,67.1,45.505,67.022,45.22,66.954Zm.874-1.265c-4.605-4.869-10.487-8.422-16.5-11.339-8.43-4.085-15.952-3.944-24.727-4.149a33.64,33.64,0,0,1,6.474-1.474c5.352-.79,10.837.653,15.773,2.553,8.064,3.1,14.05,9,20.029,14.91C46.793,66.025,46.443,65.855,46.094,65.689ZM44.975,80.236c-.135-.076-.252-.155-.333-.211a.312.312,0,0,0-.194-.042,1.476,1.476,0,0,1,.148-.892,1.42,1.42,0,0,1,.824-.59.377.377,0,0,0,.23.321,5.582,5.582,0,0,1,.876.491.843.843,0,0,0-.106.16,4.675,4.675,0,0,1-.228.813c-.156.287-.48.268-.8.148a.017.017,0,0,0-.006-.009A.414.414,0,0,0,44.975,80.236Zm3,1.167c-.021.348-.032.553-.263.6a1.522,1.522,0,0,1-1.072-.317c.05-.015.094,0,.146-.021a1.614,1.614,0,0,0,1-1.32c.088.09.182.174.268.267C48.006,80.864,47.992,81.128,47.972,81.4ZM49.1,90.565c5.1,1.22,9.5,3.875,13.885,6.59-11.759-4.806-25.934-6.7-38.356-8.267C31.691,86.161,42.4,88.958,49.1,90.565ZM23.718,89.273c6.993,1.421,14.029,2.586,21.008,4.1,4.4.956,8.71,2.276,13.036,3.5-.545-.119-1.092-.241-1.634-.357-10.878-2.3-21.665-4.759-32.487-7.22C23.665,89.292,23.694,89.285,23.718,89.273Zm-.882.512c8.542,3.973,18.668,5.143,27.847,6.877a140.535,140.535,0,0,1,17.829,4.576c-4.305-.249-8.676.116-13,.047-11.243-.18-23.269-5.382-32.5-11.4a.286.286,0,0,0-.178-.035C22.837,89.829,22.833,89.809,22.836,89.785Zm21.008,14.907c-5.976-1.646-21.592-6.031-21.057-14.143,7.24,5.531,16.077,8.836,24.965,10.65,7.938,1.617,15.929.647,23.882,1.476C62.254,103.086,53.457,107.339,43.845,104.692Zm39.262,19.189c-4.6,4.105-10.181,5.706-16.065,6.953-6.343,1.345-15.512,6.656-21.684,3.443,5.833.187,11.1-1.806,16.5-4.048,7.163-2.971,14.678-4.628,21.991-6.992C83.6,123.44,83.368,123.647,83.107,123.882Zm3.064-2.407c-6.048,1.456-12.047,3.234-17.953,5.175-7.593,2.489-14.492,6.665-22.6,6.875a303.944,303.944,0,0,1,40.95-12.292C86.435,121.305,86.306,121.393,86.171,121.475Zm-40.729,11.39C54.7,122.885,72.675,119.1,87.52,120.276,73.288,121.283,58.137,126.377,45.441,132.865ZM69.084,120.81c-8.224,1.576-19.447,3.964-24.59,11.268,1.957-5.04,14.575-11.659,17.2-12.773,8.641-3.658,16.8-2.337,25.395-.2A76.162,76.162,0,0,0,69.084,120.81ZM95.593,95.751c.02-.016.019-.018.022-.023a.525.525,0,0,0,.117-.053c.045-.021.273-.1.316-.121a4.547,4.547,0,0,1,2.655.038c1.168.36,1.8,1,1.381,2.226a2.957,2.957,0,0,1-.132.284,7.477,7.477,0,0,0-1.769-.7,6.344,6.344,0,0,1-2.575-1.555c-.025-.026-.058-.02-.085-.038C95.547,95.792,95.569,95.769,95.593,95.751Zm-1.2,2.332a3.4,3.4,0,0,0,1.225.847,4.148,4.148,0,0,0,1.018,1.209c0,.046,0,.092,0,.136a5.732,5.732,0,0,1-.671-.137A2.094,2.094,0,0,1,94.4,98.082ZM87.922,84.645a18.24,18.24,0,0,0,5.28-9.72.188.188,0,0,0-.029-.137c1-1.173,2.054-2.289,3.109-3.417C94.306,77.324,92.494,82.933,87.4,87.08A22.418,22.418,0,0,1,87.922,84.645Zm4.784.265c-1.232.711-2.522,1.146-3.662,1.7,4.406-3.758,8.523-9.916,7.919-15.7a.213.213,0,0,0-.107-.167c.169-.18.334-.359.5-.542C98.329,75.654,98.26,81.7,92.706,84.911Z" transform="translate(1299.432 651.034)" fill="#bcd1b8" fill-rule="evenodd" opacity="0.55"/>
    </g>
    <g id="Grupo_1113186" data-name="Grupo 1113186" transform="translate(-6736.671 -14130)">
      <circle id="Elipse_11685" data-name="Elipse 11685" cx="47.829" cy="47.829" r="47.829" transform="translate(1061 552.913)" fill="#c6e697"/>
      <circle id="Elipse_11686" data-name="Elipse 11686" cx="34.329" cy="34.329" r="34.329" transform="translate(1246.343 683.586)" fill="#fed57b"/>
      <g id="Grupo_1112332" data-name="Grupo 1112332" transform="translate(1254.154 552.913)">
        <g id="Grupo_1098724" data-name="Grupo 1098724" transform="translate(0 0)">
          <g id="Grupo_1098723" data-name="Grupo 1098723" clip-path="url(#clip-path-2)">
            <path id="Trazado_872910" data-name="Trazado 872910" d="M3.228,1.614A1.614,1.614,0,1,1,1.614,0,1.614,1.614,0,0,1,3.228,1.614" fill="#997b4d"/>
            <path id="Trazado_872911" data-name="Trazado 872911" d="M32.182,1.614A1.614,1.614,0,1,1,30.568,0a1.614,1.614,0,0,1,1.614,1.614" transform="translate(-13.43)" fill="#997b4d"/>
            <path id="Trazado_872912" data-name="Trazado 872912" d="M61.135,1.614A1.614,1.614,0,1,1,59.521,0a1.614,1.614,0,0,1,1.614,1.614" transform="translate(-26.86)" fill="#997b4d"/>
            <path id="Trazado_872913" data-name="Trazado 872913" d="M90.088,1.614A1.614,1.614,0,1,1,88.474,0a1.614,1.614,0,0,1,1.614,1.614" transform="translate(-40.29)" fill="#997b4d"/>
            <path id="Trazado_872914" data-name="Trazado 872914" d="M119.041,1.614A1.614,1.614,0,1,1,117.427,0a1.614,1.614,0,0,1,1.614,1.614" transform="translate(-53.719)" fill="#997b4d"/>
            <path id="Trazado_872915" data-name="Trazado 872915" d="M147.995,1.614A1.614,1.614,0,1,1,146.381,0a1.614,1.614,0,0,1,1.614,1.614" transform="translate(-67.149)" fill="#997b4d"/>
            <path id="Trazado_872916" data-name="Trazado 872916" d="M3.228,33.529a1.614,1.614,0,1,1-1.614-1.614,1.614,1.614,0,0,1,1.614,1.614" transform="translate(0 -14.804)" fill="#997b4d"/>
            <path id="Trazado_872917" data-name="Trazado 872917" d="M32.182,33.529a1.614,1.614,0,1,1-1.614-1.614,1.614,1.614,0,0,1,1.614,1.614" transform="translate(-13.43 -14.804)" fill="#997b4d"/>
            <path id="Trazado_872918" data-name="Trazado 872918" d="M61.135,33.529a1.614,1.614,0,1,1-1.614-1.614,1.614,1.614,0,0,1,1.614,1.614" transform="translate(-26.86 -14.804)" fill="#997b4d"/>
            <path id="Trazado_872919" data-name="Trazado 872919" d="M90.088,33.529a1.614,1.614,0,1,1-1.614-1.614,1.614,1.614,0,0,1,1.614,1.614" transform="translate(-40.29 -14.804)" fill="#997b4d"/>
            <path id="Trazado_872920" data-name="Trazado 872920" d="M119.041,33.529a1.614,1.614,0,1,1-1.614-1.614,1.614,1.614,0,0,1,1.614,1.614" transform="translate(-53.719 -14.804)" fill="#997b4d"/>
            <path id="Trazado_872921" data-name="Trazado 872921" d="M147.995,33.529a1.614,1.614,0,1,1-1.614-1.614,1.614,1.614,0,0,1,1.614,1.614" transform="translate(-67.149 -14.804)" fill="#997b4d"/>
            <path id="Trazado_872922" data-name="Trazado 872922" d="M3.228,65.444A1.614,1.614,0,1,1,1.614,63.83a1.614,1.614,0,0,1,1.614,1.614" transform="translate(0 -29.607)" fill="#997b4d"/>
            <path id="Trazado_872923" data-name="Trazado 872923" d="M32.182,65.444a1.614,1.614,0,1,1-1.614-1.614,1.614,1.614,0,0,1,1.614,1.614" transform="translate(-13.43 -29.607)" fill="#997b4d"/>
            <path id="Trazado_872924" data-name="Trazado 872924" d="M61.135,65.444a1.614,1.614,0,1,1-1.614-1.614,1.614,1.614,0,0,1,1.614,1.614" transform="translate(-26.86 -29.607)" fill="#997b4d"/>
            <path id="Trazado_872925" data-name="Trazado 872925" d="M90.088,65.444a1.614,1.614,0,1,1-1.614-1.614,1.614,1.614,0,0,1,1.614,1.614" transform="translate(-40.29 -29.607)" fill="#997b4d"/>
            <path id="Trazado_872926" data-name="Trazado 872926" d="M119.041,65.444a1.614,1.614,0,1,1-1.614-1.614,1.614,1.614,0,0,1,1.614,1.614" transform="translate(-53.719 -29.607)" fill="#997b4d"/>
            <path id="Trazado_872927" data-name="Trazado 872927" d="M147.995,65.444a1.614,1.614,0,1,1-1.614-1.614,1.614,1.614,0,0,1,1.614,1.614" transform="translate(-67.149 -29.607)" fill="#997b4d"/>
            <path id="Trazado_872928" data-name="Trazado 872928" d="M3.228,97.359a1.614,1.614,0,1,1-1.614-1.614,1.614,1.614,0,0,1,1.614,1.614" transform="translate(0 -44.411)" fill="#997b4d"/>
            <path id="Trazado_872929" data-name="Trazado 872929" d="M32.182,97.359a1.614,1.614,0,1,1-1.614-1.614,1.614,1.614,0,0,1,1.614,1.614" transform="translate(-13.43 -44.411)" fill="#997b4d"/>
            <path id="Trazado_872930" data-name="Trazado 872930" d="M61.135,97.359a1.614,1.614,0,1,1-1.614-1.614,1.614,1.614,0,0,1,1.614,1.614" transform="translate(-26.86 -44.411)" fill="#997b4d"/>
            <path id="Trazado_872931" data-name="Trazado 872931" d="M90.088,97.359a1.614,1.614,0,1,1-1.614-1.614,1.614,1.614,0,0,1,1.614,1.614" transform="translate(-40.29 -44.411)" fill="#997b4d"/>
            <path id="Trazado_872932" data-name="Trazado 872932" d="M119.041,97.359a1.614,1.614,0,1,1-1.614-1.614,1.614,1.614,0,0,1,1.614,1.614" transform="translate(-53.719 -44.411)" fill="#997b4d"/>
            <path id="Trazado_872933" data-name="Trazado 872933" d="M147.995,97.359a1.614,1.614,0,1,1-1.614-1.614,1.614,1.614,0,0,1,1.614,1.614" transform="translate(-67.149 -44.411)" fill="#997b4d"/>
            <path id="Trazado_872934" data-name="Trazado 872934" d="M3.228,129.274a1.614,1.614,0,1,1-1.614-1.614,1.614,1.614,0,0,1,1.614,1.614" transform="translate(0 -59.214)" fill="#997b4d"/>
            <path id="Trazado_872935" data-name="Trazado 872935" d="M32.182,129.274a1.614,1.614,0,1,1-1.614-1.614,1.614,1.614,0,0,1,1.614,1.614" transform="translate(-13.43 -59.214)" fill="#997b4d"/>
            <path id="Trazado_872936" data-name="Trazado 872936" d="M61.135,129.274a1.614,1.614,0,1,1-1.614-1.614,1.614,1.614,0,0,1,1.614,1.614" transform="translate(-26.86 -59.214)" fill="#997b4d"/>
            <path id="Trazado_872937" data-name="Trazado 872937" d="M90.088,129.274a1.614,1.614,0,1,1-1.614-1.614,1.614,1.614,0,0,1,1.614,1.614" transform="translate(-40.29 -59.214)" fill="#997b4d"/>
            <path id="Trazado_872938" data-name="Trazado 872938" d="M119.041,129.274a1.614,1.614,0,1,1-1.614-1.614,1.614,1.614,0,0,1,1.614,1.614" transform="translate(-53.719 -59.214)" fill="#997b4d"/>
            <path id="Trazado_872939" data-name="Trazado 872939" d="M147.995,129.274a1.614,1.614,0,1,1-1.614-1.614,1.614,1.614,0,0,1,1.614,1.614" transform="translate(-67.149 -59.214)" fill="#997b4d"/>
          </g>
        </g>
      </g>
      <g id="Grupo_1112824" data-name="Grupo 1112824" transform="translate(1096.963 543)">
        <g id="Grupo_1112823" data-name="Grupo 1112823" clip-path="url(#clip-path-3)">
          <g id="Grupo_1112822" data-name="Grupo 1112822">
            <g id="Grupo_1112821" data-name="Grupo 1112821" clip-path="url(#clip-path-3)">
              <g id="Grupo_1112820" data-name="Grupo 1112820">
                <g id="Grupo_1112819" data-name="Grupo 1112819">
                  <g id="Grupo_1112818" data-name="Grupo 1112818" clip-path="url(#clip-path-5)">
                    <g id="Grupo_1112787" data-name="Grupo 1112787" opacity="0">
                      <g id="Grupo_1112786" data-name="Grupo 1112786">
                        <g id="Grupo_1112785" data-name="Grupo 1112785" clip-path="url(#clip-path-5)">
                          <path id="Trazado_911957" data-name="Trazado 911957" d="M218.037,167.1c0,19.428-45.406,35.178-101.416,35.178S15.2,186.524,15.2,167.1s45.406-35.178,101.417-35.178,101.416,15.75,101.416,35.178" fill="#e8e8e8"/>
                        </g>
                      </g>
                    </g>
                    <g id="Grupo_1112790" data-name="Grupo 1112790" opacity="0.1">
                      <g id="Grupo_1112789" data-name="Grupo 1112789">
                        <g id="Grupo_1112788" data-name="Grupo 1112788" clip-path="url(#clip-path-7)">
                          <path id="Trazado_911958" data-name="Trazado 911958" d="M214.242,167.1c0,18.7-43.707,33.861-97.621,33.861S19,185.8,19,167.1s43.707-33.861,97.622-33.861,97.621,15.16,97.621,33.861" fill="#e8e8e8"/>
                        </g>
                      </g>
                    </g>
                    <g id="Grupo_1112793" data-name="Grupo 1112793" opacity="0.2">
                      <g id="Grupo_1112792" data-name="Grupo 1112792">
                        <g id="Grupo_1112791" data-name="Grupo 1112791" clip-path="url(#clip-path-8)">
                          <path id="Trazado_911959" data-name="Trazado 911959" d="M210.447,167.1c0,17.974-42.008,32.545-93.826,32.545S22.794,185.07,22.794,167.1s42.008-32.545,93.827-32.545,93.826,14.571,93.826,32.545" fill="#e8e8e8"/>
                        </g>
                      </g>
                    </g>
                    <g id="Grupo_1112796" data-name="Grupo 1112796" opacity="0.3">
                      <g id="Grupo_1112795" data-name="Grupo 1112795">
                        <g id="Grupo_1112794" data-name="Grupo 1112794" clip-path="url(#clip-path-9)">
                          <path id="Trazado_911960" data-name="Trazado 911960" d="M206.652,167.1c0,17.247-40.308,31.229-90.031,31.229S26.589,184.343,26.589,167.1s40.309-31.229,90.032-31.229,90.031,13.982,90.031,31.229" fill="#e8e8e8"/>
                        </g>
                      </g>
                    </g>
                    <g id="Grupo_1112799" data-name="Grupo 1112799" opacity="0.4">
                      <g id="Grupo_1112798" data-name="Grupo 1112798">
                        <g id="Grupo_1112797" data-name="Grupo 1112797" clip-path="url(#clip-path-10)">
                          <path id="Trazado_911961" data-name="Trazado 911961" d="M202.857,167.1c0,16.52-38.609,29.912-86.236,29.912S30.384,183.616,30.384,167.1s38.61-29.912,86.237-29.912,86.236,13.392,86.236,29.912" fill="#e8e8e8"/>
                        </g>
                      </g>
                    </g>
                    <g id="Grupo_1112802" data-name="Grupo 1112802" opacity="0.5">
                      <g id="Grupo_1112801" data-name="Grupo 1112801">
                        <g id="Grupo_1112800" data-name="Grupo 1112800" clip-path="url(#clip-path-11)">
                          <path id="Trazado_911962" data-name="Trazado 911962" d="M199.061,167.1c0,15.793-36.91,28.6-82.441,28.6s-82.441-12.8-82.441-28.6,36.91-28.6,82.441-28.6,82.441,12.8,82.441,28.6" fill="#e8e8e8"/>
                        </g>
                      </g>
                    </g>
                    <g id="Grupo_1112805" data-name="Grupo 1112805" opacity="0.6">
                      <g id="Grupo_1112804" data-name="Grupo 1112804">
                        <g id="Grupo_1112803" data-name="Grupo 1112803" clip-path="url(#clip-path-12)">
                          <path id="Trazado_911963" data-name="Trazado 911963" d="M195.266,167.1c0,15.066-35.211,27.279-78.646,27.279S37.974,182.162,37.974,167.1s35.211-27.28,78.646-27.28,78.646,12.214,78.646,27.28" fill="#e8e8e8"/>
                        </g>
                      </g>
                    </g>
                    <g id="Grupo_1112808" data-name="Grupo 1112808" opacity="0.7">
                      <g id="Grupo_1112807" data-name="Grupo 1112807">
                        <g id="Grupo_1112806" data-name="Grupo 1112806" clip-path="url(#clip-path-13)">
                          <path id="Trazado_911964" data-name="Trazado 911964" d="M191.471,167.1c0,14.339-33.512,25.963-74.851,25.963S41.769,181.435,41.769,167.1s33.512-25.963,74.851-25.963,74.851,11.624,74.851,25.963" fill="#e8e8e8"/>
                        </g>
                      </g>
                    </g>
                    <g id="Grupo_1112811" data-name="Grupo 1112811" opacity="0.8">
                      <g id="Grupo_1112810" data-name="Grupo 1112810">
                        <g id="Grupo_1112809" data-name="Grupo 1112809" clip-path="url(#clip-path-14)">
                          <path id="Trazado_911965" data-name="Trazado 911965" d="M187.676,167.1c0,13.612-31.813,24.647-71.056,24.647S45.564,180.708,45.564,167.1s31.813-24.647,71.056-24.647,71.056,11.035,71.056,24.647" fill="#e8e8e8"/>
                        </g>
                      </g>
                    </g>
                    <g id="Grupo_1112814" data-name="Grupo 1112814" opacity="0.9">
                      <g id="Grupo_1112813" data-name="Grupo 1112813">
                        <g id="Grupo_1112812" data-name="Grupo 1112812" clip-path="url(#clip-path-15)">
                          <path id="Trazado_911966" data-name="Trazado 911966" d="M183.881,167.1c0,12.885-30.114,23.33-67.261,23.33S49.359,179.981,49.359,167.1s30.114-23.33,67.261-23.33,67.261,10.445,67.261,23.33" fill="#e8e8e8"/>
                        </g>
                      </g>
                    </g>
                    <g id="Grupo_1112817" data-name="Grupo 1112817">
                      <g id="Grupo_1112816" data-name="Grupo 1112816">
                        <g id="Grupo_1112815" data-name="Grupo 1112815" clip-path="url(#clip-path-16)">
                          <path id="Trazado_911967" data-name="Trazado 911967" d="M180.086,167.1c0,12.158-28.415,22.014-63.466,22.014S53.154,179.254,53.154,167.1s28.415-22.014,63.466-22.014,63.466,9.856,63.466,22.014" fill="#e8e8e8"/>
                        </g>
                      </g>
                    </g>
                  </g>
                </g>
              </g>
              <path id="Trazado_911968" data-name="Trazado 911968" d="M36.076,29.377s1.792.6,2.689,7.171c.512,3.753.871,7.7,2.335,11.235,2.068,4.992,7.612,6.746,11.451,10.045C60.91,65.01,65.78,75.608,73.613,83.514a73.552,73.552,0,0,0,29.982,18.76s25.694,8.963,46.9,4.183,30.474-8.366,41.528-7.768,12.846,5.676,12.846,5.676,5.975,10.457,4.482,14.341c-6.752,17.558-23.025,29.585-40.313,35.656-14.57,5.116-29.234,9.468-44.676,11.006C99.358,167.86,73.694,162.858,54,146.49,7.993,108.249,25.022,57.46,25.022,57.46S28.308,47.3,28.308,37.742s7.768-8.365,7.768-8.365" fill="#ffd62a"/>
              <path id="Trazado_911969" data-name="Trazado 911969" d="M204.477,117.568c-15.092,5.793-33.145,9.658-49.222,11.424-22.26,2.445-45.429,1.772-65.774-8.607a72.646,72.646,0,0,1-7.711-4.58A79.367,79.367,0,0,1,59.911,97.829C51.3,87.856,44.067,75.965,37.647,63.146a56.415,56.415,0,0,1-2.821-5.423c-2.1-4.687-3.664-9.534-3.578-14.739.072-4.349.7-8.657.905-12.99-1.929.906-3.845,3-3.845,7.748,0,9.561-3.286,19.719-3.286,19.719S7.992,108.249,54,146.49c19.693,16.368,45.357,21.37,70.366,18.879,15.442-1.539,30.105-5.89,44.676-11.007,17.288-6.071,33.561-18.1,40.313-35.656a4.575,4.575,0,0,0,.231-1.8c-1.785.958-3.2-.069-5.11.666" fill="#ffeb6f"/>
              <path id="Trazado_911970" data-name="Trazado 911970" d="M209.012,113.778a99.025,99.025,0,0,1-14.391,8.124c-19.265,8.78-39.443,15.125-60.687,15.473a117.264,117.264,0,0,1-33.529-3.954C80.273,127.777,61.024,113.1,51.214,94.552c-3.808-7.2-7.22-14.6-10.54-22.027-2.558-5.723-5.132-11.571-5.867-17.857-.5-4.305.293-8.578.326-12.881.03-3.92-1.675-7.969-1.038-11.839a.959.959,0,0,0-1.848-.509c-.077.2-.136.408-.2.612-1.891.933-3.736,3.032-3.736,7.691,0,9.56-3.287,19.718-3.287,19.718S7.993,108.249,54,146.49c19.692,16.368,45.356,21.37,70.366,18.878,15.442-1.538,30.105-5.89,44.676-11.007,17.288-6.071,33.56-18.1,40.312-35.656.457-1.189.213-3-.344-4.927" fill="#ffbf00"/>
              <path id="Trazado_911971" data-name="Trazado 911971" d="M202.866,101.618a4.872,4.872,0,0,0-2.7-1.129,7.427,7.427,0,0,0,2.952,7.315,8.521,8.521,0,0,1,1.752,1.341c.913,1.1.793,2.682,1.108,4.07a20.17,20.17,0,0,0,1.709,3.939,5.983,5.983,0,0,1,.647,4.151l4.431-8.1a1.573,1.573,0,0,0,.24-.654c.047-.91-1.254-1.147-2.173-1.055l.795-2.323c.339-.99.66-2.147.076-3.019-1.136-1.7-4.554-.727-5.32-2.617-.4-.994.218-2.371-.608-3.066-.968-.019-1.306,1.741-2.256,1.558a1.522,1.522,0,0,1-.653-.409" fill="#665438"/>
              <path id="Trazado_911972" data-name="Trazado 911972" d="M154.51,55.31c-1.63-.021-4.2-1.868-5.5-2.8a92.821,92.821,0,0,1-14.028-12.6c-3.42-3.678-7.169-7.077-10.127-11.161a23.78,23.78,0,0,1-3.569-6.7c-1.054-3.342-1.628-6.872-3.188-10.042-1.424-2.894-3.979-4.788-6.386-6.818-.3-.253-.717.238-.446.514.129.132.263.257.394.387-.127-.072-.254-.143-.379-.217a.585.585,0,0,0-.862.616.483.483,0,0,0,.011.958c.094.011.186.032.28.046,4.3,1.824,6.653,4.749,7.125,9.6a.492.492,0,0,0-.145-.088c-2.753-1.028-5.088,2.312-6.278,4.284-3.263,5.412-3.426,11.137-1.375,17.05,3.009,8.675,10.731,15,18.908,18.631a31.906,31.906,0,0,0,13.207,3.046,22.442,22.442,0,0,0,7.136-1.2,20.867,20.867,0,0,0,3.222-1.438c.642-.355,2.442-2.069,3.064-2.062l-1.066-.012" fill="#65921f" fill-rule="evenodd"/>
              <path id="Trazado_911973" data-name="Trazado 911973" d="M154.51,55.31c-1.63-.021-4.2-1.868-5.5-2.8a92.821,92.821,0,0,1-14.028-12.6c-3.42-3.678-7.169-7.077-10.127-11.161a23.78,23.78,0,0,1-3.569-6.7c-.434-1.378-.791-2.788-1.166-4.191-.081-.3-1.67,1.864-1.765,2.072-1.747,3.854-.806,10.029.281,13.959a30,30,0,0,0,7.184,12.446c4.373,4.651,9.625,8.567,15.877,10.243,3.106.833,7.27,1.5,10.841.78a22.267,22.267,0,0,0,3.036-2.04l-1.066-.012" fill="#a5bc00" fill-rule="evenodd"/>
              <path id="Trazado_911974" data-name="Trazado 911974" d="M133.948,97.217c-3.4-11.847-12.729-20.663-16.979-32.1a99.072,99.072,0,0,0-8.471-17.37,46.5,46.5,0,0,0-6.856-8.588c-2.4-2.346-5.748-3.247-8.868-4.218a20.68,20.68,0,0,1-7.557-4.278,22.709,22.709,0,0,0-3.269-2.854,9.324,9.324,0,0,0-4.242-1.237c-5.263-.286-9.761,3.494-12.668,7.553a66.346,66.346,0,0,0-5.029,8.685c-2.674,5.294-4.542,11.117-7.942,16.028C45.49,68.333,38.25,75.77,33.942,86.748a41.008,41.008,0,0,0-1.609,24.231c2.042,7.738,5.7,14.926,12.075,20,4.891,3.892,10.107,6.325,15.644,9.066,2.134,1.056,3.954,2.591,6.142,3.556,7.55,3.327,15.9,3.863,23.991,2.661A83.616,83.616,0,0,0,102.3,143.37c3.69-1.126,7.539-1.813,11.056-3.454a36.882,36.882,0,0,0,15.358-13.7q.772-1.212,1.466-2.472c4.426-8.051,6.332-17.574,3.766-26.528" fill="#b8c300" fill-rule="evenodd"/>
              <path id="Trazado_911975" data-name="Trazado 911975" d="M90.117,33.973a.366.366,0,0,1-.1.059c-.607.2-3.362-.815-4.12-1.044-1.9-.572-.589-2.484.237-3.419a63.64,63.64,0,0,0,4.357-5.931c1.662-2.392,3.084-5.167,4.589-7.691.454-.76.72-1.566,1.216-2.285,1.76-2.548,3.516-5.075,5.4-7.452,1.046-1.319,2.035-2.6,3.093-3.895C106.259.519,107.624-1,109.778.824c.929.786,3.265,3.31,2.85,4.624a3.36,3.36,0,0,1-.765,1.1c-1.534,1.89-3.937,2.9-5.745,4.508-5.582,4.969-9.9,11.329-13.463,17.855-.49.9-1.043,1.765-1.507,2.679-.307.607-.507,1.958-1.031,2.381" fill="#855109" fill-rule="evenodd"/>
              <path id="Trazado_911976" data-name="Trazado 911976" d="M100.211,81.326a7.98,7.98,0,0,1-8.018-8.217c-.077-6.11-1.036-13.135-5.628-16.972a9.366,9.366,0,0,0-5.09-1.867,26.621,26.621,0,0,0-10.49,2.06c-15.812,6.139-23.552,23.182-32.9,36.082a11.257,11.257,0,0,1-2.275,2.343c-1.381,6.476-.178,11.549,2.2,19.666,2.694,9.194,12.035,17.889,20.332,22.913a32.475,32.475,0,0,0,27.245,2.948c10.285-3.58,18.239-12.723,21.195-23.2s1.125-22.049-4.159-31.571c-.772-1.392-1.624-2.775-2.406-4.182" fill="#65921f" fill-rule="evenodd"/>
              <path id="Trazado_911977" data-name="Trazado 911977" d="M121.7,114.092a5.344,5.344,0,0,1-4.218-3.328,9.676,9.676,0,0,1-.352-2.413c-.213-2.962-1.743-5.728-2.45-8.578-1.1-4.436-2.931-11.755,3.45-12.406,3.59-.366,5.413,2.64,7.245,5.276a24.194,24.194,0,0,1,4.27,12.447,10.524,10.524,0,0,1-.967,5.617,6.857,6.857,0,0,1-6.978,3.385" fill="#fff59e" fill-rule="evenodd"/>
              <path id="Trazado_911978" data-name="Trazado 911978" d="M118.088,78.235a3.164,3.164,0,0,1-.025,1.349c-.786,2.793-3.036,4.021-5.692,2.779-5.558-2.6-2.007-13.461,2.713-9.6a10.9,10.9,0,0,1,3,5.474" fill="#fff59e" fill-rule="evenodd"/>
              <path id="Trazado_911979" data-name="Trazado 911979" d="M188.85,143.754a2.825,2.825,0,0,1,.493,1.1,36.246,36.246,0,0,0,1.383,4.562,7.358,7.358,0,0,0,2.971,3.623,12.69,12.69,0,0,0,1.546-6.44,2.416,2.416,0,0,0-.544-1.7,7.954,7.954,0,0,0-1.07-.67,3.967,3.967,0,0,1-1.259-2.381q-.373-1.441-.746-2.884a2.632,2.632,0,0,0-.487-1.121.9.9,0,0,0-1.106-.249c-.3.193-.411.606-.717.8-.506.316-1.114-.149-1.618-.469a3.584,3.584,0,0,0-2.856-.423.755.755,0,0,0-.41.229.854.854,0,0,0,.024.811c.64,1.669,1.392,3.471,2.958,4.335a4.73,4.73,0,0,1,1.438.882" fill="#665438"/>
              <path id="Trazado_911980" data-name="Trazado 911980" d="M124.818,71.457c-32.043-1.823-46.646,14.69-46.646,14.69S58.3,99.05,62.746,132.678,100.59,176.6,100.59,176.6s30.816,11.241,60.321-10.354c20.213-14.794,19.685-43.414,9.373-64.251-8.752-17.685-25.7-29.419-45.466-30.543" fill="#d9000d"/>
              <path id="Trazado_911981" data-name="Trazado 911981" d="M175.553,116.663c.663,2.813-5.309,8.98-7.046,10.874-6.176,6.733-13.379,12.439-22.375,14.681-18.683,4.654-44,2.686-60.075-8.54-7.65-5.342-16.438-14.071-18.195-23.547-.961-5.185.13-9.991,1.783-14.7-4.747,7.336-9.265,19.359-6.9,37.25,4.446,33.629,37.843,43.928,37.843,43.928s30.817,11.241,60.321-10.354c15.764-11.537,18.911-31.483,14.643-49.588" fill="#be000b"/>
              <path id="Trazado_911982" data-name="Trazado 911982" d="M169.686,129.338c-.1-3.987-3.321-7.1-6.312-9.742a11.489,11.489,0,0,1,7.182,1.629l-7.9-5.195a20.481,20.481,0,0,1,9.25.505l-10.295-4.314,4.938-1.017a10.409,10.409,0,0,1-4.982-2.868,24.648,24.648,0,0,0,9.468-2.937l-8.947.184,6.994-5.272a26.908,26.908,0,0,1-9.85,2.616l6.84-6.489-7.746,2.83c2.253-2.517,4.67-5.783,3.508-8.955a13.162,13.162,0,0,1-5.624,7.126c1.246-4.242,2.377-9.218-.27-12.759a8.932,8.932,0,0,1-1.693,6.136,19.139,19.139,0,0,0-5.487-10.325,16.328,16.328,0,0,1,.831,8.524,20.836,20.836,0,0,0-7.375-12.354,38.968,38.968,0,0,1,2.607,9.135,17.137,17.137,0,0,0-7.606-11.12q1.218,4.563,2.437,9.126a31.378,31.378,0,0,0-9.924-8.941l1.712,3.277a10.766,10.766,0,0,0-7.122-3.066,36.4,36.4,0,0,1,11.958,13.839A38.776,38.776,0,0,0,117,75.91a23.624,23.624,0,0,1,10.588,9.525,41.521,41.521,0,0,0-13.3-3.218c4.483,1.5,9.272,3.216,11.995,7.08a30.985,30.985,0,0,0-19.862-2.523,19.387,19.387,0,0,1,16.481,7.36,43.621,43.621,0,0,0-16.426-.951,37.276,37.276,0,0,1,16.114,6.539,88.958,88.958,0,0,0-18.286-.957,67.689,67.689,0,0,1,20.007,5.486,48.916,48.916,0,0,1-7.468.643,21.22,21.22,0,0,1,6.831,2.214,86.306,86.306,0,0,0-14.359,5.385,24.907,24.907,0,0,1,15.1-1.385,23.664,23.664,0,0,1-8.148,5.068,35.023,35.023,0,0,1,9.452-1.693c-.458,1.651-2.4,2.271-3.986,2.925a14.751,14.751,0,0,0-6.042,4.641A49.661,49.661,0,0,1,126.8,120.43a62,62,0,0,0-10.483,8.7l9.75-4.1a35.586,35.586,0,0,0-7.032,8.455l9.492-4.3q-3.492,7.2-6.983,14.41l10.516-13.446a75.3,75.3,0,0,1-2.514,10.762,22.834,22.834,0,0,0,6.477-9.447,25.334,25.334,0,0,1,.109,5.812,7.7,7.7,0,0,1,2.227-4.473,54.542,54.542,0,0,1,1.564,12.747l2.172-12.757a88.482,88.482,0,0,1,2.01,11.724q1.395-5.461,2.792-10.924a70.006,70.006,0,0,0,2.968,13,51.835,51.835,0,0,0,2.12-12.519,17.332,17.332,0,0,1,3.991,7.248q-.254-3.937-.505-7.874a43.991,43.991,0,0,1,4.7,9.467,28.331,28.331,0,0,0-1.831-15.281,22.342,22.342,0,0,1,6.451,11.318,27.113,27.113,0,0,0-5.194-12.784,16.087,16.087,0,0,1,6.979,5l-7.029-9.81a14.2,14.2,0,0,1,10.138,7.98" fill="#e44400"/>
              <path id="Trazado_911983" data-name="Trazado 911983" d="M130.739,107.276a2.329,2.329,0,0,0,1.521-4.332c.719.07,1.288-.707,1.281-1.428a3.9,3.9,0,0,0-.8-1.981L129.4,94.31c1.732.891,3.562,1.806,5.508,1.729q-1.833-5.247-4.182-10.3a75,75,0,0,1,7.285,10.864,20.77,20.77,0,0,0-.427-9.409,57.553,57.553,0,0,0,4.172,11.38,47.8,47.8,0,0,0,3.134-10.534q.456,5.061.913,10.122a10.936,10.936,0,0,0,3.575-5.959,23.926,23.926,0,0,1-.215,7.51q2.607-2.6,5.057-5.344-.655,2.445-1.31,4.889a22.538,22.538,0,0,1,3.557-2.161q-2.184,2.835-4.367,5.669a61.49,61.49,0,0,1,6.022-3.914,33.562,33.562,0,0,1-5.462,5.792,51.347,51.347,0,0,1,6.983-1.741,18.621,18.621,0,0,1-5.522,4.13,37.1,37.1,0,0,1,9.07-.468q-3.6,1.848-7.207,3.7a7.148,7.148,0,0,1,6.305,3.109,11.459,11.459,0,0,0-6.385-.578,12.752,12.752,0,0,1,5.834,6.32,18.26,18.26,0,0,0-4.666-1.489,19.546,19.546,0,0,1,5.061,9.605,8.619,8.619,0,0,0-5.907-6.421c1.839,2.71,3.766,5.807,3.152,9.024a10.907,10.907,0,0,0-4.7-6.117,19.183,19.183,0,0,1,.71,4.892l-3.371-3.522a12.281,12.281,0,0,1,.972,8.173,27.5,27.5,0,0,0-4.417-7.739,49.416,49.416,0,0,0-1.072,6.788,23.43,23.43,0,0,0-2.784-8.8,32.427,32.427,0,0,1-1.747,8.592,59.553,59.553,0,0,0-2.068-10.658,12.651,12.651,0,0,0-1.281,3q-.786-3.837-1.892-7.6l-2.294,1.937q.027-2.236.055-4.474l-2.493-.38c.971-.986,2.023-2.273,1.614-3.6-.5-1.606-2.677-1.872-3.872-3.055" fill="#f99300"/>
              <path id="Trazado_911984" data-name="Trazado 911984" d="M148.682,117.514c6.066-1.135-2.065-11.661-3.983-13.322-3.761-3.259-6.355-1.57-6.082,3.074.205,3.487,1.961,7.356,5.09,9.257a7.671,7.671,0,0,0,4.975.991" fill="#a00011"/>
              <path id="Trazado_911985" data-name="Trazado 911985" d="M82.751,87.288A21.194,21.194,0,0,1,88.613,85.3c2.462-.474,5.041-.573,7.086.563,3.5,1.94,4.477,7.044,3.537,11.627-1.734,8.46-9.444,15.925-17.192,16.647-3.024.281-6.113-.448-8.009-2.681-1.873-2.207-2.343-5.607-1.886-8.877a21.261,21.261,0,0,1,10.6-15.292" fill="#fab488"/>
              <path id="Trazado_911986" data-name="Trazado 911986" d="M19.644,37.144s0,13.145-4.183,19.419S4.108,69.41,1.42,80.464s-.9,23.6,0,27.486,6.572,32.266,25.394,52.282,40.93,32.565,69.013,35.254,52.881-3.286,67.52-10.158a65.474,65.474,0,0,0,25.992-22.108c2.688-4.183,2.987-8.365,4.481-10.755s-8.963-14.938-8.963-14.938-4.182-2.39-18.822.9c-12.422,2.789-24.353,7.471-36.876,9.855a72.487,72.487,0,0,1-37.8-2.992c-8.919-3.043-19.037-8.353-26.168-14.565-8.041-7-13.554-16.23-18.9-25.325-5.6-9.534-7.718-20.338-11.712-30.608-2.091-5.378-6.274-16.731-5.079-23.3a58.837,58.837,0,0,1,3.585-11.95s-1.494-7.768-13.444-2.39" fill="#ffc900"/>
              <path id="Trazado_911987" data-name="Trazado 911987" d="M41.222,32.465c1.03-.922,2.36-1.591,3.214-2.77a3.549,3.549,0,0,0,.826-2.709c-.174-.907-1.506-1.618-2.063-2.355a45.229,45.229,0,0,0-4.5-5.11c-1.943-1.9-2.913-3.989-5.535-3.29-2.284.609-5.275,3.189-6.031,5.428S25.95,26.331,24.5,28.2c-.661.855-1.507,1.55-2.2,2.381-2.38,2.857-3.126,6.735-2.886,10.446,1.088-1.029,2.659-1.892,3.747-2.921a20.436,20.436,0,0,0,1.874,8.025c1.474,1.992,1.712-4.272,2.567-6.409a1.456,1.456,0,0,1,.545-.784,2.911,2.911,0,0,1,2.844.67c.815,1.2,2.576,4.841,3.958,4.407.017-1.018.12-2.076.046-3.092-.053-.744-.285-1.472-.3-2.236a8.681,8.681,0,0,1,1.283-4.072c.26-.445.685-1.18,1.273-1.232.8-.071,1.04.766,1.19,1.387.077.324.224,2.5.316,2.523.816.223.952-1.986,1.031-2.426a4.087,4.087,0,0,1,1.426-2.4" fill="#665438"/>
              <path id="Trazado_911988" data-name="Trazado 911988" d="M31.93,17.918c-.3,2.1,1.263,3.979,2.828,5.412,2.54,2.325,5.493,4.369,8.872,5.032a1.677,1.677,0,0,0,1.323-.133c.551-.407.453-1.255.223-1.9-.915-2.574-2.93-4.578-4.883-6.488a13.269,13.269,0,0,0-5.063-3.585,2.712,2.712,0,0,0-2.728.377,2.284,2.284,0,0,0-.572,1.286" fill="#9d8854"/>
              <path id="Trazado_911989" data-name="Trazado 911989" d="M191.581,145.6c2.371,4.47-21.029,14.653-23.828,15.721-30.782,11.739-63.587,16.568-95.9,6.3-.266-.084-.515-.212-.772-.322C39.459,153.845,10.8,126.58.012,93.259A70.967,70.967,0,0,0,1.42,107.95c.9,3.884,6.573,32.266,25.394,52.282s40.93,32.565,69.014,35.254,52.88-3.286,67.519-10.158a65.474,65.474,0,0,0,25.992-22.108c2.689-4.183,2.988-8.365,4.481-10.755.41-.655-1.316-5.159-2.239-6.869" fill="#ffe34b"/>
              <path id="Trazado_911990" data-name="Trazado 911990" d="M177.423,158.409C157.318,172.617,135.63,179.548,111,181.085c-30.64,1.913-62-9.311-82.671-32.057-12.307-13.544-21.62-30.322-24.961-48.42A95.18,95.18,0,0,1,1.653,79.617c-.077.283-.163.558-.233.848-2.689,11.054-.9,23.6,0,27.485s6.572,32.266,25.394,52.283,40.93,32.565,69.013,35.253,52.881-3.286,67.52-10.157a65.49,65.49,0,0,0,25.992-22.108c2.689-4.183,2.987-8.366,4.481-10.756.572-.915-.611-3.323-2.287-5.944a98,98,0,0,1-14.11,11.888" fill="#ffa900"/>
              <path id="Trazado_911991" data-name="Trazado 911991" d="M88.085,122.73a6.039,6.039,0,0,0,5.665,2.553c2.685-.186,5.466-2.018,5.767-4.693a5.106,5.106,0,0,0-3.279-5.067,7.036,7.036,0,0,0-6.2.791,5.9,5.9,0,0,0-1.9,1.835,4.542,4.542,0,0,0-.048,4.581" fill="#fab488"/>
            </g>
          </g>
        </g>
      </g>
    </g>
  </g>
</svg>
