<svg xmlns="http://www.w3.org/2000/svg" xmlns:xlink="http://www.w3.org/1999/xlink" width="72" height="72" viewBox="0 0 72 72">
  <defs>
    <clipPath id="clip-path">
      <rect id="Rectángulo_404482" data-name="Rectángulo 404482" width="41.911" height="51.008" transform="translate(0 0)" fill="none"/>
    </clipPath>
  </defs>
  <g id="Grupo_1113167" data-name="Grupo 1113167" transform="translate(-475 -7521.688)">
    <g id="Grupo_1113164" data-name="Grupo 1113164" transform="translate(56 6400.688)">
      <path id="Trazado_824488" data-name="Trazado 824488" d="M36,0A36,36,0,1,1,0,36,36,36,0,0,1,36,0Z" transform="translate(419 1121)" fill="#89a068"/>
    </g>
    <g id="Grupo_1113166" data-name="Grupo 1113166" transform="translate(491.044 7532.186)">
      <g id="Grupo_1113165" data-name="Grupo 1113165" transform="translate(0 -0.001)" clip-path="url(#clip-path)">
        <path id="Trazado_923370" data-name="Trazado 923370" d="M1275.636,2983.034l.03-.035c.025.046-.014.029-.033.033Z" transform="translate(-1253.842 -2932.042)" fill="#39929d"/>
        <path id="Trazado_923371" data-name="Trazado 923371" d="M1275.318,2984.913l-.005.019.008-.017,0,0" transform="translate(-1253.528 -2933.924)" fill="#39929d"/>
        <rect id="Rectángulo_404479" data-name="Rectángulo 404479" width="5.099" height="0.986" transform="translate(13.336 5.477) rotate(-79.186)" fill="#313133"/>
        <path id="Trazado_923372" data-name="Trazado 923372" d="M775.239,20.99l1.153.22L775.4,26.4l-1.153-.22Zm.933.37-.783-.15-.921,4.823.783.15Z" transform="translate(-761.021 -20.631)" fill="#313133"/>
        <path id="Trazado_923373" data-name="Trazado 923373" d="M802.314,39.364h0a.35.35,0,0,0,.428-.271l.824-4.312a.37.37,0,0,0-.287-.424.35.35,0,0,0-.428.271l-.824,4.312a.37.37,0,0,0,.287.424" transform="translate(-788.321 -33.761)" fill="#313133"/>
        <path id="Trazado_923374" data-name="Trazado 923374" d="M796.523,33.494l.824-4.312a.433.433,0,0,1,.19-.283.453.453,0,0,1,.352-.062.466.466,0,0,1,.358.534l-.823,4.312a.433.433,0,0,1-.19.283.453.453,0,0,1-.351.062.469.469,0,0,1-.133-.053.463.463,0,0,1-.225-.481m1.323-4.473a.266.266,0,0,0-.207.036.246.246,0,0,0-.108.161l-.824,4.312a.277.277,0,0,0,.215.315.266.266,0,0,0,.207-.036.246.246,0,0,0,.108-.161l.824-4.312a.273.273,0,0,0-.134-.283.284.284,0,0,0-.081-.032" transform="translate(-782.909 -28.333)" fill="#313133"/>
        <path id="Trazado_923375" data-name="Trazado 923375" d="M773.569,11.4a.884.884,0,0,0,.252.1.86.86,0,0,0,.658-.117.828.828,0,0,0,.363-.542l.824-4.312a.865.865,0,0,0-1.32-.881.828.828,0,0,0-.363.542l-.824,4.312a.853.853,0,0,0,.41.9" transform="translate(-759.937 -5.418)" fill="#313133"/>
        <path id="Trazado_923376" data-name="Trazado 923376" d="M767.666,5.068,768.49.756a.922.922,0,0,1,.4-.6.959.959,0,0,1,1.464.977l-.824,4.312a.922.922,0,0,1-.4.6.954.954,0,0,1-.73.13.979.979,0,0,1-.279-.11.952.952,0,0,1-.454-1M769.583.207a.765.765,0,0,0-.586.1.734.734,0,0,0-.322.481L767.851,5.1a.763.763,0,0,0,.365.8.79.79,0,0,0,.226.089.765.765,0,0,0,.586-.1.735.735,0,0,0,.322-.481l.824-4.312a.76.76,0,0,0-.365-.8.788.788,0,0,0-.225-.089" transform="translate(-754.536 0.001)" fill="#313133"/>
        <rect id="Rectángulo_404480" data-name="Rectángulo 404480" width="0.986" height="4.812" transform="matrix(0.843, -0.538, 0.538, 0.843, 5.222, 3.21)" fill="#313133"/>
        <path id="Trazado_923377" data-name="Trazado 923377" d="M298.111,149.888l.99-.632,2.691,4.215-.99.632Zm.932-.372-.672.429,2.488,3.9.672-.429Z" transform="translate(-293.019 -146.706)" fill="#313133"/>
        <path id="Trazado_923378" data-name="Trazado 923378" d="M331.732,168.291h0a.393.393,0,0,0,.1-.531l-2.166-3.392a.393.393,0,1,0-.663.423l2.166,3.392a.393.393,0,0,0,.56.108" transform="translate(-323.324 -161.381)" fill="#313133"/>
        <path id="Trazado_923379" data-name="Trazado 923379" d="M325.67,162.8l-2.166-3.392a.487.487,0,0,1,.5-.741.482.482,0,0,1,.318.216l2.166,3.392a.487.487,0,0,1-.127.659h0a.483.483,0,0,1-.376.082l-.018,0a.483.483,0,0,1-.3-.212m.64.057-.055-.077a.3.3,0,0,0,.078-.4l-2.166-3.392a.3.3,0,0,0-.5.322l2.166,3.392a.3.3,0,0,0,.426.082Z" transform="translate(-317.902 -155.952)" fill="#313133"/>
        <path id="Trazado_923380" data-name="Trazado 923380" d="M302.938,140.485l.032.007a.89.89,0,0,0,.684-.15h0a.886.886,0,0,0,.231-1.2l-2.166-3.392a.886.886,0,0,0-1.494.954l2.166,3.392a.89.89,0,0,0,.547.386" transform="translate(-294.959 -133.031)" fill="#313133"/>
        <path id="Trazado_923381" data-name="Trazado 923381" d="M296.892,134.73l-2.166-3.392a.98.98,0,1,1,1.652-1.055l2.166,3.392a.98.98,0,0,1-.256,1.325l-.008.006h0a.984.984,0,0,1-.748.16l-.035-.007a.989.989,0,0,1-.605-.428m1.494-.954-2.166-3.392a.792.792,0,0,0-1.335.852l2.166,3.392a.792.792,0,0,0,1.128.218l0,0a.792.792,0,0,0,.2-1.068" transform="translate(-289.54 -127.612)" fill="#313133"/>
        <rect id="Rectángulo_404481" data-name="Rectángulo 404481" width="0.986" height="4.738" transform="translate(0.416 10.465) rotate(-72.038)" fill="#313133"/>
        <path id="Trazado_923382" data-name="Trazado 923382" d="M17.413,551.873l.362-1.117,4.687,1.519-.362,1.117Zm.483-.88-.246.759,4.328,1.4.246-.759Z" transform="translate(-17.116 -541.348)" fill="#313133"/>
        <path id="Trazado_923383" data-name="Trazado 923383" d="M38.86,560.389h0a.381.381,0,0,0-.237-.5l-3.781-1.226a.381.381,0,0,0-.472.223h0a.381.381,0,0,0,.237.5l3.781,1.226a.381.381,0,0,0,.472-.223" transform="translate(-33.756 -549.099)" fill="#313133"/>
        <path id="Trazado_923384" data-name="Trazado 923384" d="M32.955,555.293l-3.781-1.226a.475.475,0,0,1,.293-.9l3.781,1.226a.475.475,0,0,1-.254.915l-.039-.011m-3.9-1.783a.287.287,0,0,0,.179.378l3.781,1.226a.288.288,0,0,0,.356-.168.287.287,0,0,0-.179-.378l-3.781-1.226-.024-.007a.288.288,0,0,0-.332.174" transform="translate(-28.353 -543.691)" fill="#313133"/>
        <path id="Trazado_923385" data-name="Trazado 923385" d="M9.97,532.75a.876.876,0,0,0,1.01-.531h0a.874.874,0,0,0-.544-1.152l-3.781-1.226a.874.874,0,1,0-.539,1.663L9.9,532.73c.024.008.048.015.073.02" transform="translate(-5.418 -520.748)" fill="#313133"/>
        <path id="Trazado_923386" data-name="Trazado 923386" d="M4.45,527.4.67,526.172a.968.968,0,1,1,.6-1.842l3.781,1.226a.968.968,0,0,1-.517,1.865h0c-.027-.006-.054-.014-.08-.022M.243,524.965a.78.78,0,0,0,.485,1.028l3.781,1.226c.021.007.043.013.065.018a.78.78,0,0,0,.416-1.5l-3.781-1.226-.065-.018a.782.782,0,0,0-.9.474" transform="translate(0 -515.327)" fill="#313133"/>
        <path id="Trazado_923387" data-name="Trazado 923387" d="M418.9,1729.751a12.071,12.071,0,0,1-1.033-3.212l0,0a17.139,17.139,0,0,0,1.029,3.209" transform="translate(-410.732 -1697.046)" fill="#e20037"/>
        <path id="Trazado_923388" data-name="Trazado 923388" d="M393.206,576.483a17.9,17.9,0,0,1-17.853,17.9v5.173a.454.454,0,0,1-.717.371,68.1,68.1,0,0,1-12.565-11.386,24.994,24.994,0,0,1-3.2-4.953,17.748,17.748,0,0,1-1.065-3.323,17.9,17.9,0,1,1,35.4-3.785" transform="translate(-351.295 -549.038)" fill="#f69f07"/>
        <path id="Trazado_923389" data-name="Trazado 923389" d="M446.458,2027.669a17.921,17.921,0,0,1-3.2-4.952,24.993,24.993,0,0,0,3.2,4.952" transform="translate(-435.681 -1988.164)" fill="#f69f07"/>
        <path id="Trazado_923390" data-name="Trazado 923390" d="M133.923,510.439a1.6,1.6,0,0,1-.93-.3,66.261,66.261,0,0,1-12.368-11.216,25.263,25.263,0,0,1-3.244-5.021l-.014-.032a18.356,18.356,0,0,1-1.1-3.428,18.545,18.545,0,0,1-.414-3.9,18.469,18.469,0,1,1,19.678,18.42v3.865a1.611,1.611,0,0,1-1.609,1.61m-14.416-17.512a22.988,22.988,0,0,0,2.939,4.529,62.67,62.67,0,0,0,10.746,9.937v-4.727l1.167,0a16.11,16.11,0,1,0-14.852-9.736" transform="translate(-113.875 -460.089)" fill="#313133"/>
        <path id="Trazado_923391" data-name="Trazado 923391" d="M207.706,1927.491a18.432,18.432,0,0,1-3.3-5.106l2.133-.962a22.95,22.95,0,0,0,2.946,4.545Z" transform="translate(-200.91 -1888.601)" fill="#313133"/>
        <path id="Trazado_923392" data-name="Trazado 923392" d="M1099.193,910.423a4.814,4.814,0,0,1-.1,1.069,1.349,1.349,0,0,1-1.031,1.077,4.014,4.014,0,0,1-1.054.116,4.1,4.1,0,0,1-1.062-.116,1.408,1.408,0,0,1-.674-.38,1.48,1.48,0,0,1-.349-.7,4.807,4.807,0,0,1-.1-1.069,5,5,0,0,1,.1-1.093,1.539,1.539,0,0,1,.349-.713,1.379,1.379,0,0,1,.674-.387,4.1,4.1,0,0,1,1.062-.116,4.013,4.013,0,0,1,1.054.116,1.429,1.429,0,0,1,.674.387,1.5,1.5,0,0,1,.356.713,5.011,5.011,0,0,1,.1,1.093m-.48-4.541a.64.64,0,0,1-.093.279.583.583,0,0,1-.271.209,2.045,2.045,0,0,1-.527.132,7.207,7.207,0,0,1-1.635,0,2.033,2.033,0,0,1-.519-.132.582.582,0,0,1-.271-.209.632.632,0,0,1-.093-.279l-.4-14.071a.607.607,0,0,1,.426-.612,2.435,2.435,0,0,1,.651-.147,9.431,9.431,0,0,1,1.031-.047,7.941,7.941,0,0,1,1.023.054,2.619,2.619,0,0,1,.643.155.752.752,0,0,1,.341.248.6.6,0,0,1,.1.349Z" transform="translate(-1076.121 -875.786)" fill="#313133"/>
      </g>
    </g>
  </g>
</svg>
