<svg xmlns="http://www.w3.org/2000/svg" width="85" height="85" viewBox="0 0 85 85">
  <g id="Grupo_1107856" data-name="Grupo 1107856" transform="translate(-705 -938)">
    <rect id="BG" width="85" height="85" rx="5" transform="translate(705 938)" fill="#e0ecf9" opacity="0.949"/>
    <circle id="Elipse_11658" data-name="Elipse 11658" cx="31.5" cy="31.5" r="31.5" transform="translate(716 949)" fill="#b4d1f0"/>
    <g id="Grupo_1107847" data-name="Grupo 1107847" transform="translate(721 952)">
      <g id="Grupo_1107853" data-name="Grupo 1107853" transform="translate(0.856 5.769)">
        <path id="Trazado_898187" data-name="Trazado 898187" d="M52.525,73.98A59.089,59.089,0,0,0,66.194,52.709a3.282,3.282,0,0,1,5.4-1.179l.229.231a29.359,29.359,0,0,1-41.735,41.3l-.037-.037a3.277,3.277,0,0,1,1.2-5.378A59.09,59.09,0,0,0,52.525,73.98Z" transform="translate(-29.103 -50.565)" fill="#4aa032"/>
        <circle id="Elipse_11654" data-name="Elipse 11654" cx="4.651" cy="4.651" r="4.651" transform="translate(36.301 7.17)" fill="#70d65b"/>
        <path id="Trazado_898188" data-name="Trazado 898188" d="M351.378,121.346A4.628,4.628,0,0,0,353.3,122.5a4.652,4.652,0,1,1,0-8.895,4.653,4.653,0,0,0-1.922,7.737Z" transform="translate(-310.981 -106.236)" fill="#58b741"/>
        <ellipse id="Elipse_11655" data-name="Elipse 11655" cx="6.948" cy="6.948" rx="6.948" ry="6.948" transform="translate(32.208 20.007)" fill="#70d65b"/>
        <path id="Trazado_898189" data-name="Trazado 898189" d="M317.146,237.788a6.914,6.914,0,0,0,3.054,1.782,6.948,6.948,0,1,1,0-13.39,6.948,6.948,0,0,0-3.054,11.608Z" transform="translate(-279.187 -205.921)" fill="#58b741"/>
        <circle id="Elipse_11656" data-name="Elipse 11656" cx="4.651" cy="4.651" r="4.651" transform="translate(7.176 36.295)" fill="#70d65b"/>
        <path id="Trazado_898190" data-name="Trazado 898190" d="M96.1,376.619a4.629,4.629,0,0,0,1.922,1.158,4.652,4.652,0,1,1,0-8.895,4.653,4.653,0,0,0-1.922,7.737Z" transform="translate(-84.827 -332.384)" fill="#58b741"/>
        <ellipse id="Elipse_11657" data-name="Elipse 11657" cx="6.948" cy="6.948" rx="6.948" ry="6.948" transform="translate(19.611 32.604)" fill="#70d65b"/>
        <path id="Trazado_898191" data-name="Trazado 898191" d="M206.736,348.2a6.914,6.914,0,0,0,3.054,1.782,6.948,6.948,0,1,1,0-13.39,6.948,6.948,0,0,0-3.054,11.608Z" transform="translate(-181.373 -303.735)" fill="#58b741"/>
      </g>
      <g id="Grupo_1107854" data-name="Grupo 1107854" transform="translate(0 0)">
        <path id="Trazado_898192" data-name="Trazado 898192" d="M349.2,115.306a5.513,5.513,0,1,0-3.894,1.61A5.513,5.513,0,0,0,349.2,115.306Zm-6.578-6.578a3.8,3.8,0,1,1,0,5.368A3.77,3.77,0,0,1,342.624,108.728Z" transform="translate(-303.5 -93.822)"/>
        <path id="Trazado_898193" data-name="Trazado 898193" d="M317.244,231.772a7.813,7.813,0,1,0-5.518,2.282A7.813,7.813,0,0,0,317.244,231.772Zm-11.61-5.518a6.092,6.092,0,1,1,1.784,4.308A6.052,6.052,0,0,1,305.634,226.254Z" transform="translate(-271.715 -193.53)"/>
        <path id="Trazado_898194" data-name="Trazado 898194" d="M86.136,362.8a5.507,5.507,0,1,0,3.894-1.613A5.513,5.513,0,0,0,86.136,362.8Zm6.578,6.578a3.8,3.8,0,1,1,0-5.368A3.8,3.8,0,0,1,92.714,369.375Z" transform="translate(-77.347 -319.976)"/>
        <path id="Trazado_898195" data-name="Trazado 898195" d="M201.316,328.833a7.8,7.8,0,1,0,5.518,2.286A7.752,7.752,0,0,0,201.316,328.833Zm4.308,12.112a6.092,6.092,0,1,1,1.785-4.308A6.052,6.052,0,0,1,205.624,340.945Z" transform="translate(-173.902 -291.316)"/>
        <path id="Trazado_898196" data-name="Trazado 898196" d="M73.869,186.21a.856.856,0,0,0-1.682.316,28.479,28.479,0,0,1-27.98,33.832h-.078a28.325,28.325,0,0,1-20.08-8.35l-.035-.035a2.357,2.357,0,0,1-.641-2.207A2.429,2.429,0,0,1,24.907,208a59.99,59.99,0,0,0,6.247-2.732.856.856,0,0,0-.774-1.526,58.274,58.274,0,0,1-6.068,2.653,4.133,4.133,0,0,0-2.611,3,4.092,4.092,0,0,0,1.1,3.782l.039.039a30.024,30.024,0,0,0,21.284,8.85h.082a30.19,30.19,0,0,0,29.662-35.86Z" transform="translate(-21.604 -164.347)"/>
        <path id="Trazado_898197" data-name="Trazado 898197" d="M121.44,39.391a.852.852,0,0,0,.43-.116,60.349,60.349,0,0,0,12.3-9.487A59.676,59.676,0,0,0,148.039,8.21a2.426,2.426,0,0,1,3.994-.872l.223.225a28.079,28.079,0,0,1,6.8,11.353.856.856,0,1,0,1.633-.512,29.775,29.775,0,0,0-7.214-12.039l-.235-.237a4.126,4.126,0,0,0-3.813-1.118,4.179,4.179,0,0,0-.5.142,6.651,6.651,0,0,0-.406-.677,5.619,5.619,0,0,0,1.153-3.468.856.856,0,1,0-1.711,0,3.947,3.947,0,0,1-.579,2.11c-1.851-1.858-4.574-3.322-6.4-3.093-.674.084-2.241.542-2.241,2.966a3.6,3.6,0,0,0,1.455,3,5.178,5.178,0,0,0,3.1.934,6.965,6.965,0,0,0,3.962-1.244,4.02,4.02,0,0,1,.2.373,4.142,4.142,0,0,0-1.033,1.566,57.974,57.974,0,0,1-13.472,20.963A58.635,58.635,0,0,1,121.009,37.8a.856.856,0,0,0,.431,1.6ZM143.3,5.208a3.474,3.474,0,0,1-2.073-.591,1.925,1.925,0,0,1-.772-1.627c0-1.175.5-1.238.742-1.268a1.766,1.766,0,0,1,.221-.013c1.293,0,3.358,1.236,4.765,2.64A5.214,5.214,0,0,1,143.3,5.208Z" transform="translate(-109.291 0)"/>
      </g>
    </g>
  </g>
</svg>
