<svg xmlns="http://www.w3.org/2000/svg" width="85" height="85" viewBox="0 0 85 85">
  <g id="Grupo_1107857" data-name="Grupo 1107857" transform="translate(-810 -938)">
    <rect id="BG" width="85" height="85" rx="5" transform="translate(810 938)" fill="#e0ecf9" opacity="0.949"/>
    <circle id="Elipse_11659" data-name="Elipse 11659" cx="31.5" cy="31.5" r="31.5" transform="translate(821 949)" fill="#b4d1f0"/>
    <g id="Grupo_1107844" data-name="Grupo 1107844" transform="translate(823 951)">
      <g id="Grupo_1107844-2" data-name="Grupo 1107844" transform="translate(0.895 0.897)">
        <path id="Trazado_898157" data-name="Trazado 898157" d="M269.026,20.2c7.42,7.421-9.131,14.36-14.186,15.932a21.008,21.008,0,0,0-9.127-9.127,20.092,20.092,0,0,0-1.932-.866C246.826,18.383,247.76,5,255.85,9.358a5.263,5.263,0,0,1,2.48,2.525c3.931-3.892,8.543-6.282,12.457-2.369C274.226,12.954,272.467,16.792,269.026,20.2Z" transform="translate(-216.416 -7.515)" fill="#70d65b"/>
        <path id="Trazado_898158" data-name="Trazado 898158" d="M37.95,154.919c-13.766-1.5-25.5,37.532-23.071,39.961s41.464-9.305,39.961-23.071a17.088,17.088,0,0,0-1.856-5.906,21.006,21.006,0,0,0-9.127-9.127A17.09,17.09,0,0,0,37.95,154.919Z" transform="translate(-14.559 -137.284)" fill="#ff8040"/>
        <path id="Trazado_898159" data-name="Trazado 898159" d="M14.88,194.881c-2.43-2.43,9.3-41.464,23.071-39.961a17.107,17.107,0,0,1,5.907,1.856,20.97,20.97,0,0,1,5.28,3.844,3.816,3.816,0,0,0-2.46-1.025,8.394,8.394,0,0,0-3.508.542C34.12,163.352,13.952,193.952,14.88,194.881Z" transform="translate(-14.56 -137.284)" fill="#ed761d"/>
        <path id="Trazado_898160" data-name="Trazado 898160" d="M258.333,19.19a58.994,58.994,0,0,0-8.857,12.255L247.439,35.3q-.835-.532-1.722-.986a20.093,20.093,0,0,0-1.932-.866c3.044-7.759,3.978-21.14,12.068-16.783A5.263,5.263,0,0,1,258.333,19.19Z" transform="translate(-216.419 -14.822)" fill="#58b741"/>
      </g>
      <g id="Grupo_1107845" data-name="Grupo 1107845" transform="translate(0 0)">
        <path id="Trazado_898161" data-name="Trazado 898161" d="M62.958,2.263A6.907,6.907,0,0,0,57.02.056c-2.163.27-4.492,1.539-6.95,3.781a6.726,6.726,0,0,0-2.258-1.885,5.832,5.832,0,0,0-5.156-.592c-3.355,1.423-4.783,6.5-6.3,11.874-.494,1.756-1,3.562-1.571,5.151a16.316,16.316,0,0,0-3.347-.742c-3.742-.409-7.546,1.783-11.307,6.514a63.706,63.706,0,0,0-8.29,15.059.9.9,0,1,0,1.66.671c.694-1.716,1.569-3.727,2.6-5.811l3.549,3.549a.9.9,0,0,0,1.266-1.266L16.972,32.4a47.2,47.2,0,0,1,4.567-7.133,23.583,23.583,0,0,1,3.154-3.326,37.95,37.95,0,0,1,5.275,5.395.9.9,0,1,0,1.393-1.125,40.28,40.28,0,0,0-5.193-5.373,7.736,7.736,0,0,1,5.081-1.419,16.232,16.232,0,0,1,5.6,1.763,20.234,20.234,0,0,1,8.738,8.738,16.235,16.235,0,0,1,1.763,5.6c.253,2.316-.755,5.931-6.675,10.346a27.71,27.71,0,0,0-5.3-6.286.9.9,0,0,0-1.162,1.363,26.185,26.185,0,0,1,5,5.965,76.554,76.554,0,0,1-18.589,8.627A63.859,63.859,0,0,1,12.652,57.6a9.86,9.86,0,0,1-3.725.244c-.075-.274-.248-1.38.43-4.7a74.729,74.729,0,0,1,2.8-9.716.9.9,0,1,0-1.687-.6A74.892,74.892,0,0,0,7.529,53.153c-.848,4.347-.385,5.476.113,5.974.188.188.583.583,2.147.583a30.443,30.443,0,0,0,7.173-1.243,90.723,90.723,0,0,0,15.524-5.717A47.922,47.922,0,0,0,44.393,45.1c3.493-3.26,5.085-6.55,4.732-9.776a17.429,17.429,0,0,0-1.5-5.278,51.1,51.1,0,0,0,6.757-2.927.9.9,0,1,0-.833-1.585,48.934,48.934,0,0,1-6.737,2.9,22.053,22.053,0,0,0-9.155-8.841q-.6-.306-1.2-.567c.594-1.656,1.116-3.507,1.622-5.306,1.331-4.731,2.708-9.623,5.271-10.71a4.113,4.113,0,0,1,3.608.52A4.726,4.726,0,0,1,48.77,5.1q-.586.6-1.18,1.278a60.527,60.527,0,0,0-6.246,8.745.9.9,0,0,0,1.539.916,58.727,58.727,0,0,1,6.052-8.478c3.081-3.5,5.876-5.429,8.307-5.732a5.136,5.136,0,0,1,4.449,1.7,4.588,4.588,0,0,1,1.552,4.06C62.7,11.244,57.5,15.969,48.97,20.551a.9.9,0,1,0,.847,1.578,60.7,60.7,0,0,0,9.167-5.936q.821-.667,1.532-1.324a4,4,0,0,1,1.018,2.969c-.2,1.888-1.99,3.986-5.185,6.068a.9.9,0,1,0,.978,1.5c3.715-2.421,5.73-4.905,5.989-7.383A5.832,5.832,0,0,0,61.793,13.6,11.18,11.18,0,0,0,65.015,7.85,6.343,6.343,0,0,0,62.958,2.263Z" transform="translate(-7.059 0)"/>
        <path id="Trazado_898162" data-name="Trazado 898162" d="M107.2,392.146a.9.9,0,0,0,.633-1.529l-3.5-3.5a.9.9,0,1,0-1.266,1.266l3.5,3.5A.892.892,0,0,0,107.2,392.146Z" transform="translate(-91.37 -340.669)"/>
      </g>
    </g>
  </g>
</svg>
