<svg xmlns="http://www.w3.org/2000/svg" width="44.916" height="54.542" viewBox="0 0 44.916 54.542">
  <g id="Grupo_1099824" data-name="Grupo 1099824" transform="translate(-185.967 -2034)">
    <g id="Grupo_1098793" data-name="Grupo 1098793" transform="translate(-1 -3734.152)">
      <rect id="Rectángulo_401646" data-name="Rectángulo 401646" width="34" height="54" rx="4" transform="translate(190.73 5768.152)" fill="#f1cdcd"/>
    </g>
    <g id="cocinero_1_" data-name="cocinero (1)" transform="translate(171.791 2034.439)">
      <path id="Trazado_888672" data-name="Trazado 888672" d="M55.132,85.708A5.418,5.418,0,0,0,51,81.012L40.93,78.606l-.4-4.7h0a15.208,15.208,0,0,1-2.068,1.277,5.5,5.5,0,0,1-5,0A15.157,15.157,0,0,1,31.4,73.908h0l-.4,4.7L20.92,81.012a5.418,5.418,0,0,0-4.128,4.7l-.863,8.114H56Z" transform="translate(-1.022 -40.451)" fill="#feb983"/>
      <path id="Trazado_888673" data-name="Trazado 888673" d="M76.142,100.4H50.471V92.19l10.606-7.01,10.073,2.4a5.418,5.418,0,0,1,4.129,4.7Z" transform="translate(-21.169 -47.025)" fill="#edebed"/>
      <path id="Trazado_888674" data-name="Trazado 888674" d="M35.963,88.464,31,85.18l-10.073,2.4a5.418,5.418,0,0,0-4.13,4.7L15.93,100.4H30.324V92.19Z" transform="translate(-1.023 -47.025)" fill="#dbd9dc"/>
      <path id="Trazado_888675" data-name="Trazado 888675" d="M34.656,44.369s-2.33-1.118-3.114.944a3.1,3.1,0,0,0,3.8,4H54.611a3.1,3.1,0,0,0,3.8-4c-.784-2.061-3.114-.944-3.114-.944Z" transform="translate(-10.035 -23.045)" fill="#feb983"/>
      <path id="Trazado_888676" data-name="Trazado 888676" d="M39.241,36.381s3.567-2.247,10.318-2.247,10.318,2.247,10.318,2.247v2.195c0,8.115-4.765,11.85-7.819,13.411a5.5,5.5,0,0,1-5,0c-3.054-1.56-7.819-5.3-7.819-13.411Z" transform="translate(-14.619 -17.252)" fill="#fcd0a3"/>
      <path id="Trazado_888677" data-name="Trazado 888677" d="M36.714,20.15V13.073A3.629,3.629,0,1,1,41.37,7.667a3.626,3.626,0,0,1,5.662,0,3.626,3.626,0,0,1,5.662,0,3.629,3.629,0,1,1,4.656,5.406V20.15S53.783,17.9,47.032,17.9,36.714,20.15,36.714,20.15Z" transform="translate(-12.092 -1.021)" fill="#edebed"/>
      <path id="Trazado_888678" data-name="Trazado 888678" d="M39.241,31.715s3.567-2.247,10.318-2.247,10.318,2.247,10.318,2.247V28.381s-3.567-2.247-10.318-2.247-10.318,2.247-10.318,2.247Z" transform="translate(-14.619 -12.586)" fill="#dbd9dc"/>
      <g id="Grupo_1099823" data-name="Grupo 1099823" transform="translate(14.176 4.555)">
        <path id="Trazado_888679" data-name="Trazado 888679" d="M15.551,107.145a.731.731,0,0,0-.8.648l-.568,5.334a.73.73,0,0,0,.648.8c.026,0,.052,0,.078,0a.73.73,0,0,0,.724-.652l.568-5.334A.73.73,0,0,0,15.551,107.145Z" transform="translate(-14.176 -64.389)"/>
        <path id="Trazado_888680" data-name="Trazado 888680" d="M18.675,94.345a.729.729,0,0,0-1.019.162,6.118,6.118,0,0,0-.926,1.883.729.729,0,1,0,1.4.411,4.68,4.68,0,0,1,.708-1.437.729.729,0,0,0-.163-1.019Z" transform="translate(-15.649 -56.845)"/>
        <path id="Trazado_888681" data-name="Trazado 888681" d="M62.932,53.294l-.863-8.114a6.158,6.158,0,0,0-4.685-5.328l-9.561-2.284L47.5,33.793a14.327,14.327,0,0,0,4.815-6.73c.121.009.243.018.36.018a3.657,3.657,0,0,0,2.9-1.284,3.971,3.971,0,0,0,.711-3.789,2.546,2.546,0,0,0-1.426-1.529,3.038,3.038,0,0,0-1.641-.133v-7.9a4.357,4.357,0,0,0-1.892-7.84.73.73,0,0,0-.22,1.442,2.9,2.9,0,0,1,1.016,5.373.73.73,0,0,0-.362.63v2.558a23.762,23.762,0,0,0-9.589-1.791,23.762,23.762,0,0,0-9.589,1.791V12.052a.73.73,0,0,0-.362-.63,2.9,2.9,0,1,1,3.72-4.32.754.754,0,0,0,1.137,0,2.9,2.9,0,0,1,4.525,0,.753.753,0,0,0,1.137,0,2.9,2.9,0,0,1,4.525,0A.729.729,0,1,0,48.4,6.189,4.356,4.356,0,0,0,42.173,5.6a4.357,4.357,0,0,0-5.662,0,4.358,4.358,0,1,0-5.386,6.845v7.9a3.036,3.036,0,0,0-1.641.133,2.547,2.547,0,0,0-1.426,1.529A3.972,3.972,0,0,0,28.77,25.8a3.654,3.654,0,0,0,2.9,1.284c.118,0,.239-.009.36-.018a14.331,14.331,0,0,0,4.815,6.73l-.321,3.775L27.137,39.81a.729.729,0,0,0,.167,1.439.742.742,0,0,0,.17-.02l9.591-2.292,3.784,2.5L36.13,44.555a.729.729,0,0,0-.327.608V53.37a.729.729,0,1,0,1.459,0V45.556l10.017-6.618,9.766,2.334a4.7,4.7,0,0,1,3.573,4.064l.864,8.114a.729.729,0,0,0,.724.652.545.545,0,0,0,.078,0,.73.73,0,0,0,.648-.8ZM54.324,21.835a1.106,1.106,0,0,1,.6.692,2.52,2.52,0,0,1-.465,2.334,2.2,2.2,0,0,1-1.722.759,18.147,18.147,0,0,0,.474-3.779A1.853,1.853,0,0,1,54.324,21.835ZM42.173,14.277a21.454,21.454,0,0,1,9.589,1.95v1.716a23.762,23.762,0,0,0-9.589-1.791,23.762,23.762,0,0,0-9.589,1.791V16.227A21.469,21.469,0,0,1,42.173,14.277ZM29.888,24.859a2.518,2.518,0,0,1-.465-2.334,1.1,1.1,0,0,1,.6-.692,1.852,1.852,0,0,1,1.114.006,18.149,18.149,0,0,0,.474,3.779,2.2,2.2,0,0,1-1.722-.76Zm2.7-3.536V19.56a21.508,21.508,0,0,1,9.589-1.949,21.512,21.512,0,0,1,9.589,1.949v1.763c0,7.8-4.65,11.345-7.422,12.761a4.775,4.775,0,0,1-4.334,0C37.234,32.668,32.584,29.127,32.584,21.323Zm5.384,16.461.258-3.032c.391.242.768.452,1.116.63a6.238,6.238,0,0,0,5.661,0c.349-.178.725-.388,1.116-.63l.258,3.032-4.2,2.78Z" transform="translate(-21.409 -4.555)"/>
        <path id="Trazado_888682" data-name="Trazado 888682" d="M62.263,62.589a.729.729,0,1,0-.714-1.272,5.952,5.952,0,0,1-4.667,0,.73.73,0,0,0-.718,1.27,7.337,7.337,0,0,0,6.1,0Z" transform="translate(-38.449 -37.607)"/>
        <path id="Trazado_888683" data-name="Trazado 888683" d="M52.079,41.008a.729.729,0,1,0,.971-1.089,3.624,3.624,0,0,0-4.295,0,.723.723,0,0,0-.054,1.014.736.736,0,0,0,1.024.076,2.234,2.234,0,0,1,2.355,0Z" transform="translate(-34.207 -24.769)"/>
        <path id="Trazado_888684" data-name="Trazado 888684" d="M53.836,46.8A1.006,1.006,0,1,0,52.83,47.8,1.006,1.006,0,0,0,53.836,46.8Z" transform="translate(-36.134 -28.606)"/>
        <path id="Trazado_888685" data-name="Trazado 888685" d="M69.248,41.013a2.235,2.235,0,0,1,2.355,0,.729.729,0,0,0,.971-1.089,3.626,3.626,0,0,0-4.295,0,.723.723,0,0,0-.055,1.014A.736.736,0,0,0,69.248,41.013Z" transform="translate(-45.594 -24.774)"/>
        <circle id="Elipse_11491" data-name="Elipse 11491" cx="1.006" cy="1.006" r="1.006" transform="translate(23.818 19.191) rotate(-89.586)"/>
        <path id="Trazado_888686" data-name="Trazado 888686" d="M58.591,106.99A1.006,1.006,0,1,0,59.6,108,1.006,1.006,0,0,0,58.591,106.99Z" transform="translate(-39.495 -64.301)"/>
        <path id="Trazado_888687" data-name="Trazado 888687" d="M58.591,116.864A1.006,1.006,0,1,0,59.6,117.87,1.006,1.006,0,0,0,58.591,116.864Z" transform="translate(-39.495 -70.06)"/>
      </g>
    </g>
    <g id="comida-sana" transform="translate(209.438 2068.424)">
      <path id="Trazado_888688" data-name="Trazado 888688" d="M253.68,32.9c0,2.827,1.827,5.14,4.061,5.14h2.383a3.337,3.337,0,0,0,1.733-.495,5.415,5.415,0,0,0,2.328-4.645,4.726,4.726,0,0,0-1.274-3.324,4.659,4.659,0,0,1-1.035-1.652,5.772,5.772,0,0,1-.336-1.458c-.02-.2-.03-.4-.03-.6,0-1.794-1.16-3.262-2.578-3.262a2.337,2.337,0,0,0-1.82.958,3.73,3.73,0,0,0-.757,2.3,5.3,5.3,0,0,1-1.4,3.713,4.257,4.257,0,0,0-.927,1.451,5.147,5.147,0,0,0-.346,1.874Zm0,0" transform="translate(-253.363 -21.677)" fill="#35e298"/>
      <path id="Trazado_888689" data-name="Trazado 888689" d="M253.683,119.676a6.216,6.216,0,0,0,.79,2.793l1.915,3.482a5.415,5.415,0,0,0,2.328-4.645,4.727,4.727,0,0,0-1.274-3.324,4.662,4.662,0,0,1-1.035-1.652,5.78,5.78,0,0,1-.336-1.458,4.387,4.387,0,0,0-2.053,2.573,6.217,6.217,0,0,0-.335,2.232Zm0,0" transform="translate(-247.896 -110.081)" fill="#1ab975"/>
      <path id="Trazado_888690" data-name="Trazado 888690" d="M307.969,202.728a3.06,3.06,0,1,0,3.06-3.06A3.06,3.06,0,0,0,307.969,202.728Zm0,0" transform="translate(-305.543 -191.326)" fill="#ae583e"/>
      <path id="Trazado_888691" data-name="Trazado 888691" d="M308.083,200.23a3.063,3.063,0,0,1,1.5,5.452l-.786-1.43a6.1,6.1,0,0,1-.709-4.022Zm0,0" transform="translate(-302.215 -191.864)" fill="#7c3f2c"/>
      <path id="Trazado_888692" data-name="Trazado 888692" d="M55.39,10.9c.16-.728.985-3.365,4.469-2.765a.156.156,0,0,1,.114.22c-.361.758-1.892,3.567-4.44,2.786a.206.206,0,0,1-.143-.241Zm0,0" transform="translate(-40.862 -7.732)" fill="#1ed688"/>
      <path id="Trazado_888693" data-name="Trazado 888693" d="M55.535,11.19c2.548.782,4.079-2.027,4.44-2.786a.156.156,0,0,0-.114-.22,5.829,5.829,0,0,0-.838-.086c-.535.943-1.731,2.589-3.524,2.462a3.99,3.99,0,0,0-.107.388.206.206,0,0,0,.143.241Zm0,0" transform="translate(-40.864 -7.78)" fill="#1ab975"/>
      <path id="Trazado_888694" data-name="Trazado 888694" d="M8.322,111.727l2.223,4.042a2.24,2.24,0,0,0,2.915.746,1.813,1.813,0,0,1,1.683,0,2.239,2.239,0,0,0,2.915-.746l2.224-4.042a6.132,6.132,0,0,0,.455-5.025,4.2,4.2,0,0,0-2.937-2.918,3.7,3.7,0,0,0-.906-.124c-.052,0-.081,0-.081,0a3.6,3.6,0,0,0-1.183.2,3.417,3.417,0,0,0-1,.545.511.511,0,0,1-.665,0,3.411,3.411,0,0,0-1-.545,3.6,3.6,0,0,0-1.183-.2,4.077,4.077,0,0,0-3.923,3.04,6.128,6.128,0,0,0,.455,5.025Zm0,0" transform="translate(0.054 -99.34)" fill="#c42d2d"/>
      <path id="Trazado_888695" data-name="Trazado 888695" d="M56.683,111.727l2.223,4.042a2.24,2.24,0,0,0,2.915.746,1.813,1.813,0,0,1,1.683,0,2.261,2.261,0,0,0,.884.249c.017-.034,1.782-3.916,2.233-4.906a8.545,8.545,0,0,0-.46-8.074,3.7,3.7,0,0,0-.906-.124c-.052,0-.08,0-.08,0a3.6,3.6,0,0,0-1.183.2,3.416,3.416,0,0,0-1,.545.511.511,0,0,1-.665,0,3.412,3.412,0,0,0-1-.545,3.6,3.6,0,0,0-1.183-.2,4.077,4.077,0,0,0-3.923,3.04A6.128,6.128,0,0,0,56.683,111.727Zm0,0" transform="translate(-48.306 -99.34)" fill="#f44545"/>
      <path id="Trazado_888696" data-name="Trazado 888696" d="M13.113,318.351a.726.726,0,0,1,.3.981,4.668,4.668,0,0,1-.8,1.09l2.422-.27a.726.726,0,1,1,.161,1.443l-2.422.27a4.668,4.668,0,0,1,1.024.886.726.726,0,0,1-1.1.944,5.078,5.078,0,0,0-3.606-1.428.726.726,0,0,1-.134-1.433,5.388,5.388,0,0,0,3.179-2.18.726.726,0,0,1,.981-.3Zm0,0" transform="translate(5.254 -304.958)" fill="#1ab975"/>
      <path id="Trazado_888697" data-name="Trazado 888697" d="M142.26,334.045a1.84,1.84,0,0,0,1.825,1.636l10.253.02a3.007,3.007,0,1,0-.663-5.937l-8.7,1.986-.621.142-.68.155a1.839,1.839,0,0,0-1.419,2Zm0,0" transform="translate(-141.864 -315.9)" fill="#ffa90b"/>
      <path id="Trazado_888698" data-name="Trazado 888698" d="M150.673,333.535a1.838,1.838,0,0,0,1.458.722l10.253.02a2.374,2.374,0,1,0,.363-4.59,2.948,2.948,0,0,0-.363.022,3.008,3.008,0,0,0-.311.054l-.31.071-8.385,1.916-.621.142-.68.155a1.839,1.839,0,0,0-1.4,1.487Zm0,0" transform="translate(-150.262 -315.9)" fill="#ffb52d"/>
      <path id="Trazado_888699" data-name="Trazado 888699" d="M26.9,370.777h0Zm0,0" transform="translate(-6.584 -355.268)"/>
      <path id="Trazado_888700" data-name="Trazado 888700" d="M27.193,370.813h0Zm0,0" transform="translate(-6.886 -355.302)"/>
      <path id="Trazado_888701" data-name="Trazado 888701" d="M1.747,16.338l.233-.054c-2.261-1.853-2.743-5.966-.613-8.109a5.015,5.015,0,0,0,1.309-3.49c0-1.973,1.3-3.578,2.893-3.578S8.463,2.713,8.463,4.686A5.642,5.642,0,0,0,8.617,6a4.109,4.109,0,0,1,5.425-.815V1.156a.316.316,0,0,1,.632,0V2.4c.943-1.7,2.66-2.158,4.583-1.771a.317.317,0,0,1,.23.43,7.4,7.4,0,0,1-1.265,1.967,3.42,3.42,0,0,1-3.548,1.212v.946a4.218,4.218,0,0,1,6.239,2.113.316.316,0,0,1-.58.251,3.571,3.571,0,0,0-5.443-1.74.827.827,0,0,1-1.065,0c-1.687-1.328-4.6-.75-5.6,2.156a5.832,5.832,0,0,0,.5,4.9c.371.664.676,1.216.928,1.675a14.093,14.093,0,0,1,2.9-.561.316.316,0,1,1-.013.631,2.7,2.7,0,0,0-.382.02l.19,1.7a.316.316,0,0,1-.628.07l-.183-1.645-3.062.7.09.812a.316.316,0,1,1-.628.07l-.082-.74L3.121,16.672l.244,2.19a.316.316,0,0,1-.628.07L2.5,16.814l-.613.14a1.524,1.524,0,0,0,.336,3.01l3.234.006-.115-1.03a.316.316,0,0,1,.628-.07l.123,1.1,3.1.006-.108-.968a.316.316,0,0,1,.628-.07c.027.241.113,1.014.116,1.04l1.484,0L11.124,18.3a.316.316,0,0,1,.628-.07l.2,1.757h.535a2.69,2.69,0,0,0,1.15-5.123.316.316,0,0,1,.271-.571,3.315,3.315,0,0,1,1.443,1.317,3.931,3.931,0,0,0,1.761-1.559,1.043,1.043,0,0,1,1.963.483l.99-1.8a5.815,5.815,0,0,0,.632-4.045.316.316,0,1,1,.619-.128,6.448,6.448,0,0,1-.7,4.477l-1.35,2.453.989-.11a1.042,1.042,0,0,1,.231,2.071l-1.638.182c.406.364.733.693.692,1.213a1.043,1.043,0,0,1-1.831.6,3.935,3.935,0,0,0-2.061-1.135,3.327,3.327,0,0,1-3.165,2.309L2.223,20.6a2.156,2.156,0,0,1-.476-4.257ZM18.73,1.178a3.173,3.173,0,0,0-3.868,2.454C16.574,4.092,17.92,2.739,18.73,1.178ZM2.8,16.1,9.01,14.679c-.179-.329-.378-.691-.6-1.09a3.376,3.376,0,0,1-6.233-1.023.316.316,0,0,1,.62-.124,2.744,2.744,0,0,0,5.239.474,6.527,6.527,0,0,1-.768-3.1,2.747,2.747,0,0,0-4.463,1.5.316.316,0,0,1-.618-.134,3.375,3.375,0,0,1,5.13-2.117,6.215,6.215,0,0,1,.822-2.416,6.241,6.241,0,0,1-.31-1.963c0-1.458-.908-2.946-2.262-2.946S3.308,3.208,3.308,4.686A5.582,5.582,0,0,1,1.815,8.621C.17,10.276.329,13.348,1.758,15.157A3.929,3.929,0,0,0,2.8,16.1Zm12.978,1.588a4.587,4.587,0,0,1,2.407,1.346.41.41,0,0,0,.624-.533,4.371,4.371,0,0,0-.955-.826.316.316,0,0,1,.136-.579l2.422-.27a.41.41,0,1,0-.091-.815h-.012l-2.188.244c-.1-.006-.407.124-.54-.151a.316.316,0,0,1,.059-.36,4.368,4.368,0,0,0,.75-1.016.411.411,0,0,0-.171-.554h0a.41.41,0,0,0-.554.171,4.574,4.574,0,0,1-2.054,1.834,3.357,3.357,0,0,1,.169,1.508Zm0,0" transform="translate(-0.002 -0.498)"/>
    </g>
  </g>
</svg>
